<svg width="121" height="25" viewBox="0 0 121 25" fill="none" xmlns="http://www.w3.org/2000/svg">
<path d="M12.6613 0.565674L11.0782 9.5798L6.42693 13.3847L8.67649 0.565674H4.16929L0 24.2098H4.50854L5.66631 17.669L10.3324 13.8344L8.49206 24.2098H13.0006L17.1699 0.565674H12.6613Z" fill="white"/>
<path d="M23.3385 13.8902L21.3851 15.5792C19.9312 16.8287 19.1665 17.9772 18.9996 18.9237C18.8394 19.8366 19.1423 20.5111 19.9527 20.5111C20.9732 20.5111 21.8334 19.6332 22.4756 18.7877L23.3385 13.8902ZM21.5864 24.2272L22.4258 21.8629H22.0031C21.237 22.8094 19.8006 24.5651 17.7234 24.5651C15.3984 24.5651 14.4049 22.8094 14.8276 20.4101C15.28 17.8425 16.7352 15.9859 19.6054 13.6876L23.9928 10.1748L24.0763 9.70222C24.3509 8.14848 24.0345 7.33795 23.0841 7.33795C22.1336 7.33795 21.5332 8.14848 21.2586 9.70222L20.8709 11.8982H16.4687L16.6895 10.6487C17.3801 6.73072 19.9931 4.29778 23.6199 4.29778C27.2466 4.29778 29.0021 6.72937 28.3061 10.6824L25.9179 24.2272H21.5864Z" fill="white"/>
<path d="M27.4052 24.2265L30.8589 4.63573H35.2611L34.4332 6.93268H34.8559C36.252 5.21064 37.7503 4.29778 39.3362 4.29778C41.0971 4.29778 42.7193 5.68322 42.0529 9.46526L39.4506 24.2258H35.0484L37.4299 10.7147C37.6628 9.39794 37.4595 8.5524 36.4728 8.5524C35.5573 8.5524 34.8034 9.43025 34.2972 10.1061L31.808 24.2258L27.4052 24.2265Z" fill="white"/>
<path d="M51.2117 9.66902C50.9384 8.82483 50.41 8.21625 49.6009 8.21625C48.5791 8.21625 47.9666 9.29741 47.7108 10.7502L46.4655 17.8093C46.2097 19.2621 46.4413 20.3433 47.4631 20.3433C48.2735 20.3433 49.0139 19.736 49.5861 18.8905L51.2117 9.66902ZM53.0459 24.2269L48.6437 24.2276L49.3599 21.9643H48.9372C47.6892 23.4507 46.5422 24.5656 44.8164 24.5656C42.3864 24.5656 41.0833 21.9643 42.2922 15.1085L42.5305 13.7567C43.7394 6.89948 45.818 4.29959 48.4943 4.29959C49.9388 4.29959 50.8219 5.27976 51.3658 6.39458H51.7885L52.813 0.582182H57.2152L53.0459 24.2269Z" fill="white"/>
<path d="M67.7454 11.2586L63.3432 11.2579L63.6704 9.39985C63.8912 8.1504 63.6879 7.3062 62.6661 7.3062C61.8906 7.3062 61.3616 7.91478 61.2539 8.522C61.0695 9.5695 61.5783 10.2777 62.4022 11.3939L64.8187 14.6697C65.8365 16.0888 66.7721 17.5752 66.379 19.8035C65.8849 22.6067 63.214 24.5657 59.94 24.5657C56.6659 24.5657 54.3733 22.775 55.0289 19.0603L55.3264 17.3719H59.7286L59.353 19.5005C59.1389 20.7163 59.5469 21.5942 60.4986 21.5942C61.3791 21.5942 61.8503 20.9183 61.9755 20.2087C62.1478 19.2286 61.6039 18.5203 60.8083 17.4392L58.4281 14.1634C57.44 12.778 56.5973 11.3602 56.9971 9.09691C57.4077 6.7663 59.8498 4.30104 63.2665 4.30104C66.6833 4.30104 68.5734 6.56434 67.9958 9.84013L67.7454 11.2586Z" fill="white"/>
<path d="M102.034 24.2276L99.3213 15.4451H98.8986L97.3504 24.2276H92.9482L97.1162 0.582182H101.52L99.4411 12.3712H99.8638L104.961 4.63619H109.681L103.663 13.789L107 24.2276H102.034Z" fill="white"/>
<path d="M112.236 12.9107H115.546L116.106 9.73588C116.35 8.35044 116.036 7.33795 114.874 7.33795C113.713 7.33795 113.041 8.35178 112.796 9.73588L112.236 12.9107ZM111.73 15.7826L111.14 19.127C110.896 20.5124 111.21 21.5249 112.373 21.5249C113.536 21.5249 114.207 20.5111 114.452 19.127L114.756 17.405H119.476C118.768 21.424 115.642 24.5651 111.839 24.5651C108.036 24.5651 106.016 21.8292 107.208 15.073L107.434 13.7899C108.625 7.03366 111.608 4.29778 115.412 4.29778C119.215 4.29778 121.304 7.03366 120.113 13.7899L119.761 15.7826H111.73Z" fill="white"/>
<path d="M66.5812 24.2263L70.7505 0.582182H75.1527L74.0986 6.56019H74.5213C75.9268 5.17474 77.2097 4.29689 78.7942 4.29689C80.5551 4.29689 81.896 5.68234 81.2282 9.46437L78.626 24.2249H74.2238L76.6591 10.4095C76.892 9.09276 76.6887 8.24722 75.7019 8.24722C74.7865 8.24722 74.0326 9.12507 73.5264 9.80097L70.9834 24.2263H66.5812Z" fill="white"/>
<path d="M88.8812 13.8902L86.9278 15.5792C85.4739 16.8287 84.7079 17.9772 84.5423 18.9237C84.3821 19.8366 84.685 20.5111 85.4954 20.5111C86.5172 20.5111 87.3761 19.6332 88.0183 18.7877L88.8812 13.8902ZM87.1291 24.2272L87.9685 21.8629H87.5457C86.7797 22.8094 85.3433 24.5651 83.2661 24.5651C80.9411 24.5651 79.9476 22.8094 80.3703 20.4101C80.8227 17.8425 82.2779 15.9859 85.1481 13.6876L89.5355 10.1748L89.619 9.70222C89.8922 8.14848 89.5772 7.33795 88.6268 7.33795C87.6763 7.33795 87.0746 8.14848 86.8013 9.70222L86.4136 11.8982H82.0114L82.2322 10.6487C82.9228 6.73072 85.5358 4.29778 89.1626 4.29778C92.7893 4.29778 94.5448 6.72937 93.8488 10.6824L91.4606 24.2272H87.1291Z" fill="white"/>
</svg>
