<?xml version="1.0" encoding="UTF-8" standalone="no"?>
<svg
   id="Layer_1"
   data-name="Layer 1"
   viewBox="0 0 325.1 68.11"
   version="1.1"
   sodipodi:docname="logo_at_penn_composite.svg"
   inkscape:version="1.1 (c68e22c387, 2021-05-23)"
   width="325.10001"
   height="68.110001"
   xmlns:inkscape="http://www.inkscape.org/namespaces/inkscape"
   xmlns:sodipodi="http://sodipodi.sourceforge.net/DTD/sodipodi-0.dtd"
   xmlns:xlink="http://www.w3.org/1999/xlink"
   xmlns="http://www.w3.org/2000/svg"
   xmlns:svg="http://www.w3.org/2000/svg">
  <sodipodi:namedview
     id="namedview321"
     pagecolor="#ffffff"
     bordercolor="#666666"
     borderopacity="1.0"
     inkscape:pageshadow="2"
     inkscape:pageopacity="0.0"
     inkscape:pagecheckerboard="0"
     showgrid="false"
     inkscape:zoom="1.4740164"
     inkscape:cx="140.09342"
     inkscape:cy="-39.687482"
     inkscape:window-width="1920"
     inkscape:window-height="1001"
     inkscape:window-x="-9"
     inkscape:window-y="-9"
     inkscape:window-maximized="1"
     inkscape:current-layer="g4079"
     fit-margin-top="0"
     fit-margin-left="0"
     fit-margin-right="0"
     fit-margin-bottom="0" />
  <defs
     id="defs270">
    <style
       id="style265">.cls-1{fill:none;}.cls-2{fill:#1d2758;}.cls-3{clip-path:url(#clip-path);}.cls-4{fill:#fff;}.cls-5{fill:#991b1e;}</style>
    <clipPath
       id="clip-path">
      <rect
         class="cls-1"
         y="0.20999999"
         width="51.09"
         height="58.169998"
         id="rect267"
         x="0" />
    </clipPath>
    <clipPath
       id="clip-path-0">
      <rect
         class="cls-1"
         y="0.20999999"
         width="51.09"
         height="58.169998"
         id="rect267-1"
         x="0" />
    </clipPath>
    <rect
       id="SVGID_1_"
       y="0.2"
       width="51.099998"
       height="58.200001"
       x="0" />
    <rect
       id="SVGID_1_-0"
       y="0.20999999"
       width="51.091999"
       height="58.174999"
       x="0" />
  </defs>
  <g
     inkscape:groupmode="layer"
     id="g4079"
     inkscape:label="Path@Penn reverse"
     style="display:inline"
     transform="translate(-0.182629,-0.6801358)">
    <g
       id="g5158">
      <g
         id="g4043"
         transform="translate(0.182629,0.4801358)"
         style="fill:#ffffff;fill-opacity:1">
        <path
           class="st0"
           d="m 67,37.6 c 0,5.1 1.2,6.6 4.7,6.6 v 1.2 H 56.8 v -1.2 c 2.9,0 4.7,-0.9 4.7,-6.4 V 11.9 c 0,-5 -1.2,-6.6 -4.7,-6.6 V 4.2 h 15 c 11.4,0 16,6 16,11.7 0,6.8 -5.2,10.7 -14.5,10.7 -1.8,0 -3.3,-0.1 -6.3,-0.4 z m 0,-13.3 c 1.9,0.6 3,0.7 5.1,0.7 6.1,0 10,-3.3 10,-8.9 0,-4.4 -2.4,-10.3 -10,-10.3 H 67 Z"
           id="path4025"
           style="fill:#ffffff;fill-opacity:1" />
        <path
           class="st0"
           d="m 104.8,39.5 c 0,3 0.3,4 1.4,4 0.8,0 1.2,-0.6 1.7,-2.4 h 1.2 c -0.2,3.2 -2.1,5.2 -5,5.2 -2.2,0 -3.5,-1.1 -4.3,-3.6 -2.5,2.7 -4.2,3.6 -6.8,3.6 -4,0 -7.3,-3 -7.3,-6.8 0,-7.3 9.9,-7 14.1,-9.4 v -1.9 c 0,-3.6 -2.1,-6.2 -5.7,-6.2 -2.9,0 -5.7,1.8 -6.8,5.5 L 86,27.1 c 1.1,-4.8 4.8,-7.8 9.4,-7.8 4.2,0 9.2,2.4 9.2,9.4 v 10.8 z m -4.9,-7.9 c -4.8,2.1 -9.1,2 -9.1,7.2 0,2.6 1.8,4.7 3.9,4.7 1.5,0 4.2,-1.1 5.3,-3.2 v -8.7 z"
           id="path4027"
           style="fill:#ffffff;fill-opacity:1" />
        <path
           class="st0"
           d="m 116.6,19.9 h 8.9 v 1.9 h -8.9 v 16.4 c 0,3.5 1.8,5.3 4.6,5.3 1.9,0 3.2,-0.7 4.8,-2.4 l 0.8,0.9 c -2.2,2.8 -4.8,4.2 -7.7,4.2 -4.3,0 -7.3,-3 -7.3,-7.4 V 21.7 H 107 v -1.2 c 3.5,-1.7 6.3,-4.8 8.5,-9.2 h 1.2 v 8.6 z"
           id="path4029"
           style="fill:#ffffff;fill-opacity:1" />
        <path
           class="st0"
           d="m 153,39.3 c 0,3.9 0.7,4.9 4.1,4.9 v 1.2 h -13.2 v -1.2 c 3.5,0 4.2,-0.8 4.2,-4.1 V 27.5 c 0,-3.4 -2,-5.5 -5.1,-5.5 -2.9,0 -5,1.4 -7.4,4.8 v 14 c 0,2.7 1.1,3.5 4.2,3.5 v 1.2 h -13.7 v -1.2 c 3.8,-0.1 4.5,-0.8 4.5,-4.9 V 6.1 c 0,-3.3 -0.9,-3.8 -4.5,-3.8 V 1.1 l 8.2,-0.9 h 1.2 v 24.1 c 3.2,-3.7 5.6,-5.1 8.9,-5.1 4.2,0 8.5,2.8 8.5,8.9 v 11.2 z"
           id="path4031"
           style="fill:#ffffff;fill-opacity:1" />
        <path
           class="st0"
           d="m 193.1,35.9 c -0.4,1.3 -0.8,3 -0.8,4.3 0,1.3 1,2.2 2.2,2.2 5.8,0 12.5,-8.8 12.5,-19.1 0,-10.6 -7.9,-18.1 -19,-18.1 -15.8,0 -25.1,14.3 -25.1,28 0,13.8 9.5,23.5 22.9,23.5 10.7,0 19.1,-5.9 23.6,-16.3 h 1.7 c -3.5,11.4 -14.2,18 -25.4,18 -14.7,0 -25.6,-11 -25.6,-26 0,-16.1 12.2,-28.7 27.7,-28.7 12.5,0 20.9,8.2 20.9,20.1 0,9.2 -5.7,20.7 -16.1,20.7 -2.9,0 -4.5,-1.4 -4.5,-4 0,-1.3 0.1,-2.2 0.5,-4.2 l -0.1,-0.1 c -4.2,5.7 -8.2,8.3 -11.4,8.3 -3,0 -5.3,-3 -5.3,-6.8 0,-9.4 9.7,-20.5 16.1,-20.5 2.8,0 4.6,1.5 5,4 h 0.1 l 0.9,-3.2 4.6,-0.6 z m -16.8,0.9 c 0,2.3 1.6,4.2 3.4,4.2 1.7,0 3.4,-1 5.3,-2.8 5.2,-5.2 6.7,-11.3 6.7,-15.5 0,-2.4 -1.4,-4.1 -3.5,-4.1 -5.6,-0.1 -11.9,12.9 -11.9,18.2 z"
           id="path4033"
           style="fill:#ffffff;fill-opacity:1" />
        <path
           class="st0"
           d="m 223.1,37.6 c 0,5.1 1.2,6.6 4.7,6.6 v 1.2 H 213 v -1.2 c 2.9,0 4.7,-0.9 4.7,-6.4 V 11.9 c 0,-5 -1.2,-6.6 -4.7,-6.6 V 4.2 h 15 c 11.4,0 16,6 16,11.7 0,6.8 -5.2,10.7 -14.5,10.7 -1.8,0 -3.3,-0.1 -6.3,-0.4 v 11.4 z m 0,-13.3 c 1.9,0.6 3,0.7 5.1,0.7 6.1,0 10,-3.3 10,-8.9 0,-4.4 -2.4,-10.3 -10,-10.3 h -5.1 z"
           id="path4035"
           style="fill:#ffffff;fill-opacity:1" />
        <path
           class="st0"
           d="m 244.9,29.9 c -0.1,11.4 6.7,14.3 10.2,14.3 3.5,0 5.3,-1.2 9,-5.3 v 1.9 c -3.1,4 -6,5.5 -10.5,5.5 -8,0 -13.8,-5.5 -13.8,-13.2 0,-7.7 5.6,-13.8 12.8,-13.8 5.9,0 11.4,4.8 11,10.7 h -18.7 z m 13.9,-1.3 c 0.2,-5.6 -3.6,-7.9 -6.8,-7.9 -4.2,0 -6.8,3.2 -7.1,7.9 z"
           id="path4037"
           style="fill:#ffffff;fill-opacity:1" />
        <path
           class="st0"
           d="m 290.6,39.9 c 0,3.3 0.7,4.3 4.3,4.3 v 1.2 h -13.6 v -1.2 c 3.5,0 4.4,-0.8 4.4,-3.2 V 27.7 c 0,-4.1 -3,-5.8 -5.7,-5.8 -2.5,0 -4.8,1.6 -7.3,5 v 12.5 c 0,3.9 0.5,4.9 4.3,4.9 v 1.2 h -13.5 v -1.2 c 3.4,0 4.2,-0.3 4.2,-4.9 V 25 c 0,-3.1 -0.8,-3.7 -4.2,-3.7 V 20 l 7.9,-0.8 h 1.2 v 5.1 c 3,-3.5 6,-5.1 9.2,-5.1 4.2,0 8.6,3 8.6,9.1 v 11.6 z"
           id="path4039"
           style="fill:#ffffff;fill-opacity:1" />
        <path
           class="st0"
           d="m 320.8,39.9 c 0,3.3 0.7,4.3 4.3,4.3 v 1.2 h -13.6 v -1.2 c 3.5,0 4.4,-0.8 4.4,-3.2 V 27.7 c 0,-4.1 -3,-5.8 -5.7,-5.8 -2.5,0 -4.8,1.6 -7.3,5 v 12.5 c 0,3.9 0.5,4.9 4.3,4.9 v 1.2 h -13.5 v -1.2 c 3.4,0 4.2,-0.3 4.2,-4.9 V 25 c 0,-3.1 -0.8,-3.7 -4.2,-3.7 V 20 l 7.9,-0.8 h 1.2 v 5.1 c 3,-3.5 6,-5.1 9.2,-5.1 4.2,0 8.6,3 8.6,9.1 v 11.6 z"
           id="path4041"
           style="fill:#ffffff;fill-opacity:1" />
      </g>
      <g
         id="g4075"
         transform="translate(0.182629,0.4801358)">
        <g
           id="g4055">
          <defs
             id="defs4047">
            <rect
               id="rect4045"
               y="0.2"
               width="51.099998"
               height="58.200001"
               x="0" />
          </defs>
          <clipPath
             id="clipPath4051">
            <use
               xlink:href="#SVGID_1_"
               style="overflow:visible"
               id="use4049"
               x="0"
               y="0"
               width="100%"
               height="100%" />
          </clipPath>
          <path
             class="st1"
             d="M 51.1,0.2 H 0 c 0,0 0,25.3 0,25.5 0,11.1 6.1,19.1 11.3,23.9 5.7,5.3 11.9,8.3 14,8.8 l 0.3,0.1 0.3,-0.1 C 28,57.9 34.2,54.9 39.9,49.6 45.1,44.8 51.2,36.8 51.2,25.7 51.1,25.4 51.1,0.2 51.1,0.2 Z"
             clip-path="url(#SVGID_2_)"
             id="path4053" />
        </g>
        <path
           class="st2"
           d="m 47.9,10.9 v 0 c 0.1,0.1 0.2,0.1 0.2,0.2 0.1,0.1 0.1,0.2 0.1,0.3 0,0.1 0,0.2 -0.1,0.3 -0.1,0.1 -0.1,0.1 -0.2,0.2 -0.1,0.1 -0.2,0.2 -0.2,0.3 v 0.9 h -5.4 -5.4 v -0.9 c 0,-0.1 -0.1,-0.2 -0.2,-0.3 -0.1,-0.1 -0.2,-0.1 -0.2,-0.2 -0.1,-0.1 -0.1,-0.2 -0.1,-0.3 0,-0.1 0,-0.2 0.1,-0.3 0.1,-0.1 0.1,-0.1 0.2,-0.2 0.1,-0.1 0.2,-0.2 0.2,-0.3 v -3 C 36.9,7.5 36.8,7.4 36.7,7.3 36.6,7.2 36.5,7.2 36.5,7.1 36.4,7 36.4,6.9 36.4,6.8 36.4,6.7 36.4,6.6 36.5,6.5 36.6,6.4 36.6,6.4 36.7,6.3 36.9,6.2 37,6.1 37,6 V 5 h 0.1 c 0.6,0 1.2,0 1.6,-0.2 0.2,-0.1 0.3,-0.2 0.5,-0.3 0.3,-0.2 0.7,-0.4 1.3,-0.4 0.4,0 0.9,0.2 1.2,0.3 0.3,0.1 0.5,0.2 0.7,0.2 h 0.1 c 0.2,0 0.4,-0.1 0.7,-0.2 0.4,-0.1 0.8,-0.3 1.2,-0.3 0.6,0 0.9,0.2 1.3,0.4 0.2,0.1 0.3,0.2 0.5,0.3 C 46.4,5 47,5 47.6,5 h 0.1 v 1 c 0,0.1 0.1,0.2 0.2,0.3 0.1,0.1 0.2,0.1 0.2,0.2 0.1,0.1 0.1,0.2 0.1,0.3 0,0.1 0,0.2 -0.1,0.3 C 48,7.2 48,7.2 47.9,7.3 47.8,7.4 47.7,7.5 47.7,7.6 v 3 c 0,0.1 0.1,0.2 0.2,0.3 z m -13.1,1.5 c -0.8,1.3 -2.4,1.6 -2.5,1.7 -0.3,0.1 -0.6,0.1 -1,0.1 v 0 c -1.7,0 -3.2,-0.7 -4.8,-1.5 -0.2,-0.1 -0.4,-0.2 -0.6,-0.3 -1,-0.5 -2.4,-1.3 -3.6,-1.3 -0.3,0 -0.7,0.1 -1,0.2 v 0 0.1 c 0,0.2 0,0.3 -0.1,0.4 -0.2,0.5 -0.8,1 -1.1,1.3 -0.7,0.5 -1.5,1 -2.6,1 -0.2,0 -0.3,0 -0.4,-0.1 -0.2,-0.1 -0.4,-0.2 -0.5,-0.3 -0.1,-0.1 -0.1,-0.2 -0.1,-0.3 0,-0.1 0,-0.1 -0.1,-0.2 v -0.1 h -0.1 c -0.4,-0.1 -0.7,-0.4 -0.7,-0.7 0,-0.2 0.2,-0.5 0.4,-0.7 0.3,-0.3 0.5,-0.6 0.1,-1 0,0 -0.1,-0.1 -0.1,-0.1 -0.1,0 -0.1,-0.1 -0.2,-0.1 -0.3,-0.4 -0.1,-1.1 0,-1.6 v 0 c 0.1,-0.5 0.3,-1 0.6,-1.5 0.4,-0.7 0.8,-1.6 1.5,-2.1 0,0 0,0 0,0 0,0 0,0 0,0 0,0 0.1,0.1 0.2,0.3 l 0.1,0.2 0.1,-0.2 c 0.2,-0.5 0.5,-0.9 0.9,-1 0.4,-0.2 0.8,0.1 1,0.2 l 0.1,0.1 0.1,-0.1 c 0.1,-0.2 0.4,-0.5 0.8,-0.5 0.4,0 0.8,0.3 1,0.5 l 0.1,0.1 0.1,-0.1 c 0.2,-0.2 0.7,-0.5 1.2,-0.5 0.5,0.1 0.7,0.5 0.7,0.7 v 0.1 h 0.1 c 0.2,-0.1 0.7,-0.3 1.1,0 0.3,0.2 0.3,0.5 0.3,0.7 v 0.1 h 0.1 c 0.3,-0.1 0.9,-0.1 1.2,0.3 0.3,0.3 0.3,0.6 0.3,0.9 v 0.1 h 0.1 c 0.3,0 0.6,0 0.8,0.3 0.1,0.2 0.1,0.5 0,0.7 v 0.1 h 0.1 c 0.2,0 0.4,0.1 0.5,0.4 0.1,0.2 0,0.5 -0.1,0.8 v 0.1 h 0.1 c 0.1,0.1 0.4,0.2 0.5,0.5 0.1,0.3 0.1,0.6 0,1 v 0.1 0 c 0.4,0.3 0.7,0.6 1.1,0.9 0.7,0.5 1.8,0.8 2.6,0.2 0.3,-0.2 0.4,-0.7 0.3,-1.1 -0.1,-0.4 -0.3,-0.6 -0.6,-0.7 -0.6,-0.1 -1,0.4 -1.4,1 0,0 0,0 -0.1,0 0,0 0,0 0,0 -0.3,-0.8 -0.4,-1.5 0,-2 0.3,-0.4 0.8,-0.7 1.4,-0.8 h 0.1 V 8.6 c 0,-1 0.2,-1.7 0.7,-2.1 0.3,-0.3 0.8,-0.5 1.7,-0.4 0,0 0,0 0,0 0,0 0,0 0,0.1 -0.7,1 -0.5,1.6 -0.2,2.8 0,0.1 0.1,0.2 0.1,0.3 v 0 c 0.3,1.3 0.2,2.3 -0.3,3.1 z M 14.3,10.9 v 0 c 0.1,0.1 0.2,0.1 0.2,0.2 0.1,0.1 0.1,0.2 0.1,0.3 0,0.1 0,0.2 -0.1,0.3 -0.1,0.1 -0.1,0.1 -0.2,0.2 -0.1,0.1 -0.2,0.2 -0.2,0.3 v 0.9 H 8.7 3.3 V 12.2 C 3.3,12.1 3.2,12 3.1,11.9 3,11.8 2.9,11.8 2.9,11.7 2.8,11.6 2.8,11.5 2.8,11.4 2.8,11.3 2.8,11.2 2.9,11.1 3,11 3.1,10.9 3.1,10.9 3.2,10.8 3.3,10.7 3.3,10.6 v -3 C 3.3,7.5 3.2,7.4 3.1,7.3 3.1,7.2 3,7.1 2.9,7.1 2.9,7 2.9,6.9 2.9,6.8 2.9,6.7 2.9,6.6 3,6.5 3,6.4 3.1,6.3 3.1,6.3 3.3,6.2 3.4,6.1 3.4,6 V 5 H 3.5 C 4.1,5 4.7,5 5.1,4.8 5.3,4.7 5.4,4.6 5.6,4.5 5.9,4.3 6.3,4.1 6.9,4.1 c 0.4,0 0.9,0.2 1.2,0.3 0.3,0.1 0.5,0.2 0.7,0.2 h 0.1 c 0.2,0 0.4,-0.1 0.7,-0.2 0.4,-0.1 0.8,-0.3 1.2,-0.3 0.6,0 0.9,0.2 1.3,0.4 0.2,0.1 0.3,0.2 0.5,0.3 C 12.8,5 13.3,5 13.9,5 H 14 v 1 c 0,0.1 0.1,0.2 0.2,0.3 0.1,0.1 0.2,0.1 0.2,0.2 0.1,0.1 0.1,0.2 0.1,0.3 0,0.1 0,0.2 -0.1,0.3 C 14.3,7.2 14.3,7.2 14.2,7.3 14.1,7.4 14,7.5 14,7.6 v 3 c 0.1,0.1 0.2,0.2 0.3,0.3 z M 1.3,1.6 c 0,0 0.1,14.8 0,14.7 h 48.5 c 0,-6.9 0,-14.7 0,-14.7 H 1.3 Z"
           id="path4057" />
        <path
           class="st0"
           d="m 18,10.2 c 0.2,0 0.3,0 0.5,0.2 0.1,0 0.1,0.1 0.1,0.1 0.1,0.1 0.1,0.3 0,0.4 -0.1,0.1 -0.3,0.2 -0.3,0.3 -0.2,0.1 -0.5,0.4 -0.8,0.2 -0.1,-0.1 0.1,-0.3 0,-0.7 -0.1,-0.3 0.3,-0.5 0.5,-0.5 z"
           id="path4059" />
        <path
           class="st0"
           d="m 18.1,5.5 c -0.5,0.5 -0.9,1.3 -1.3,1.9 -0.3,0.5 -0.5,1 -0.6,1.5 v 0 c -0.1,0.4 -0.3,1.1 0,1.4 0,0 0.1,0.1 0.1,0.1 0,0 0.1,0.1 0.1,0.1 0.5,0.5 0.2,0.9 -0.1,1.3 -0.1,0.2 -0.3,0.3 -0.3,0.5 0,0.4 0.5,0.5 0.6,0.5 0.1,0 0.1,0.1 0.1,0.1 0,0.1 0,0.2 0.1,0.3 0,0.1 0.1,0.1 0.1,0.2 0.1,0.1 0.2,0.2 0.4,0.3 0.1,0 0.2,0.1 0.4,0.1 1,0 1.8,-0.5 2.5,-1 0.4,-0.3 0.9,-0.8 1,-1.2 0,-0.1 0.1,-0.2 0.1,-0.3 l -0.7,-0.1 c 0,0 0,0 0,0 -0.1,0 -0.1,-0.1 -0.1,-0.1 0,-0.1 0.1,-0.2 0.3,-0.4 0.1,0 0.1,-0.1 0.2,-0.2 C 21.4,10.2 21.7,10 21.8,9.9 21.6,9.7 21.4,9.4 21.3,9.2 21.1,9.1 21.1,9 21,8.9 20.7,8.5 20,8.3 19.6,8.6 19.3,8.7 19.2,8.9 19,9 c -0.1,0.1 -0.3,0.3 -0.5,0.4 -0.1,0 -0.2,0 -0.2,0 -0.1,-0.1 0,-0.2 0,-0.2 0,0 0,0 0.1,-0.1 C 18.6,8.9 19.2,8.4 19.2,8 19.1,7.2 18.4,5.9 18.1,5.5 Z m 4.3,5.3 c 1.2,0 2.6,0.8 3.7,1.3 0.2,0.1 0.4,0.2 0.6,0.3 1.8,1 3.7,1.8 5.6,1.4 0,0 1.6,-0.3 2.4,-1.6 C 35.2,11.4 35.3,10.5 35,9.3 35,9.2 34.9,9.1 34.9,9 34.6,7.8 34.4,7.2 35,5.7 c -0.7,0 -1.1,0.2 -1.3,0.4 -0.4,0.4 -0.6,1.1 -0.6,2 0,0.1 -0.1,0.2 -0.1,0.2 -0.6,0.1 -1.1,0.3 -1.3,0.8 -0.2,0.4 -0.2,0.9 0,1.5 0.3,-0.4 0.8,-1 1.4,-0.8 0.4,0.1 0.7,0.4 0.8,0.8 0.1,0.5 0,1 -0.4,1.3 -0.8,0.7 -2.1,0.4 -2.8,-0.2 C 29.8,11 28.9,10.2 27.9,9.1 27.7,8.9 27.6,8.7 27.4,8.5 c -0.6,-0.7 -1.2,-1.4 -2,-2 -1.2,-0.9 -2.5,-1 -3.5,-1 -0.6,0 -1.9,0.2 -2.8,0.7 0.3,0.6 0.5,1.2 0.5,1.7 0,0.1 0,0.2 0,0.3 0.6,-0.4 1.4,-0.1 1.8,0.4 0.1,0.1 0.2,0.3 0.3,0.4 0.2,0.3 0.4,0.5 0.6,0.7 0,0 0.1,0.1 0,0.1 0,0 0,0.1 -0.1,0.1 0,0 -0.4,0.3 -1,0.7 -0.1,0.1 -0.2,0.1 -0.2,0.2 0,0 0,0 0,0 l 0.5,0.1 c 0.2,0 0.5,-0.1 0.9,-0.1 z m 9,3.5 c -1.7,0 -3.2,-0.7 -4.8,-1.5 -0.2,-0.1 -0.4,-0.2 -0.6,-0.3 -1.3,-0.7 -3.2,-1.7 -4.4,-1.1 0,0.2 0,0.3 -0.1,0.5 -0.2,0.5 -0.8,1.1 -1.1,1.3 -0.7,0.5 -1.6,1 -2.6,1 -0.2,0 -0.3,0 -0.5,-0.1 -0.2,-0.1 -0.4,-0.2 -0.5,-0.4 -0.1,-0.1 -0.1,-0.2 -0.2,-0.3 0,-0.1 -0.1,-0.2 -0.1,-0.3 -0.4,-0.1 -0.7,-0.4 -0.7,-0.8 0,-0.3 0.2,-0.5 0.4,-0.7 0.3,-0.4 0.4,-0.5 0.1,-0.8 0,0 -0.1,-0.1 -0.1,-0.1 -0.1,0 -0.1,-0.1 -0.2,-0.1 C 15.6,10.2 15.8,9.4 16,9 v 0 c 0.1,-0.5 0.3,-1 0.6,-1.6 0.4,-0.8 0.8,-1.6 1.5,-2.2 0,0 0.1,0 0.1,0 0,0 0.1,0 0.1,0.1 0,0 0.3,0.4 0.6,1 1.1,-0.7 2.7,-0.8 2.9,-0.8 1,0 2.4,0.1 3.7,1.1 0.8,0.6 1.4,1.3 2,2 0.2,0.2 0.3,0.4 0.5,0.6 0.9,1.1 1.8,1.9 2.7,2.5 0.7,0.5 1.7,0.8 2.5,0.2 0.3,-0.2 0.4,-0.6 0.3,-1 -0.1,-0.3 -0.3,-0.5 -0.6,-0.6 -0.5,-0.1 -0.9,0.4 -1.3,0.9 0,0 -0.1,0.1 -0.1,0.1 -0.1,0 -0.1,0 -0.1,-0.1 -0.4,-0.8 -0.4,-1.5 0,-2.1 0.3,-0.5 0.8,-0.8 1.4,-0.9 0,-1 0.2,-1.7 0.7,-2.1 0.3,-0.3 0.8,-0.6 1.7,-0.4 0,0 0.1,0 0.1,0.1 0,0 0,0.1 0,0.1 -0.6,1.5 -0.5,2.1 -0.1,3.3 0,0.1 0.1,0.2 0.1,0.4 0.3,1.2 0.2,2.3 -0.3,3.1 -0.9,1.4 -2.5,1.7 -2.6,1.7 -0.4,-0.2 -0.7,-0.1 -1,-0.1 z"
           id="path4061" />
        <path
           class="st0"
           d="m 17,13.2 c -0.1,0 -0.3,0 -0.4,0 -0.1,0 -0.1,-0.1 -0.1,-0.2 0,-0.1 0.1,-0.1 0.2,-0.1 0.7,0.1 1.7,0 2.6,-0.9 0.1,-0.1 0.2,-0.1 0.2,0 0.1,0.1 0.1,0.2 0,0.2 -0.7,0.6 -1.5,1 -2.5,1 z"
           id="path4063" />
        <path
           class="st0"
           d="m 29.4,10.9 c 0,0 0,0 0,0 -0.1,0 -0.2,-0.1 -0.1,-0.2 0.2,-0.4 0.2,-0.7 0.1,-0.9 -0.2,-0.3 -0.5,-0.4 -0.5,-0.4 0,0 -0.1,0 -0.1,-0.1 0,0 0,-0.1 0,-0.1 C 28.9,9.1 29,8.6 28.9,8.4 28.8,8.2 28.5,8.1 28.4,8.1 c 0,0 -0.1,0 -0.1,-0.1 0,0 0,-0.1 0,-0.1 0,-0.1 0.1,-0.5 0,-0.6 -0.2,-0.4 -0.8,-0.2 -0.8,-0.2 -0.1,0 -0.1,0 -0.1,0 0,0 -0.1,-0.1 0,-0.1 0,0 0.2,-0.5 -0.2,-0.9 C 26.8,5.7 26,5.9 26,5.9 c -0.1,0 -0.1,0 -0.1,0 0,0 0,-0.1 0,-0.1 0,0 0.1,-0.5 -0.2,-0.7 -0.5,-0.3 -1,0.1 -1,0.1 0,0 -0.1,0 -0.1,0 0,0 -0.1,-0.1 -0.1,-0.1 0,0 -0.1,-0.6 -0.6,-0.7 -0.6,-0.1 -1.1,0.5 -1.2,0.5 0,0 -0.1,0 -0.1,0 0,0 -0.1,0 -0.1,-0.1 0,0 -0.4,-0.5 -0.9,-0.5 -0.5,0 -0.7,0.5 -0.7,0.5 0,0 -0.1,0.1 -0.1,0.1 0,0 -0.1,0 -0.1,0 0,0 -0.5,-0.5 -1,-0.3 -0.6,0.2 -0.8,1 -0.8,1.2 v 0 c 0,0.1 -0.1,0.1 -0.2,0.1 -0.1,0 -0.1,-0.1 -0.1,-0.2 v 0 c 0.1,-0.3 0.3,-1.1 1,-1.4 0.5,-0.2 0.9,0.1 1.1,0.2 0.1,-0.2 0.4,-0.5 0.8,-0.5 0.5,0 0.9,0.3 1,0.5 0.2,-0.2 0.7,-0.6 1.3,-0.5 0.5,0.1 0.7,0.4 0.8,0.7 0.3,-0.1 0.7,-0.3 1.2,0 0.3,0.2 0.3,0.5 0.3,0.8 0.3,-0.1 0.9,-0.1 1.3,0.3 0.3,0.3 0.3,0.7 0.3,1 0.3,0 0.7,0 0.9,0.3 0.2,0.2 0.1,0.5 0.1,0.7 0.2,0 0.5,0.2 0.6,0.4 0.1,0.3 0,0.6 -0.1,0.8 0.2,0.1 0.4,0.2 0.6,0.5 0.2,0.3 0.1,0.7 -0.1,1.2 -0.2,0.2 -0.2,0.2 -0.3,0.2 z"
           id="path4065" />
        <path
           class="st0"
           d="m 28.7,12.9 c 0,0 0,0 0,0 -0.1,0 -0.2,-0.1 -0.1,-0.2 C 28.7,12.1 28.3,12 28.1,12 28,12 28,12 27.9,11.9 c -0.2,-0.1 -0.2,-0.3 -0.2,-0.5 0,-0.2 0,-0.4 -0.2,-0.6 -0.3,-0.3 -0.8,-0.1 -0.8,-0.1 0,0 -0.1,0 -0.1,0 0,0 -0.1,-0.1 -0.1,-0.1 0,0 0.1,-0.6 -0.3,-0.9 -0.3,-0.2 -0.8,-0.2 -1,-0.1 0,0 -0.1,0 -0.1,0 C 25.1,9.6 25,9.5 25,9.5 25,9.1 24.9,8.8 24.6,8.6 24.4,8.4 24.1,8.4 23.9,8.5 23.3,8.8 23.1,8.8 22.4,8.4 22.2,8.3 22,8.2 21.8,8.3 21.6,8.4 21.3,8.6 21.2,8.9 21.2,9 21.1,9 21,9 20.9,9 20.9,8.9 20.9,8.8 21.1,8.4 21.4,8.1 21.7,8 c 0.3,-0.1 0.6,0 0.8,0.2 0.5,0.4 0.7,0.4 1.2,0.1 0.3,-0.2 0.7,-0.1 1,0.1 0.3,0.2 0.5,0.5 0.5,0.9 0.3,0 0.8,0 1.1,0.2 0.3,0.3 0.4,0.7 0.4,0.9 0.2,0 0.6,-0.1 0.9,0.2 0.2,0.3 0.2,0.6 0.2,0.8 0,0.1 0,0.2 0,0.2 0,0 0.1,0 0.1,0 0.3,0.1 0.8,0.3 0.7,1.1 0.2,0.1 0.2,0.2 0.1,0.2 z"
           id="path4067" />
        <path
           class="st0"
           d="m 14.4,11.4 c 0,0.1 0,0.1 -0.1,0.2 0,0.1 -0.1,0.1 -0.2,0.2 -0.1,0.1 -0.3,0.2 -0.3,0.5 V 13 H 8.7 v 0 H 3.6 V 12.3 C 3.6,12.1 3.4,11.9 3.3,11.8 3.2,11.7 3.2,11.7 3.1,11.6 3.1,11.5 3,11.5 3,11.4 v 0 0 c 0,-0.1 0,-0.1 0.1,-0.2 0,-0.1 0.1,-0.1 0.2,-0.2 0.1,-0.1 0.3,-0.2 0.3,-0.5 v -3 C 3.6,7.3 3.4,7.1 3.3,7 3.2,7.1 3.1,7 3.1,6.9 3.1,6.8 3,6.8 3,6.7 v 0 0 C 3,6.6 3,6.6 3.1,6.5 3.1,6.4 3.2,6.4 3.3,6.3 3.4,6.3 3.6,6.2 3.6,6 V 5.3 c 0,0 0,0 0,0 0.3,0 0.5,0 0.8,0 V 12 h 3.8 c 0.1,0.3 0.3,0.5 0.6,0.5 0.3,0 0.5,-0.2 0.6,-0.5 h 3.8 v 0 -6.8 c 0.2,0 0.5,0 0.8,0 0,0 0,0 0,0 V 6 c 0,0.2 0.2,0.4 0.3,0.5 0.1,0.1 0.1,0.1 0.2,0.2 0,0.1 0.1,0.1 0.1,0.2 v 0 0 c 0,0.1 0,0.1 -0.1,0.2 0,0.1 -0.1,0.1 -0.2,0.2 C 14.2,7.4 14,7.5 14,7.8 v 3 c 0,0.2 0.2,0.4 0.3,0.5 0.1,0.1 0.1,0.1 0.2,0.2 -0.1,-0.3 -0.1,-0.2 -0.1,-0.1 z M 5.2,5.1 C 5.3,5 5.5,4.9 5.7,4.8 6,4.6 6.3,4.4 6.8,4.4 c 0.4,0 0.8,0.2 1.1,0.3 0.2,0.1 0.5,0.2 0.7,0.2 v 6 c 0,0 0,0 0,0 -0.3,0 -0.7,0.2 -1.2,0.3 -0.2,0 -0.3,0.1 -0.5,0.1 -0.4,0.1 -0.9,0.1 -1.4,0.1 -0.3,0 -0.6,0 -0.8,0 V 5.2 C 4.9,5.2 5,5.1 5.2,5.1 Z M 9.5,4.7 c 0.3,-0.1 0.7,-0.3 1.1,-0.3 0.5,0 0.8,0.2 1.1,0.4 0.3,0.1 0.4,0.2 0.6,0.3 0.1,0.1 0.3,0.1 0.5,0.1 v 6.3 c -0.3,0 -0.5,0 -0.8,0 -0.5,0 -0.9,0 -1.4,-0.1 -0.2,0 -0.3,-0.1 -0.5,-0.1 C 9.6,11.2 9.2,11 8.9,11 c 0,0 0,0 0,0 V 5 C 9.1,4.9 9.3,4.8 9.5,4.7 Z m 4.9,6.1 c -0.1,-0.1 -0.2,-0.2 -0.2,-0.2 v -3 c 0,-0.1 0.1,-0.2 0.2,-0.2 0.1,-0.1 0.2,-0.1 0.2,-0.2 0.1,-0.1 0.1,-0.2 0.1,-0.3 0,-0.1 0,-0.2 -0.1,-0.3 C 14.5,6.5 14.4,6.4 14.4,6.4 14.3,6.1 14.2,6 14.2,6 V 5 H 14 V 5 C 13.5,5 12.9,5 12.5,4.8 12.4,4.7 12.2,4.6 12.1,4.6 11.7,4.3 11.3,4 10.7,4 10.2,4 9.8,4.2 9.4,4.3 9.2,4.5 8.9,4.6 8.8,4.6 v 0 0 0 0 0 C 8.5,4.6 8.3,4.5 8,4.4 7.7,4.2 7.2,4 6.8,4 6.2,4 5.8,4.2 5.5,4.5 5.3,4.6 5.2,4.7 5,4.7 4.6,4.9 4,4.9 3.5,4.9 v 0 H 3.3 v 1 C 3.3,6 3.2,6.1 3.1,6.1 3,6.3 2.9,6.3 2.9,6.4 2.8,6.5 2.8,6.6 2.8,6.8 c 0,0.1 0,0.2 0.1,0.3 0,0.1 0.1,0.2 0.2,0.2 0.1,0.1 0.2,0.2 0.2,0.2 v 3 c 0,0.1 -0.1,0.2 -0.2,0.2 -0.1,0.2 -0.2,0.2 -0.2,0.3 -0.1,0.1 -0.1,0.2 -0.1,0.3 0,0.1 0,0.2 0.1,0.3 0.1,0.1 0.2,0.2 0.2,0.2 0.1,0.1 0.2,0.2 0.2,0.2 v 1 0 0 0 h 5.5 5.5 v 0 0 0 -1 c 0,-0.1 0.1,-0.2 0.2,-0.2 0.1,-0.1 0.2,-0.1 0.2,-0.2 0.1,-0.1 0.1,-0.2 0.1,-0.3 0,-0.1 0,-0.2 -0.1,-0.3 -0.2,-0.1 -0.3,-0.1 -0.3,-0.2 z"
           id="path4069" />
        <path
           class="st0"
           d="m 48,11.4 c 0,0.1 0,0.1 -0.1,0.2 0,0.1 -0.1,0.1 -0.2,0.2 -0.1,0.1 -0.3,0.2 -0.3,0.5 V 13 h -5.2 v 0 H 37 v -0.7 c 0,-0.2 -0.2,-0.4 -0.3,-0.5 -0.1,-0.1 -0.1,-0.1 -0.2,-0.2 0,-0.1 -0.1,-0.1 -0.1,-0.2 v 0 0 c 0,-0.1 0,-0.1 0.1,-0.2 0,-0.1 0.1,-0.1 0.2,-0.2 0.1,-0.1 0.3,-0.2 0.3,-0.5 v -3 C 37,7.3 36.8,7.1 36.7,7 36.6,6.9 36.6,6.9 36.5,6.8 36.5,6.7 36.4,6.7 36.4,6.6 v 0 0 c 0,-0.1 0,-0.1 0.1,-0.2 0,-0.1 0.1,-0.1 0.2,-0.2 0.3,0.1 0.5,0 0.5,-0.2 V 5.3 c 0,0 0,0 0,0 0.3,0 0.5,0 0.8,0 V 12 h 3.8 c 0.1,0.3 0.3,0.5 0.6,0.5 0.3,0 0.5,-0.2 0.6,-0.5 h 3.8 v 0 -6.8 c 0.2,0 0.5,0 0.8,0 0,0 0,0 0,0 V 6 c 0,0.2 0.2,0.4 0.3,0.5 C 48,6.6 48,6.6 48.1,6.7 48,6.6 48,6.7 48,6.8 v 0 0 c 0,0.1 0,0.1 -0.1,0.2 0,0.1 -0.1,0.1 -0.2,0.2 -0.1,0.1 -0.3,0.2 -0.3,0.5 v 3 c 0,0.2 0.2,0.4 0.3,0.5 0.1,0.1 0.1,0.1 0.2,0.2 0.1,-0.2 0.1,-0.1 0.1,0 z M 38.8,5.1 C 39,5 39.1,4.9 39.3,4.8 c 0.3,-0.2 0.6,-0.4 1.1,-0.4 0.4,0 0.8,0.2 1.1,0.3 0.2,0.1 0.5,0.2 0.7,0.2 v 6 c 0,0 0,0 0,0 -0.3,0 -0.7,0.2 -1.2,0.3 -0.2,0 -0.3,0.1 -0.5,0.1 -0.4,0.1 -0.9,0.1 -1.4,0.1 -0.3,0 -0.6,0 -0.8,0 V 5.2 c 0.2,0 0.4,-0.1 0.5,-0.1 z m 4.4,-0.4 c 0.3,-0.1 0.7,-0.3 1.1,-0.3 0.5,0 0.8,0.2 1.1,0.4 0.2,0.1 0.3,0.2 0.5,0.3 0.1,0.1 0.3,0.1 0.5,0.1 v 6.3 c -0.3,0 -0.5,0 -0.8,0 -0.5,0 -0.9,0 -1.4,-0.1 -0.2,0 -0.3,-0.1 -0.5,-0.1 -0.5,-0.1 -0.9,-0.3 -1.2,-0.3 0,0 0,0 0,0 V 5 c 0.2,-0.1 0.4,-0.2 0.7,-0.3 z m 4.8,6.1 c -0.1,-0.1 -0.2,-0.2 -0.2,-0.2 v -3 C 47.8,7.5 47.9,7.4 48,7.4 48.1,7.3 48.2,7.3 48.2,7.2 48.3,7.1 48.3,7 48.3,6.9 48.3,6.8 48.3,6.7 48.2,6.6 48.1,6.5 48,6.4 48,6.4 47.9,6.1 47.8,6 47.8,6 V 5 H 47.6 V 5 C 47.1,5 46.5,5 46.1,4.8 46,4.7 45.8,4.6 45.7,4.6 45.3,4.3 44.9,4 44.3,4 43.8,4 43.4,4.2 43,4.3 42.7,4.4 42.5,4.5 42.3,4.5 v 0 0 0 0 0 C 42.1,4.5 41.9,4.4 41.6,4.3 41.3,4.2 40.9,4 40.4,4 c -0.6,0 -1,0.2 -1.3,0.5 -0.1,0.1 -0.3,0.2 -0.4,0.2 -0.4,0.2 -1,0.2 -1.5,0.2 v 0 H 37 v 1 c 0,0.1 -0.1,0.2 -0.2,0.2 -0.1,0.1 -0.2,0.1 -0.2,0.2 -0.1,0.1 -0.1,0.2 -0.1,0.3 0,0.1 0,0.2 0.1,0.3 0.1,0.1 0.2,0.2 0.2,0.2 0.1,0.1 0.2,0.2 0.2,0.2 v 3 c 0,0.1 -0.1,0.2 -0.2,0.2 -0.1,0.1 -0.2,0.1 -0.2,0.2 -0.1,0.1 -0.1,0.2 -0.1,0.3 0,0.1 0,0.2 0.1,0.3 0.1,0.1 0.2,0.2 0.2,0.2 0.1,0.1 0.2,0.2 0.2,0.2 v 1 0 0 0 h 5.5 5.5 v 0 0 0 -1 c 0,-0.1 0.1,-0.2 0.2,-0.2 0.1,-0.1 0.2,-0.1 0.2,-0.2 0.1,-0.1 0.1,-0.2 0.1,-0.3 0,-0.1 0,-0.2 -0.1,-0.3 -0.2,0.2 -0.3,0.2 -0.4,0.1 z"
           id="path4071" />
        <path
           class="st0"
           d="M 46.7,37.7 25.5,17.3 4.4,37.7 c -1.6,-3.5 -2.7,-7.5 -2.7,-12 0,-0.1 0,-4.3 0,-9.1 h 47.8 c 0,4.8 0,8.9 0,9.1 0,4.5 -1.1,8.5 -2.8,12 z M 40,39.8 c -1.6,1.6 -4.3,1.6 -6,0 -1.6,-1.6 -1.6,-4.3 0,-6 1.6,-1.6 4.3,-1.6 6,0 1.6,1.7 1.6,4.4 0,6 z M 21.3,26.4 c 0,-2.3 1.9,-4.2 4.2,-4.2 2.3,0 4.2,1.9 4.2,4.2 0,2.3 -1.9,4.2 -4.2,4.2 -2.3,0 -4.2,-1.9 -4.2,-4.2 z m 17.4,22 C 33,53.7 27.1,56.3 25.5,56.7 23.9,56.3 18,53.6 12.3,48.4 12.2,48.3 12,48.1 11.9,48 L 25.5,33.6 39.1,48 c -0.1,0.1 -0.3,0.2 -0.4,0.4 z M 11.1,39.8 c -1.6,-1.6 -1.6,-4.3 0,-6 1.6,-1.6 4.3,-1.6 6,0 1.6,1.6 1.6,4.3 0,6 -1.7,1.7 -4.3,1.7 -6,0 z M 49.4,1.9 c 0,1.6 0,8.2 0,14.1 H 1.7 c 0,-5.9 0,-12.5 0,-14.1 H 49.4 Z M 50.1,1.2 H 1 c 0,0 0,24.2 0,24.5 0,10.7 5.9,18.5 11,23.2 5.5,5.1 11.6,8.1 13.6,8.5 v 0 0 c 1.9,-0.4 8.1,-3.4 13.6,-8.5 5,-4.7 11,-12.5 11,-23.2 C 50.1,25.4 50.1,1.2 50.1,1.2 Z"
           id="path4073" />
      </g>
    </g>
  </g>
  <style
     type="text/css"
     id="style1176">
	.st0{fill:#1D2758;}
	.st1{clip-path:url(#SVGID_2_);fill:#FFFFFF;}
	.st2{fill:#991B1E;}
</style>
  <style
     type="text/css"
     id="style1518">
	.st0{fill:#1D2758;}
	.st1{clip-path:url(#SVGID_2_);fill:#FFFFFF;}
	.st2{fill:#991B1E;}
</style>
</svg>
