<svg xmlns="http://www.w3.org/2000/svg" viewBox="0 0 1175.19 252.99"><defs><style>.cls-1{fill:#fff;}.cls-2{fill:#900;}.cls-3{fill:#011f5b;}</style></defs><g id="Layer_2" data-name="Layer 2"><g id="Layer_1-2" data-name="Layer 1"><path class="cls-1" d="M282.79,139.75h2v16h-2c-.72-2.81-1.58-4.58-2.59-5.29s-3.23-1.07-6.64-1.07H257.18V173a4.57,4.57,0,0,0,1.1,3.49,5.54,5.54,0,0,0,3.74,1h11.54a36,36,0,0,0,8.55-.67,8.39,8.39,0,0,0,4-2.51,24,24,0,0,0,3.49-5.94h2l-3,12.33H241v-1.89q4.44,0,6-2.29t1.53-8.08V127.21q0-6-1.58-8.29T241,116.67v-1.91h47.56v11h-1.24c-.67-3.15-1.64-5.25-2.9-6.28s-4-1.54-8.19-1.54h-19v28.25h18.41c2.51,0,4.22-.45,5.15-1.35s1.59-2.61,2-5.12Z"/><path class="cls-1" d="M310.45,138.84V147q7.2-8.16,14.75-8.16a13.17,13.17,0,0,1,9.85,4q3.94,4,3.94,10.62v18.43q0,4.23,1.41,5.58c.93.9,2.77,1.36,5.51,1.36v1.91H324.13v-1.9c2.67,0,4.51-.35,5.54-1.05s1.5-2,1.5-4V152.43a9.21,9.21,0,0,0-2.57-6.83,8.87,8.87,0,0,0-6.55-2.53q-5.74,0-11.6,8v20q0,5.09,1.31,6.46c.88.92,2.71,1.39,5.5,1.39v1.91h-21.5v-2q4.68,0,5.74-1.5c.71-1,1.06-3.12,1.07-6.35V148q0-3.66-1.29-4.82c-.87-.78-2.7-1.16-5.52-1.16V140.1l12.72-1.26Z"/><path class="cls-1" d="M359.17,155.06q0,6.63,2.76,10.69a8.72,8.72,0,0,0,14.72.09c1.81-2.64,2.73-6.23,2.73-10.77A16.91,16.91,0,0,0,376.59,145a8.53,8.53,0,0,0-7.23-3.88A8.72,8.72,0,0,0,362,145q-2.81,3.85-2.81,10.11Zm29.48,47.16q0-4-5-6.22t-19-4.64q-11.88,3.21-11.88,9.68,0,4.4,5.86,7.35t14.63,3q6.81,0,11.09-2.53c2.85-1.69,4.28-3.88,4.28-6.59Zm-8.79-62.93H393v4.62H382.13a18.36,18.36,0,0,1,4.62,11.93,15.55,15.55,0,0,1-4.48,11A15.34,15.34,0,0,1,371.55,172a18.9,18.9,0,0,0-8.86,2.86c-3,1.76-4.42,3.34-4.42,4.72a3.59,3.59,0,0,0,2.38,3.29q2.33,1.13,11,2.64A88.14,88.14,0,0,1,385,188.62a13.25,13.25,0,0,1,5.85,4,9.23,9.23,0,0,1,2.11,5.95q0,7.22-7.29,12.17t-17.82,5q-8.94,0-14.49-3.46t-5.54-9a9.27,9.27,0,0,1,3.18-6.9q3.18-3,10-5.88v-.23a15.21,15.21,0,0,1-6.53-3,5.85,5.85,0,0,1-2.36-4.53q0-6.76,12.61-11.2v-.23a17.94,17.94,0,0,1-9.48-5.65,14.74,14.74,0,0,1-3.35-9.77,16.41,16.41,0,0,1,4.92-12.21,17,17,0,0,1,12.36-4.89c1,0,2.78.07,5.41.22s4.38.22,5.28.22Z"/><path class="cls-1" d="M408.9,117.74a4.9,4.9,0,0,1,5,4.85v.1a5,5,0,0,1-1.46,3.58,4.74,4.74,0,0,1-3.49,1.49,5,5,0,0,1-3.6-1.49,4.81,4.81,0,0,1-1.52-3.58,4.62,4.62,0,0,1,1.49-3.51,5,5,0,0,1,3.63-1.44Zm1.8,21.11h2v34.38c0,2.25.49,3.76,1.46,4.51s2.76,1.13,5.35,1.13v1.91H397.13v-1.94q4.9,0,6.31-1.11c.94-.73,1.41-2.25,1.41-4.54V148.1c0-2.49-.44-4.13-1.3-4.92s-3-1.18-6.42-1.18v-1.91l13.57-1.25Z"/><path class="cls-1" d="M436.56,138.84V147q7.15-8.16,14.75-8.16a13.17,13.17,0,0,1,9.85,4q3.94,4,3.94,10.62v18.43q0,4.23,1.41,5.58c.93.9,2.77,1.36,5.51,1.36v1.91H450.24v-1.9q4,0,5.54-1.05c1-.69,1.5-2,1.5-4V152.43a9.21,9.21,0,0,0-2.57-6.83,8.87,8.87,0,0,0-6.55-2.53q-5.75,0-11.6,8v20q0,5.09,1.31,6.46c.88.92,2.71,1.39,5.51,1.39v1.91H421.87v-2q4.68,0,5.74-1.5c.72-1,1.07-3.12,1.07-6.35V148q0-3.66-1.29-4.82c-.87-.78-2.7-1.16-5.52-1.16V140.1l12.72-1.26Z"/><path class="cls-1" d="M484.72,153.93H507v-.79a11.89,11.89,0,0,0-3.12-8.67,10.51,10.51,0,0,0-7.8-3.21,10.14,10.14,0,0,0-8,3.38q-3,3.38-3.35,9.29Zm30.67,16.38v3a24.39,24.39,0,0,1-7.57,6.76,19.67,19.67,0,0,1-9.26,2q-9.57,0-15.79-6a20.24,20.24,0,0,1-6.21-15.23,22,22,0,0,1,5.93-15.64A19.12,19.12,0,0,1,497,138.84a17.88,17.88,0,0,1,12.39,4.78,14.94,14.94,0,0,1,5.29,11.43v.84h-30v.56a30.76,30.76,0,0,0,2,11.74,17.48,17.48,0,0,0,6,7.79A13.92,13.92,0,0,0,501,178.8a13.38,13.38,0,0,0,6.84-1.66q2.85-1.66,7.57-6.84Z"/><path class="cls-1" d="M530.34,153.93h22.23v-.79a11.86,11.86,0,0,0-3.13-8.67,10.48,10.48,0,0,0-7.79-3.21,10.21,10.21,0,0,0-8,3.38q-3,3.38-3.34,9.29ZM561,170.31v3a24.5,24.5,0,0,1-7.57,6.76,19.67,19.67,0,0,1-9.26,2q-9.57,0-15.79-6a20.24,20.24,0,0,1-6.21-15.23,22,22,0,0,1,5.93-15.64,19.17,19.17,0,0,1,14.54-6.36A17.88,17.88,0,0,1,555,143.62a14.94,14.94,0,0,1,5.29,11.43v.84h-30v.56a30.53,30.53,0,0,0,2,11.74,17.55,17.55,0,0,0,6,7.79,13.91,13.91,0,0,0,8.32,2.86,13.38,13.38,0,0,0,6.84-1.66q2.85-1.67,7.57-6.84Z"/><path class="cls-1" d="M580.65,138.84v8.83a81.73,81.73,0,0,1,8.76-6.87,10.38,10.38,0,0,1,5.2-2A11.2,11.2,0,0,1,602.1,142l-3.1,7.26q-6.53-3.61-9.68-3.61-3.48,0-8.67,5V173.1c0,2.26.47,3.78,1.41,4.57s2.74,1.19,5.41,1.19v1.91H565.94v-1.93c2.85,0,4.72-.46,5.6-1.36s1.32-3.07,1.32-6.49v-22.3c0-2.83-.48-4.65-1.43-5.48s-3.3-1.24-7-1.24v-1.91l14.28-1.22Z"/><path class="cls-1" d="M617.86,117.74a4.92,4.92,0,0,1,5,4.84v.11a4.92,4.92,0,0,1-1.47,3.58,4.74,4.74,0,0,1-3.49,1.49,5,5,0,0,1-3.6-1.49,4.89,4.89,0,0,1-1.52-3.58,4.71,4.71,0,0,1,1.49-3.51,5,5,0,0,1,3.63-1.44Zm1.79,21.1h2v34.38c0,2.25.49,3.76,1.47,4.51s2.76,1.13,5.34,1.13v1.91H606.1v-1.93q4.89,0,6.3-1.11c.94-.73,1.41-2.25,1.41-4.54V148.1q0-3.73-1.3-4.92c-.87-.79-3-1.19-6.41-1.18v-1.91Z"/><path class="cls-1" d="M645.53,138.84V147q7.13-8.16,14.74-8.16a13.17,13.17,0,0,1,9.85,4q3.95,4,3.94,10.62v18.43q0,4.23,1.41,5.58c.94.9,2.78,1.36,5.52,1.36v1.91H659.2v-1.9c2.71,0,4.55-.35,5.55-1.05s1.49-2,1.49-4V152.43a9.18,9.18,0,0,0-2.56-6.83,9,9,0,0,0-6.56-2.53q-5.75,0-11.59,8v20c0,3.39.43,5.54,1.31,6.46s2.7,1.39,5.5,1.39v1.91h-21.5v-2q4.67,0,5.74-1.5t1.07-6.35V148c0-2.44-.44-4-1.3-4.82s-2.7-1.16-5.51-1.16V140.1l12.72-1.26Z"/><path class="cls-1" d="M694.24,155.06q0,6.63,2.76,10.69a8.75,8.75,0,0,0,14.72.08q2.73-4,2.73-10.77a16.85,16.85,0,0,0-2.8-10.08,8.5,8.5,0,0,0-7.23-3.88,8.71,8.71,0,0,0-7.37,3.85q-2.82,3.86-2.82,10.11Zm29.41,47.16q0-4-5-6.22t-19-4.64q-11.88,3.21-11.87,9.68,0,4.4,5.85,7.35t14.63,3q6.81,0,11.09-2.53c2.85-1.69,4.28-3.88,4.28-6.59Zm-8.78-62.93H728v4.62h-10.8a18.38,18.38,0,0,1,4.64,11.93,15.6,15.6,0,0,1-4.47,11,15.39,15.39,0,0,1-10.7,5,19,19,0,0,0-8.87,2.86c-3,1.76-4.42,3.34-4.42,4.72a3.59,3.59,0,0,0,2.29,3.37q2.34,1.13,11,2.64A88.14,88.14,0,0,1,720,188.62a13.25,13.25,0,0,1,5.85,4,9.22,9.22,0,0,1,2.11,5.95q0,7.22-7.29,12.17t-17.81,5q-9,0-14.5-3.46t-5.54-9a9.27,9.27,0,0,1,3.18-6.9q3.18-3,10-5.88v-.23a15.21,15.21,0,0,1-6.53-3,5.86,5.86,0,0,1-2.37-4.53q0-6.76,12.61-11.2v-.23a17.94,17.94,0,0,1-9.48-5.65,14.84,14.84,0,0,1-3.35-9.77,16.41,16.41,0,0,1,4.92-12.21,17,17,0,0,1,12.4-4.89c1,0,2.77.07,5.4.22s4.39.22,5.29.22Z"/><path class="cls-1" d="M246.85,234.44c0,4.89,1.33,8.63,6.53,8.63,4.79,0,7.31-3.21,7.31-8.8v-9.72a11.9,11.9,0,0,0-.22-1.88c-.17-1.25-1.35-1.75-3-1.91v-.92h8.24v.91c-1.67.16-2.83.66-3,1.91a13.17,13.17,0,0,0-.2,1.88v9.85c0,7.52-4.79,10.31-9.3,10.31-7.44,0-9.74-3.77-9.74-10.1V224.2c0-3.25.14-3.07-3-3.45v-.91h9.4v.91c-3.15.38-3,.2-3,3.45v10.24Z"/><path class="cls-1" d="M285.49,244.29c-4.29-5.07-8.73-10.38-13.13-15.55v11.91a10.06,10.06,0,0,0,.17,1.45c.13,1,1.05,1.36,2.83,1.49v.7h-6.6v-.7c1.29-.13,2.18-.51,2.32-1.49a11.68,11.68,0,0,0,.15-1.45V228a3.75,3.75,0,0,0-3.12-1.83v-.7H273c4,4.88,8.19,9.84,12.21,14.71h.06V229.07a10.19,10.19,0,0,0-.16-1.46c-.14-1-1.06-1.35-2.83-1.48v-.7h6.6v.7c-1.27.13-2.19.51-2.32,1.48a10.19,10.19,0,0,0-.16,1.46v15.22Z"/><path class="cls-1" d="M298.8,240.93c0,2.5-.12,2.36,2.31,2.66v.7h-7.25v-.7c2.43-.3,2.32-.16,2.32-2.66V228.84c0-2.5.11-2.37-2.32-2.66v-.7h7.25v.7c-2.43.29-2.31.16-2.31,2.66v12.09Z"/><path class="cls-1" d="M312.85,226.13c-1.47,0-2.56.43-1.67,3,1.06,3.18,2.62,7.82,4,11.92,1.73-4.13,3.37-8.27,5-12.4.68-1.7,0-2.53-1.86-2.53v-.7h5.82v.7a2.26,2.26,0,0,0-2.24,1.62c-2.26,5.52-4.55,11-6.81,16.54h-1.38c-1.64-4.66-3.48-9.86-5.12-14.44-1-2.89-1.83-3.72-3.12-3.72v-.7h7.32v.7Z"/><path class="cls-1" d="M328.35,243.59c2.43-.3,2.32-.16,2.32-2.66V228.84c0-2.5.11-2.37-2.32-2.66v-.7h12v4.34h-.7c-.27-2-.81-3.48-2.75-3.48h-3.66V234h2.26c1.7,0,2.42-.67,2.48-2.34h.7v5.74H338c-.06-1.59-.67-2.52-2.48-2.52h-2.26V241c0,2.29,1,2.48,3.47,2.48,3.92,0,3.72-1.11,5-4h.7l-.8,4.85H328.35v-.74Z"/><path class="cls-1" d="M352,235.07h2.23c2.35,0,3.42-1.77,3.42-4.82s-1.61-4-3.58-4H352v8.82Zm-4.93-9.64h7.83c2.73,0,5.45,1.43,5.45,4.58a5.72,5.72,0,0,1-3.77,5.49l2.64,4a17.88,17.88,0,0,0,3.8,4.42v.35h-2.78c-1.58,0-2.45-2.93-5.71-8.35H352v5c0,2.5-.12,2.36,2.31,2.66v.7h-7.24v-.7c2.42-.3,2.32-.16,2.32-2.66V228.84c0-2.5.1-2.37-2.32-2.66v-.75Z"/><path class="cls-1" d="M376.65,229.45c-.22-1.89-1.23-3.4-3.39-3.4a2.67,2.67,0,0,0-3,2.31,2.72,2.72,0,0,0,0,.49c0,1.89,1.89,3,4.58,5,2.85,2.13,3.78,3.5,3.78,5.74,0,3.21-3.29,5-6.52,5a12.33,12.33,0,0,1-4.61-.86c-.12,0-.19-.16-.19-.37v-3.89h.7c.3,3,2.26,4.19,4.34,4.19a3.41,3.41,0,0,0,3.47-3.35v-.08c0-1.75-.94-3.18-5-5.85-1.46-1-3.27-2-3.27-4.95,0-2.43,2.7-4.34,5.8-4.34a12.62,12.62,0,0,1,3.77.51.25.25,0,0,1,.19.28v3.55Z"/><path class="cls-1" d="M389.17,240.93c0,2.5-.11,2.36,2.31,2.66v.7h-7.25v-.7c2.42-.3,2.32-.16,2.32-2.66V228.84c0-2.5.1-2.37-2.32-2.66v-.7h7.25v.7c-2.42.29-2.31.16-2.31,2.66v12.09Z"/><path class="cls-1" d="M405.26,240.93c0,2.5-.11,2.36,2.31,2.66v.7h-7.25v-.7c2.43-.3,2.33-.16,2.33-2.66V226.29h-2.43c-2.35,0-2.88,1.47-3.77,3.25h-.68l.73-4.11h14.91l.72,4.11h-.68c-.88-1.78-1.42-3.25-3.76-3.25h-2.43v14.64Z"/><path class="cls-1" d="M419.94,243.59c2.44-.3,2.32-.16,2.32-2.66v-4.16l-4.14-8.22c-.89-1.75-1.65-2.42-2.9-2.42v-.7h6.89v.7c-2,0-1.87,1-1.19,2.42l3.27,6.77,3.71-6.77c.92-1.64.05-2.42-1.54-2.42v-.7h5.56v.7c-.76,0-1.49.35-2.21,1.63l-4.51,8.18a4.57,4.57,0,0,0-.31,2v3c0,2.5-.11,2.36,2.31,2.66v.7h-7.26v-.7Z"/><path class="cls-1" d="M457.92,231c0-3.64-2.2-3.78-2.76-3.78-3.77,0-6.25,6.79-6.25,11.33,0,1.81.31,5.09,2.89,5.09C455.8,243.66,457.92,237.1,457.92,231Zm-12.27,6.82c0-4.57,4-11.43,9.78-11.43,4.64,0,5.66,3.15,5.66,6.3,0,3.84-3.07,12-9.74,12-4.48,0-5.7-3.6-5.7-6.88Z"/><path class="cls-1" d="M477.39,227.56l-.84.74H472c-1.71,8.31-4.5,19.39-6.5,24.69H463.9l5-24.69h-3.32l.31-1.47h3.29c1.84-7.44,8-8.21,9.46-8.21a6.09,6.09,0,0,1,3,.62l-.43,2.31-.87.42a3.65,3.65,0,0,0-3.06-2c-2.12,0-3.67,1.42-4.52,5.2l-.38,1.68h5.13l-.13.73Z"/><path class="cls-1" d="M498.37,239.93c0,3.24-.14,3.07,3,3.45v.91H492v-.91c3.15-.38,3-.21,3-3.45V224.21c0-3.25.15-3.07-3-3.45v-.92h9.14c5.81,0,8.67,2.3,8.67,6.49,0,5-4.54,7.75-9.88,7.43v-.69c4.36.07,6.38-2.55,6.38-6.39S504.41,221,500.5,221h-2.13v19Z"/><path class="cls-1" d="M514.65,243.59c2.42-.3,2.32-.16,2.32-2.66V228.84c0-2.5.1-2.37-2.32-2.66v-.7h12v4.34H526c-.27-2-.82-3.48-2.76-3.48h-3.66V234h2.27c1.69,0,2.42-.67,2.47-2.34h.7v5.74h-.7c0-1.59-.68-2.52-2.47-2.52h-2.27V241c0,2.29,1.05,2.48,3.47,2.48,3.9,0,3.72-1.11,5-4h.7l-.82,4.85H514.65v-.74Z"/><path class="cls-1" d="M549.65,244.29c-4.28-5.07-8.73-10.38-13.12-15.55v11.91a10.05,10.05,0,0,0,.16,1.45c.14,1,1,1.36,2.83,1.49v.7h-6.6v-.7c1.3-.13,2.18-.51,2.31-1.49a8.83,8.83,0,0,0,.17-1.45V228a3.78,3.78,0,0,0-3.12-1.83v-.7h4.9c4,4.88,8.19,9.84,12.21,14.71h0V229.07a8.94,8.94,0,0,0-.16-1.46c-.14-1-1.05-1.35-2.84-1.48v-.7H553v.7c-1.27.13-2.18.51-2.32,1.48a10.19,10.19,0,0,0-.16,1.46v15.22Z"/><path class="cls-1" d="M574.22,244.29c-4.28-5.07-8.72-10.38-13.12-15.55v11.91a10.05,10.05,0,0,0,.16,1.45c.14,1,1.06,1.36,2.83,1.49v.7h-6.6v-.7c1.29-.13,2.18-.51,2.32-1.49a8.81,8.81,0,0,0,.16-1.45V228a3.74,3.74,0,0,0-3.13-1.83v-.7h4.9c4,4.88,8.2,9.84,12.21,14.71h0V229.07a11.84,11.84,0,0,0-.15-1.46c-.14-1-1.06-1.35-2.84-1.48v-.7h6.64v.7c-1.26.13-2.18.51-2.32,1.48a10.2,10.2,0,0,0-.17,1.46v15.22Z"/><path class="cls-1" d="M591.77,229.45c-.21-1.89-1.24-3.4-3.4-3.4a2.67,2.67,0,0,0-3,2.31,2.72,2.72,0,0,0,0,.49c0,1.89,1.89,3,4.58,5,2.86,2.13,3.77,3.5,3.77,5.74,0,3.21-3.28,5-6.52,5a12.53,12.53,0,0,1-4.61-.86.37.37,0,0,1-.18-.37v-3.89h.69c.3,3,2.27,4.19,4.35,4.19a3.41,3.41,0,0,0,3.47-3.35v-.08c0-1.75-.94-3.18-5-5.85-1.44-1-3.26-2-3.26-4.95,0-2.43,2.7-4.34,5.81-4.34a12.59,12.59,0,0,1,3.76.51.25.25,0,0,1,.19.28v3.55Z"/><path class="cls-1" d="M602.65,243.59c2.43-.3,2.31-.16,2.31-2.66v-4.16l-4.14-8.22c-.89-1.75-1.65-2.42-2.88-2.42v-.7h6.86v.7c-2,0-1.84,1-1.18,2.42l3.27,6.77,3.71-6.77c.92-1.64.06-2.42-1.53-2.42v-.7h5.58v.7c-.75,0-1.49.35-2.21,1.63l-4.5,8.18a4.56,4.56,0,0,0-.33,2v3c0,2.5-.11,2.36,2.32,2.66v.7h-7.28v-.7Z"/><path class="cls-1" d="M619.25,243.59c2.42-.3,2.32-.16,2.32-2.66V228.84c0-2.5.1-2.37-2.32-2.66v-.7h7.25v.7c-2.43.29-2.32.16-2.32,2.66v12.57c0,1.88,1.05,2.07,3.45,2.07,3.91,0,3.75-1.11,5-4h.67l-.8,4.85H619.25v-.74Z"/><path class="cls-1" d="M641.15,226.13c-1.48,0-2.56.43-1.67,3,1.06,3.18,2.62,7.82,4,11.92,1.72-4.13,3.35-8.27,5-12.4.67-1.7,0-2.53-1.86-2.53v-.7h5.81v.7a2.27,2.27,0,0,0-2.23,1.62c-2.26,5.52-4.54,11-6.82,16.54H642c-1.63-4.66-3.48-9.86-5.12-14.44-1-2.89-1.83-3.72-3.12-3.72v-.7h7.32v.7Z"/><path class="cls-1" d="M664,237l-2.87-8.76H661L657.82,237Zm-6.53,1-1.25,3.61a1.35,1.35,0,0,0,1.35,1.94v.7h-4.88v-.7a2.23,2.23,0,0,0,2-1.35c1.16-2.37,4.31-11.18,6.55-17.13h1.5c1.83,5.41,4.58,13.71,5.49,16.11.6,1.51,1,2.37,2.18,2.37v.7h-6.27v-.7c1.7,0,1.86-.89,1.42-2.07L664.31,238Z"/><path class="cls-1" d="M690.65,244.29c-4.3-5.07-8.74-10.38-13.14-15.55v11.91a10.06,10.06,0,0,0,.17,1.45c.13,1,1,1.36,2.83,1.49v.7H673.9v-.7c1.3-.13,2.19-.51,2.32-1.49a8.8,8.8,0,0,0,.15-1.45V228a3.71,3.71,0,0,0-3.11-1.83v-.7h4.9c4,4.88,8.19,9.84,12.21,14.71h0V229.07a8.94,8.94,0,0,0-.16-1.46c-.13-1-1.05-1.35-2.83-1.48v-.7H694v.7c-1.27.13-2.18.51-2.32,1.48a10.2,10.2,0,0,0-.17,1.46v15.22Z"/><path class="cls-1" d="M703.36,240.93c0,2.5-.11,2.36,2.32,2.66v.7h-7.26v-.7c2.43-.3,2.32-.16,2.32-2.66V228.84c0-2.5.11-2.37-2.32-2.66v-.7h7.23v.7c-2.43.29-2.32.16-2.32,2.66V241Z"/><path class="cls-1" d="M721.15,237l-2.86-8.76h0L715.08,237Zm-6.52,1-1.25,3.61a1.35,1.35,0,0,0,.61,1.81,1.38,1.38,0,0,0,.75.13v.7h-4.91v-.7a2.21,2.21,0,0,0,1.94-1.35c1.15-2.37,4.31-11.18,6.56-17.13h1.5c1.83,5.41,4.58,13.71,5.5,16.11.59,1.51,1,2.37,2.18,2.37v.7h-6.28v-.7c1.7,0,1.86-.89,1.42-2.07L721.49,238Z"/><polygon class="cls-1" points="677.26 199.15 400.61 199.15 400.61 196.13 677.26 196.13 677.26 199.15 677.26 199.15"/><polygon class="cls-1" points="343.13 199.15 240.97 199.15 240.97 196.13 343.13 196.13 343.13 199.15 343.13 199.15"/><path class="cls-1" d="M218.09,0H0V108.72c-.14,47.32,26.08,81.6,48.11,102C72.33,233.18,99,246.13,108,248.07l1.09.24,1.09-.24c8.91-1.94,35.62-14.89,59.85-37.35,22-20.42,48.25-54.7,48.1-102Z"/><path class="cls-2" d="M204.65,45.52h0a3.94,3.94,0,0,1,.88.85,2.33,2.33,0,0,1,0,2.51,3.94,3.94,0,0,1-.88.85c-.49.39-1,.75-1,1.39V55H158V51.12c0-.64-.47-1-1-1.39a4.43,4.43,0,0,1-.88-.85,2.37,2.37,0,0,1,0-2.51,4,4,0,0,1,.89-.85c.49-.39,1-.75,1-1.39V31.49c0-.63-.47-1-1-1.39a3.94,3.94,0,0,1-.88-.85,2.35,2.35,0,0,1,0-2.5,4,4,0,0,1,.89-.86c.49-.38,1-.75,1-1.38v-4h.58c2.67,0,5-.06,6.65-.76a14.73,14.73,0,0,0,1.94-1.08,9.44,9.44,0,0,1,5.34-1.83,14.29,14.29,0,0,1,5.25,1.34,9.1,9.1,0,0,0,2.93.87H181a9.41,9.41,0,0,0,2.94-.87,14,14,0,0,1,5.24-1.34,9.51,9.51,0,0,1,5.36,1.88,14.73,14.73,0,0,0,1.94,1.08c1.63.7,4,.76,6.65.76h.58v4c0,.63.47,1,1,1.38a3.78,3.78,0,0,1,.88.86,2.31,2.31,0,0,1,0,2.5,3.56,3.56,0,0,1-.88.85c-.49.39-1,.76-1,1.39V44.13c0,.64.47,1,1,1.39Zm-56,6.61c-3.54,5.65-10.36,7-10.64,7.09a23.6,23.6,0,0,1-4.11.36h0c-7.13,0-13.72-3.1-20.4-6.56-.75-.39-1.59-.84-2.49-1.34-4.26-2.33-10.21-5.59-15.25-5.59a8.71,8.71,0,0,0-4.1.93l-.21.11v.23a6.22,6.22,0,0,1-.38,1.86c-.8,2.15-3.43,4.43-4.71,5.34-2.93,2.11-6.53,4.27-11,4.27a5.61,5.61,0,0,1-1.86-.29,4.23,4.23,0,0,1-2-1.41,5,5,0,0,1-.62-1.07,3.88,3.88,0,0,1-.26-1V54.8l-.25-.08c-1.74-.52-2.78-1.66-2.78-3A4.85,4.85,0,0,1,69,48.84c1.16-1.38,2.17-2.56.53-4.11a5,5,0,0,0-.5-.41,4.42,4.42,0,0,1-.67-.56c-1.44-1.54-.59-4.74-.08-6.65V36.9a34.1,34.1,0,0,1,2.59-6.61c1.6-3.2,3.54-6.8,6.26-9.07a.25.25,0,0,1,.2-.06.25.25,0,0,1,.17.11c0,.08.35.54.78,1.25l.46.77.28-.85a6.43,6.43,0,0,1,3.71-4.35A4.77,4.77,0,0,1,87.1,19l.36.26.23-.38a4,4,0,0,1,3.24-2A5.65,5.65,0,0,1,95,18.8l.27.27.36-.23c.83-.69,3-2.27,5.15-2a3.89,3.89,0,0,1,3.08,2.83l.14.45.43-.21a4.68,4.68,0,0,1,4.61,0,2.87,2.87,0,0,1,1.19,2.85v.53l.53-.09c1.32-.22,3.77-.37,5.22,1.11a4.41,4.41,0,0,1,1.08,3.74l-.07.52.53-.06a3.54,3.54,0,0,1,3.57,1.28,3.7,3.7,0,0,1,.17,2.81l-.12.41.42.1a3.08,3.08,0,0,1,2.22,1.56,5.93,5.93,0,0,1-.23,3.31l-.11.36.34.14a4.4,4.4,0,0,1,2.25,2,5,5,0,0,1-.08,4.15l-.1.27.22.19a51.87,51.87,0,0,0,4.55,3.67c3,2.22,7.79,3.39,11,.74A4.56,4.56,0,0,0,143,45a3.66,3.66,0,0,0-2.76-2.88c-2.43-.54-4.36,1.78-5.93,4.11a.24.24,0,0,1-.23.11.25.25,0,0,1-.21-.15c-1.44-3.45-1.51-6.32-.21-8.51A8.1,8.1,0,0,1,139.49,34l.35-.06v-.35c0-4.09.93-7.07,2.91-8.86,1.2-1.09,3.41-2.28,7.11-1.78a.26.26,0,0,1,.18.12.28.28,0,0,1,0,.22c-2.72,6.55-2,9-.57,14.38l.4,1.49h0c1.37,5.1.95,9.46-1.24,13ZM61.09,45.52h0a3.94,3.94,0,0,1,.88.85,2.33,2.33,0,0,1,0,2.51,3.94,3.94,0,0,1-.88.85c-.5.39-1,.75-1,1.39V55H14.39V51.12c0-.64-.46-1-1-1.39a4,4,0,0,1-.84-.89,2.37,2.37,0,0,1,0-2.51,3.94,3.94,0,0,1,.88-.85c.5-.39,1-.75,1-1.39V31.49c0-.63-.46-1-1-1.39a3.56,3.56,0,0,1-.88-.85,2.35,2.35,0,0,1,0-2.5,4,4,0,0,1,.88-.86c.5-.38,1-.75,1-1.38v-4H15c2.67,0,5-.06,6.65-.76a14,14,0,0,0,1.93-1.08,9.56,9.56,0,0,1,5.33-1.83,14.19,14.19,0,0,1,5.24,1.34,9.23,9.23,0,0,0,2.94.87h.3a9.15,9.15,0,0,0,2.94-.87,14.24,14.24,0,0,1,5.24-1.34A9.49,9.49,0,0,1,51,18.72a14,14,0,0,0,1.93,1.08c1.64.7,4,.76,6.66.76h.58v4c0,.63.46,1,1,1.38a4,4,0,0,1,.88.86,2.31,2.31,0,0,1,0,2.5,3.56,3.56,0,0,1-.88.85c-.5.39-1,.76-1,1.39V44.13c0,.64.46,1,1,1.39ZM5.51,5.74s.29,63.18,0,62.88H212.65V5.74Z"/><path class="cls-3" d="M76.86,42.84a3.07,3.07,0,0,1,2.09.75,5.41,5.41,0,0,1,.62.55,1.09,1.09,0,0,1,0,1.54l-.1.09c-.52.42-1.1.83-1.47,1.08-.84.58-2.29,1.64-3.29.81-.51-.43.5-1.11.06-2.85-.35-1.36,1-2,2-2Z"/><path class="cls-3" d="M77.19,22.41c-2.3,2.18-4,5.4-5.48,8.28a33,33,0,0,0-2.51,6.44l-.06.21c-.39,1.5-1.22,4.63-.13,5.8a3.38,3.38,0,0,0,.55.45c.19.15.39.3.58.48,2.26,2.14.69,4-.46,5.35a4.28,4.28,0,0,0-1.3,2.26c0,1.58,1.92,2.14,2.51,2.28a.65.65,0,0,1,.51.59,3.54,3.54,0,0,0,.25,1.16,4.18,4.18,0,0,0,.5.87,3.39,3.39,0,0,0,1.58,1.11,4.88,4.88,0,0,0,1.56.23c4.23,0,7.68-2.07,10.5-4.09,1.68-1.2,3.79-3.33,4.38-4.93a5.36,5.36,0,0,0,.31-1.36l-3-.5h-.07a.76.76,0,0,1-.57-.62c-.09-.59.43-1,1.48-1.67l.94-.65C90.81,43,92.08,42,92.79,41.53a24.43,24.43,0,0,1-2.1-2.86A14.27,14.27,0,0,0,89.52,37c-1.47-1.6-4.06-2.53-6.16-1.22A18.73,18.73,0,0,0,81,37.7c-.64.58-1.3,1.13-2,1.65a.66.66,0,0,1-.91-.22.66.66,0,0,1,.07-.78l.33-.31c1-.91,3.21-3,3.21-4.52,0-3.46-3.32-9.16-4.5-11.08ZM95.76,45.16c5.17,0,11,3.21,15.64,5.73.88.48,1.72.94,2.47,1.33,7.85,4.06,15.59,7.58,23.92,6.11.06,0,6.73-1.37,10.05-6.69,2-3.28,2.42-7.4,1.13-12.24-.14-.52-.28-1-.41-1.49-1.38-5-2.16-7.89.28-14.15a7.21,7.21,0,0,0-5.53,1.64c-1.87,1.69-2.75,4.63-2.6,8.75a.66.66,0,0,1-.59.67,7.46,7.46,0,0,0-5.75,3.23c-1,1.7-1.06,3.9-.17,6.56,1.27-1.74,3.42-4.07,6.17-3.47a4.56,4.56,0,0,1,3.44,3.56,5.47,5.47,0,0,1-1.65,5.46c-3.6,3-8.81,1.71-12.13-.71a75.38,75.38,0,0,1-11.86-11c-.71-.8-1.41-1.62-2.1-2.41a59,59,0,0,0-8.42-8.53c-5-3.83-10.81-4.45-14.85-4.31-2.75.11-8.28.88-12,3.13C81.93,28.69,83,31.4,83,33.49a3.58,3.58,0,0,1-.21,1.12c2.69-1.58,5.9-.45,7.71,1.52a15.22,15.22,0,0,1,1.3,1.8,19,19,0,0,0,2.45,3.2.6.6,0,0,1,.2.52.63.63,0,0,1-.27.49s-1.72,1.21-4.13,3c-.32.24-.67.47-1,.68l-.18.12L91,46.3a9.61,9.61,0,0,1,4.73-1.14ZM133.85,60c-7.14,0-13.83-3.11-20.59-6.6-.76-.4-1.6-.86-2.49-1.35-5.45-3-13.63-7.46-19-4.66a6.53,6.53,0,0,1-.4,2c-.84,2.25-3.54,4.6-4.86,5.54-3,2.14-6.65,4.34-11.26,4.34a5.89,5.89,0,0,1-2-.31,4.7,4.7,0,0,1-2.86-2.71,4.15,4.15,0,0,1-.29-1.1C68.19,54.57,67,53.28,67,51.7a5.13,5.13,0,0,1,1.62-3.13c1.29-1.53,1.86-2.32.56-3.55l-.47-.37A4.65,4.65,0,0,1,68,44c-1.59-1.71-.71-5-.18-7l.06-.21a35,35,0,0,1,2.61-6.7c1.62-3.23,3.59-6.87,6.37-9.2a.7.7,0,0,1,.52-.15.69.69,0,0,1,.45.29c.1.15,1.21,1.86,2.37,4.11C85.07,22.28,92,22,92.75,21.92c4.26-.16,10.44.51,15.71,4.58A60.1,60.1,0,0,1,117,35.17c.68.79,1.38,1.61,2.09,2.4a73.45,73.45,0,0,0,11.65,10.85c2.92,2.13,7.46,3.27,10.51.75A4.12,4.12,0,0,0,142.5,45a3.22,3.22,0,0,0-2.44-2.57c-2.2-.48-4,1.72-5.51,3.94a.66.66,0,0,1-.91.19.72.72,0,0,1-.25-.3c-1.49-3.58-1.55-6.57-.18-8.88a8.57,8.57,0,0,1,6.14-3.79c0-4.21,1-7.29,3-9.16,1.27-1.15,3.59-2.41,7.45-1.89a.62.62,0,0,1,.48.91c-2.67,6.42-2,8.83-.56,14.11.13.48.27,1,.41,1.5,1.39,5.21,1,9.68-1.29,13.28-3.63,5.81-10.63,7.23-10.92,7.28a23.45,23.45,0,0,1-4.18.37Z"/><path class="cls-3" d="M72.74,55.44a15,15,0,0,1-1.89-.11A.66.66,0,0,1,71,54a13,13,0,0,0,11.19-4,.66.66,0,0,1,.94.92A14.16,14.16,0,0,1,72.74,55.44Z"/><path class="cls-3" d="M125.54,45.57h-.25a.62.62,0,0,1-.32-.81,4.54,4.54,0,0,0,.28-3.92A3.69,3.69,0,0,0,123,39.1a.6.6,0,0,1-.4-.31.62.62,0,0,1,0-.5A6.42,6.42,0,0,0,123,35c-.28-.78-1.74-1.1-2.23-1.15a.62.62,0,0,1-.55-.67,1.21,1.21,0,0,1,0-.18c.2-.49.62-1.94.12-2.72-1-1.5-3.52-.77-3.55-.76a.62.62,0,0,1-.62-.17.64.64,0,0,1-.14-.62s.74-2.33-.69-3.8c-1.68-1.71-5.28-.7-5.32-.69a.61.61,0,0,1-.61-.17.6.6,0,0,1-.14-.61c0-.08.61-2-.67-2.81-2-1.3-4.39.36-4.42.38a.59.59,0,0,1-.6.06.61.61,0,0,1-.37-.49c0-.1-.34-2.61-2.55-2.9-2.38-.32-4.9,2.13-4.92,2.15a.63.63,0,0,1-.88,0l0-.06s-1.69-2.19-3.8-2.08a3.45,3.45,0,0,0-2.89,2.17.61.61,0,0,1-.45.39.64.64,0,0,1-.56-.16s-2-1.95-4.11-1.19c-2.6,1-3.34,4.14-3.59,5.19h0a.62.62,0,0,1-.74.46.62.62,0,0,1-.46-.74h0c.28-1.2,1.13-4.88,4.36-6.06a5.15,5.15,0,0,1,4.76.94A4.42,4.42,0,0,1,91,16.44a6.08,6.08,0,0,1,4.41,2.06c1-.79,3.17-2.37,5.47-2.06a4.25,4.25,0,0,1,3.41,3.1,5.06,5.06,0,0,1,5,0,3.28,3.28,0,0,1,1.41,3.3c1.39-.24,4-.4,5.58,1.22a4.87,4.87,0,0,1,1.2,4.08,4,4,0,0,1,4,1.47,4,4,0,0,1,.21,3.14,3.36,3.36,0,0,1,2.51,1.82,6.39,6.39,0,0,1-.22,3.57,4.73,4.73,0,0,1,2.46,2.16,5.71,5.71,0,0,1-.25,5,.62.62,0,0,1-.56.37Z"/><path class="cls-3" d="M122.47,54.06h-.08a.6.6,0,0,1-.53-.66v0c.28-2.35-1.1-2.78-2.32-3.16a3.48,3.48,0,0,1-.83-.32c-.65-.37-.67-1.16-.7-2a3.92,3.92,0,0,0-.72-2.61c-1.15-1.28-3.41-.45-3.44-.44a.6.6,0,0,1-.6-.1.62.62,0,0,1-.22-.57s.37-2.51-1.07-3.73c-1.21-1-3.51-.78-4.29-.6a.59.59,0,0,1-.54-.13.59.59,0,0,1-.21-.51,3.85,3.85,0,0,0-1.69-3.63,3.12,3.12,0,0,0-3.16-.23c-2.58,1.4-3.59,1.49-6.3-.43a3,3,0,0,0-2.51-.59,4.55,4.55,0,0,0-2.68,2.6.61.61,0,0,1-1.1-.54h0A5.68,5.68,0,0,1,93,33.14a4.23,4.23,0,0,1,3.52.78c2.28,1.61,2.8,1.54,5,.35a4.36,4.36,0,0,1,4.41.28,5,5,0,0,1,2.25,4,6.17,6.17,0,0,1,4.61,1,5.14,5.14,0,0,1,1.55,3.94,4.09,4.09,0,0,1,3.89,1,5,5,0,0,1,1,3.39,3.74,3.74,0,0,0,.11,1,3.58,3.58,0,0,0,.55.19c1.17.37,3.59,1.12,3.18,4.49a.62.62,0,0,1-.61.54Z"/><path class="cls-3" d="M61.47,47.64a1.25,1.25,0,0,1-.22.75,3.09,3.09,0,0,1-.7.65,2.65,2.65,0,0,0-1.29,2.08v2.81h-44V51.12A2.62,2.62,0,0,0,14,49a3.32,3.32,0,0,1-.7-.65,1.24,1.24,0,0,1-.21-.75h0a1.23,1.23,0,0,1,.21-.74,3.65,3.65,0,0,1,.7-.66,2.59,2.59,0,0,0,1.29-2.07V31.49A2.59,2.59,0,0,0,14,29.42a3.32,3.32,0,0,1-.7-.65,1.24,1.24,0,0,1-.21-.75h0a1.24,1.24,0,0,1,.21-.75,3.32,3.32,0,0,1,.7-.65,2.59,2.59,0,0,0,1.29-2.07v-3h.1c1.14,0,2.25,0,3.31-.09V50.54h16a2.67,2.67,0,0,0,5.17,0h16V21.48c1,.09,2.15.09,3.29.09h.1v2.94a2.59,2.59,0,0,0,1.29,2.07,3.32,3.32,0,0,1,.7.65,1.32,1.32,0,0,1,.22.75h0a1.32,1.32,0,0,1-.22.75,3.32,3.32,0,0,1-.7.65,2.59,2.59,0,0,0-1.29,2.07V44.13A2.59,2.59,0,0,0,60.5,46.2a3.65,3.65,0,0,1,.7.66,1.31,1.31,0,0,1,.22.74h0ZM22,20.73a13.64,13.64,0,0,0,2.08-1.16,8.49,8.49,0,0,1,4.81-1.73,13.56,13.56,0,0,1,4.84,1.27,12.7,12.7,0,0,0,2.8.9V45.43h-.15a27.85,27.85,0,0,0-5,1.3l-2,.62a20.21,20.21,0,0,1-5.85.59,23.4,23.4,0,0,0-3.55.18V21.29A8.7,8.7,0,0,0,22,20.73Zm18.71-1.61a13.37,13.37,0,0,1,4.84-1.28,8.41,8.41,0,0,1,4.81,1.72,15.11,15.11,0,0,0,2.08,1.16,8.61,8.61,0,0,0,2,.56V48.14A23.53,23.53,0,0,0,50.92,48a20.18,20.18,0,0,1-5.84-.59l-2-.62a27.85,27.85,0,0,0-5-1.3H38V20a13.65,13.65,0,0,0,2.71-.89Zm20.6,26.07c-.51-.4-.8-.65-.8-1.06V31.49c0-.41.29-.65.8-1a4.31,4.31,0,0,0,1-1,2.8,2.8,0,0,0,0-3,4.31,4.31,0,0,0-1-1c-.51-.4-.8-.64-.8-1V20.1h-1c-2.35,0-4.86,0-6.49-.73a13.86,13.86,0,0,1-1.88-1.05,9.89,9.89,0,0,0-5.59-1.94,14.59,14.59,0,0,0-5.39,1.37,9.09,9.09,0,0,1-2.79.84h-.3a9.09,9.09,0,0,1-2.79-.84,14.4,14.4,0,0,0-5.39-1.37,9.89,9.89,0,0,0-5.59,1.94,13.86,13.86,0,0,1-1.88,1.05c-1.63.7-4.14.73-6.48.73H14v4.41c0,.41-.29.65-.8,1a4.31,4.31,0,0,0-1,1,2.8,2.8,0,0,0,0,3,4.31,4.31,0,0,0,1,1c.51.4.8.64.8,1V44.13c0,.41-.29.66-.8,1.06a4.29,4.29,0,0,0-1,1,2.76,2.76,0,0,0,0,3,4.29,4.29,0,0,0,1,1c.51.4.8.65.8,1.06v4.29h46.6V51.12c0-.41.29-.66.8-1.06a4.29,4.29,0,0,0,1-1,2.76,2.76,0,0,0,0-3,4.29,4.29,0,0,0-1-1Z"/><path class="cls-3" d="M205.05,47.64a1.25,1.25,0,0,1-.22.75,3,3,0,0,1-.69.65,2.62,2.62,0,0,0-1.3,2.08v2.81h-44V51.12a2.62,2.62,0,0,0-1.3-2.08,3.32,3.32,0,0,1-.7-.65,1.24,1.24,0,0,1-.21-.75h0a1.23,1.23,0,0,1,.21-.74,3.65,3.65,0,0,1,.7-.66,2.6,2.6,0,0,0,1.3-2.07V31.49a2.6,2.6,0,0,0-1.3-2.07,3.32,3.32,0,0,1-.7-.65,1.24,1.24,0,0,1-.21-.75h0a1.24,1.24,0,0,1,.21-.75,3.32,3.32,0,0,1,.7-.65,2.6,2.6,0,0,0,1.3-2.07v-3h.09c1.14,0,2.26,0,3.31-.09V50.54h16a2.68,2.68,0,0,0,5.18,0h16V21.48c1,.09,2.16.09,3.3.09h.09v2.94a2.6,2.6,0,0,0,1.3,2.07,3.27,3.27,0,0,1,.69.65A1.25,1.25,0,0,1,205,28h0a1.25,1.25,0,0,1-.22.75,3.27,3.27,0,0,1-.69.65,2.6,2.6,0,0,0-1.3,2.07V44.13a2.6,2.6,0,0,0,1.3,2.07,3.6,3.6,0,0,1,.69.66,1.24,1.24,0,0,1,.22.74h0Zm-39.4-26.91a14.66,14.66,0,0,0,2.09-1.16,8.35,8.35,0,0,1,4.8-1.72,13.61,13.61,0,0,1,4.85,1.27,12.45,12.45,0,0,0,2.79.9V45.43H180a27.85,27.85,0,0,0-5,1.3l-1.95.62a20.15,20.15,0,0,1-5.84.59,23.53,23.53,0,0,0-3.56.18V21.29a8.7,8.7,0,0,0,1.93-.56Zm18.71-1.61a13.47,13.47,0,0,1,4.82-1.28,8.35,8.35,0,0,1,4.8,1.72,15.11,15.11,0,0,0,2.08,1.16,8.61,8.61,0,0,0,2,.56V48.14A23.53,23.53,0,0,0,194.5,48a20.18,20.18,0,0,1-5.84-.59l-2-.62a27.85,27.85,0,0,0-5-1.3h0V20a13.65,13.65,0,0,0,2.71-.89ZM205,45.19c-.51-.4-.8-.65-.8-1.06V31.49c0-.41.29-.65.8-1a4.31,4.31,0,0,0,1-1,2.72,2.72,0,0,0,0-3,4.31,4.31,0,0,0-1-1c-.51-.4-.8-.64-.8-1V20.1h-1c-2.34,0-4.86,0-6.49-.73a13.17,13.17,0,0,1-1.87-1.05,9.89,9.89,0,0,0-5.59-1.94,14.69,14.69,0,0,0-5.4,1.37,9,9,0,0,1-2.78.84h-.38a9.12,9.12,0,0,1-2.78-.84,14.64,14.64,0,0,0-5.4-1.37,9.89,9.89,0,0,0-5.59,1.94A13.75,13.75,0,0,1,165,19.37c-1.64.7-4.15.73-6.49.73h-1v4.41c0,.41-.29.65-.8,1a4.52,4.52,0,0,0-1,1,2.8,2.8,0,0,0,0,3,4.52,4.52,0,0,0,1,1c.51.4.8.64.8,1V44.13c0,.41-.29.66-.8,1.06a4.29,4.29,0,0,0-1,1,2.76,2.76,0,0,0,0,3,4.29,4.29,0,0,0,1,1c.51.4.8.65.8,1.06v4.29h46.64V51.12c0-.41.29-.66.8-1.06a4.29,4.29,0,0,0,1-1,2.73,2.73,0,0,0,0-3,4.29,4.29,0,0,0-1-1Z"/><path class="cls-3" d="M199.43,160,109.05,72.84,18.65,160A117.49,117.49,0,0,1,7.06,108.74V70.08h204v38.66A117.66,117.66,0,0,1,199.44,160Zm-28.86,9.09a18,18,0,1,1,0-25.46l0,.05A18,18,0,0,1,170.57,169.12ZM91.09,111.84a18,18,0,1,1,18,18A18,18,0,0,1,91.09,111.84Zm74.11,93.73c-24.27,22.5-49.41,33.83-56.15,35.54-6.73-1.71-31.88-13-56.14-35.54-.59-.55-1.19-1.1-1.78-1.67l57.92-61.5L167,203.9ZM47.53,169.12a18,18,0,1,1,25.46,0l0,0A18,18,0,0,1,47.53,169.12ZM211.05,7.05V67.16H7.05V7.05ZM214,4.14H4.14V108.73c-.14,45.83,25.37,79.12,46.79,99,23.35,21.65,49.65,34.54,57.91,36.34h.43c8.26-1.8,34.56-14.69,57.91-36.34,21.42-19.86,46.92-53.15,46.78-99Z"/><path class="cls-1" d="M264.86,82.93c0,12,2.88,15.42,11,15.42v2.88H241V98.35c6.78,0,11-2.2,11-15.08V22.44C252,10.58,249.08,7,241,7V4.14h35.41C303.15,4.14,314,18.37,314,31.76c0,16.08-12.19,25.08-34.22,25.08a112.59,112.59,0,0,1-14.91-1Zm0-31.52c4.41,1.53,7,1.7,12,1.7,14.4,0,23.56-7.8,23.56-21,0-10.35-5.77-24.27-23.53-24.27h-12V51.41Z"/><path class="cls-1" d="M316.2,64.63c-.34,26.94,15.76,33.72,23.9,33.72,8.3,0,12.54-2.88,21.18-12.54v4.41C354,99.54,347,103.1,336.54,103.1c-18.81,0-32.37-13-32.37-31.18s13.22-32.37,30.16-32.37c13.9,0,26.78,11.19,25.93,25.08Zm32.71-2.88c.51-13.22-8.47-18.64-16.1-18.64-10,0-15.93,7.46-16.61,18.64Z"/><path class="cls-1" d="M425.33,88.18c0,7.8,1.69,10.17,10.16,10.17v2.88h-32V98.35c8.13,0,10.33-1.86,10.33-7.45V59.55c0-9.66-6.94-13.73-13.38-13.73-5.93,0-11.19,3.73-17.12,11.69V86.84c0,9.15,1.19,11.52,10.17,11.52v2.88H361.78V98.36c8,0,10-.68,10-11.52V53.11c0-7.29-1.86-8.81-10-8.81V41.42l18.64-1.87h2.88v12c7.12-8.13,14.07-12,21.69-12,10,0,20.34,7.12,20.34,21.52V88.18Z"/><path class="cls-1" d="M498.7,88.18c0,7.8,1.69,10.17,10.17,10.17v2.88h-32V98.35c8.13,0,10.33-1.86,10.33-7.45V59.55c0-9.66-6.94-13.73-13.38-13.73-6,0-11.17,3.73-17.17,11.69V86.84c0,9.15,1.19,11.52,10.17,11.52v2.88H435.15V98.36c8,0,10-.68,10-11.52V53.11c0-7.29-1.86-8.81-10-8.81V41.42l18.64-1.87h2.86v12c7.12-8.13,14.07-12,21.69-12,10,0,20.34,7.12,20.34,21.52V88.18Z"/><rect class="cls-1" x="788.19" y="3.43" width="9.33" height="242.1"/><path class="cls-1" d="M851.32,82.74A27.91,27.91,0,0,1,860,61.84q8.68-8.37,21.6-8.38A29.25,29.25,0,0,1,902.89,62a28.14,28.14,0,0,1,8.68,20.85A28.51,28.51,0,0,1,902.79,104,30.8,30.8,0,0,1,860,104a28.61,28.61,0,0,1-8.72-21.15Zm8.67.1q0,12.42,5.87,20.06a18.52,18.52,0,0,0,15.43,7.65q10.65,0,16.13-8.48a33.84,33.84,0,0,0,5.47-18.74q0-13.32-6.16-20.51t-14.94-7.2a19.22,19.22,0,0,0-15.88,7.49Q860,70.61,860,82.94Z"/><path class="cls-1" d="M952.38,87.84v15.8c0,2.31.37,3.88,1.13,4.74s2.35,1.28,4.78,1.28v1.58H939.65v-1.68c2.36.07,4-.21,4.78-.84a4.17,4.17,0,0,0,1.23-3.4V87c0-2.57-.72-4.47-2.17-5.72a8.76,8.76,0,0,0-4.84-2.17h-.79a7.91,7.91,0,0,0-4.93,1.68,12.69,12.69,0,0,0-2.49,2.07,27.79,27.79,0,0,0-2.52,3v17q0,4,1,5.43c.65.92,2.3,1.38,4.93,1.38v1.58H915.4v-1.68c2.3.07,3.84-.23,4.63-.89s1.19-2.56,1.19-5.72V83.23c0-2-.38-3.38-1.14-4s-2.32-1-4.68-1v-1.8l10.85-1.09h1.67v7l1.23-1.23,1.24-1.27a17.75,17.75,0,0,1,5-3.35,12.79,12.79,0,0,1,5.17-1.09h.6a12.34,12.34,0,0,1,7.74,3.3q3.5,3.1,3.5,9.22Z"/><path class="cls-1" d="M967.28,103V57a5.18,5.18,0,0,0-1-3.55c-.65-.72-1.9-1.08-3.74-1.08l-2.27-.1V50.49l12-1.18H974v55.32c0,1.91.37,3.22,1.13,3.94s2.18,1.09,4.29,1.09l.89-.1v1.68H960.87v-1.68h1.78c1.77.07,3-.36,3.64-1.28s1-2.66,1-5.23Z"/><path class="cls-1" d="M996,104.73a5.43,5.43,0,0,0,1.08,3.79c.73.76,2.3,1.14,4.74,1.14v1.58H982.65v-1.68c2.69.07,4.47-.2,5.32-.79s1.28-1.9,1.28-3.94V83.33c0-2.37-.46-3.81-1.38-4.34s-2.66-.79-5.22-.79V76.43l11.63-1.09H996ZM992.73,57.3a4.42,4.42,0,0,1,3,1.33,4.08,4.08,0,0,1,1.23,3,4.27,4.27,0,0,1-1.23,3,4,4,0,0,1-3,1.28,4.37,4.37,0,0,1-4.33-4.33,4,4,0,0,1,1.28-3,4.25,4.25,0,0,1,3.05-1.24Z"/><path class="cls-1" d="M1040.87,87.84v15.8c0,2.31.38,3.88,1.13,4.74s2.35,1.28,4.79,1.28v1.58h-18.64v-1.68c2.37.07,4-.21,4.78-.84a4.17,4.17,0,0,0,1.23-3.4V87c0-2.57-.72-4.47-2.17-5.72a8.73,8.73,0,0,0-4.83-2.17h-.79a7.93,7.93,0,0,0-4.93,1.68,12.47,12.47,0,0,0-2.51,2.07,27.79,27.79,0,0,0-2.52,3v17q0,4,1,5.43t4.93,1.38v1.58H1003.9v-1.68c2.3.07,3.85-.23,4.63-.89s1.19-2.56,1.19-5.72V83.23c0-2-.38-3.38-1.14-4s-2.31-1-4.68-1v-1.8l10.85-1.09h1.67v7l1.24-1.23,1.23-1.23a17.9,17.9,0,0,1,5-3.35,12.84,12.84,0,0,1,5.18-1.09h.59a12.34,12.34,0,0,1,7.74,3.3q3.49,3.11,3.5,9.22Z"/><path class="cls-1" d="M1051.65,89.94q-.11,8,2.51,12.22a15.91,15.91,0,0,0,5.77,5.92,10.21,10.21,0,0,0,3,1.23,11.9,11.9,0,0,0,2.66.35,13.43,13.43,0,0,0,3.16-.35,13.6,13.6,0,0,0,2.76-1,21,21,0,0,0,2.91-2.32c1-1,2.18-2.15,3.5-3.6v2.45a6.19,6.19,0,0,1-.55.79q-.24.28-.54.69a18.56,18.56,0,0,1-6.06,4.63,17.83,17.83,0,0,1-7.25,1.38,18.74,18.74,0,0,1-13.51-5.08,17.1,17.1,0,0,1-5.32-13,19,19,0,0,1,5.07-13.37,16.39,16.39,0,0,1,12.48-5.47,15.68,15.68,0,0,1,10.55,4,12.21,12.21,0,0,1,4.54,9.79v.69Zm19-1.68v-.59q0-4.74-2.42-7.15a9.76,9.76,0,0,0-5.37-2.91,5.21,5.21,0,0,1-.79,0c-.26,0-.53,0-.79,0a8.57,8.57,0,0,0-6.85,2.93,12.78,12.78,0,0,0-2.81,7.82Z"/><path class="cls-1" d="M888.79,177.16h-1.68a.73.73,0,0,1-.15-.29,2.67,2.67,0,0,1,0-.4c-.52-2-1.25-3.32-2.16-3.84s-2.77-.79-5.53-.79h-14V192a4.24,4.24,0,0,0,.89,3.05,4.55,4.55,0,0,0,3.25.88l9.86-.1a29.3,29.3,0,0,0,7.65-.59,7.69,7.69,0,0,0,4.38-3.85c.27-.46.55-1,.84-1.48a14.33,14.33,0,0,0,.84-1.77l1.68-.1-2.57,10.55H851.32v-1.67q3.34.09,4.88-1.53c1-1.09,1.53-3.5,1.53-7.25v-35.4q0-5.13-1.38-7t-5-1.88v-1.77h40.72v9.46H891q-1-4.53-2.91-5.57c-1.27-.69-3.46-1-6.56-1l-16.27-.1V169H881a6.87,6.87,0,0,0,4.19-.84q1.34-.93,1.92-4.58l1.68-.1Z"/><path class="cls-1" d="M932.05,191.76c0,2,.41,3.34,1.23,4.09s2.35,1.13,4.59,1.13v1.58H917.55q-9.36,0-14.1-4.44a18.36,18.36,0,0,1-5.81-9.86,14.85,14.85,0,0,1-.3-1.87,16.74,16.74,0,0,1-.1-1.87A17.86,17.86,0,0,1,902,167.94a15.2,15.2,0,0,1,11.63-5.17,8.34,8.34,0,0,1,1,0h1.08a16.7,16.7,0,0,1,4.59,1.34,39.14,39.14,0,0,1,5.07,2.81v-21.5c0-2.43-.34-4-1-4.78a4.69,4.69,0,0,0-3.6-1.14l-2-.1v-1.56l11.63-1.19h1.68Zm-6.71-.1v-21a16.57,16.57,0,0,0-3.64-3.55,11.9,11.9,0,0,0-4.24-2l-1.09-.19a6.64,6.64,0,0,0-1.18-.1,9.22,9.22,0,0,0-7.69,3.89q-3,3.9-3,10.31c0,.46,0,1,0,1.48s.08,1,.14,1.48a20.94,20.94,0,0,0,4,10.4q3.45,4.68,11,4.68c2,0,3.39-.42,4.24-1.28a5.49,5.49,0,0,0,1.28-4Z"/><path class="cls-1" d="M973.44,192c0,2,.41,3.33,1.23,4s2.42,1,4.78,1v1.58l-12.72.69v-6.39h-.2a17.68,17.68,0,0,1-5.62,5.13,13.47,13.47,0,0,1-6.6,1.68,10.77,10.77,0,0,1-8.29-3.41,11.64,11.64,0,0,1-3.15-8.23V170.06a4.37,4.37,0,0,0-1.23-3.5c-.83-.67-2.5-1-5-1v-1.78l11.24-1.08h1.67v25a7.4,7.4,0,0,0,6.76,8,7.1,7.1,0,0,0,1.13,0,8.81,8.81,0,0,0,4.83-1.43,17.09,17.09,0,0,0,4.44-4.29V171c0-2.37-.38-3.84-1.13-4.44s-2.65-.92-5.67-1v-1.78l11.83-1.08h1.68Z"/><path class="cls-1" d="M1012.06,175h-1.67a14,14,0,0,0-4.24-7.44,10.9,10.9,0,0,0-7.5-2.81,10.41,10.41,0,0,0-8.43,4,16,16,0,0,0-3.3,10.45,20,20,0,0,0,3.89,12.38q3.9,5.18,9.22,5.18a12.77,12.77,0,0,0,2.47-.25,16.52,16.52,0,0,0,6.8-3.11,17.76,17.76,0,0,0,3.75-3.94v2.47a17.13,17.13,0,0,1-6.71,5.81,20,20,0,0,1-8.67,1.88q-7.8,0-12.67-4.88a17.11,17.11,0,0,1-4.89-12.68,19.26,19.26,0,0,1,5.28-13.7,16.86,16.86,0,0,1,12.77-5.62,17.85,17.85,0,0,1,3.5.29,21.1,21.1,0,0,1,2.71.69l2.07.69a5,5,0,0,0,1.58.3,2.13,2.13,0,0,0,1.33-.49,3.48,3.48,0,0,0,1-1.48l1.67-.1Z"/><path class="cls-1" d="M1044.65,175.49v15a15.78,15.78,0,0,0,.39,4.33,1.56,1.56,0,0,0,1.58,1.19,1.3,1.3,0,0,0,.94-.35,5.18,5.18,0,0,0,.74-1,7.11,7.11,0,0,1,.29-.89c.13-.33.26-.69.4-1.08l1.67-.1a7.81,7.81,0,0,1-2,5.22,6.37,6.37,0,0,1-4.78,1.88,5.55,5.55,0,0,1-3.6-1.14,7.84,7.84,0,0,1-2.32-3.7,26.73,26.73,0,0,1-2.22,2.17,13.78,13.78,0,0,1-2,1.48,10.9,10.9,0,0,1-2.41.89,11.29,11.29,0,0,1-2.72.3,10.13,10.13,0,0,1-7-2.67,8.39,8.39,0,0,1-3-6.5q0-4.74,3.41-6.81a30.54,30.54,0,0,1,7.54-3.25c.39-.13.8-.25,1.23-.35s.87-.21,1.33-.34c1.12-.33,2.17-.66,3.16-1a14.08,14.08,0,0,0,2.66-1.18v-2.66a8.9,8.9,0,0,0-2-6,7.18,7.18,0,0,0-5.77-2.37,9.34,9.34,0,0,0-5.57,1.88,10.06,10.06,0,0,0-3.7,5.62l-1.77-.59a13.53,13.53,0,0,1,4.63-7.74,12.66,12.66,0,0,1,8.29-2.91,10.65,10.65,0,0,1,1.13,0,7.74,7.74,0,0,1,1.13.14,13.75,13.75,0,0,1,7.1,3.5q3.25,2.91,3.26,9.13Zm-6.71,16V179.63c-1,.46-1.94.85-2.86,1.18s-1.77.63-2.56.89a17.76,17.76,0,0,0-5.13,2.61c-1.32,1-2,2.78-2,5.28a6.76,6.76,0,0,0,1.58,4.53,4.78,4.78,0,0,0,3.74,1.88,6.14,6.14,0,0,0,1.48-.2,10.78,10.78,0,0,0,1.68-.59,9.25,9.25,0,0,0,2.32-1.43,6.11,6.11,0,0,0,1.72-2.22Z"/><path class="cls-1" d="M1060.58,163.56h16.13l2.41,2.56h-18.54V188.6q0,3.75,1.72,5.57a6,6,0,0,0,4.59,1.83,7.35,7.35,0,0,0,2.71-.49A9.53,9.53,0,0,0,1072,194a6.5,6.5,0,0,0,.74-.65,6.31,6.31,0,0,0,.64-.73l1.08,1.18a15.6,15.6,0,0,1-4.93,4.39,11.74,11.74,0,0,1-5.62,1.43,9.91,9.91,0,0,1-7.25-2.76,9.79,9.79,0,0,1-2.81-7.3V166.12h-6.6v-1.68a21.34,21.34,0,0,0,6.51-4.83,30.08,30.08,0,0,0,5.12-7.69l1.68-.1Z"/><path class="cls-1" d="M1087.2,192.05a5.4,5.4,0,0,0,1.09,3.8c.72.76,2.3,1.13,4.73,1.13v1.58h-19.13v-1.67c2.7.06,4.47-.2,5.33-.79s1.28-1.91,1.28-3.95V171.22c0-2.36-.46-3.81-1.38-4.34s-2.67-.79-5.23-.79v-2.53h13.31ZM1084,144.62a4.53,4.53,0,0,1,3,1.33,4.11,4.11,0,0,1,1.23,3A4.27,4.27,0,0,1,1087,152a4.05,4.05,0,0,1-3,1.28,4.37,4.37,0,0,1-4.34-4.34,4.05,4.05,0,0,1,1.28-3,4.28,4.28,0,0,1,3.06-1.23Z"/><path class="cls-1" d="M1132.83,181.21a17.5,17.5,0,0,1-5.47,13.21,20.44,20.44,0,0,1-27.32,0,17.36,17.36,0,0,1-5.47-13.11A17.68,17.68,0,0,1,1100,168a20.33,20.33,0,0,1,27.32,0,17.65,17.65,0,0,1,5.47,13.27Zm-7.29,0a22.63,22.63,0,0,0-2.87-11.49,9.6,9.6,0,0,0-9-5,10,10,0,0,0-8.68,4.49q-3.15,4.48-3.15,12.08a22.16,22.16,0,0,0,2.91,11.58,9.65,9.65,0,0,0,8.92,4.88q6.21,0,9-5.08a23,23,0,0,0,2.82-11.38Z"/><path class="cls-1" d="M1169.28,175.19V191c0,2.3.37,3.88,1.13,4.73s2.35,1.28,4.78,1.28v1.58h-18.64v-1.67c2.37.06,4-.22,4.79-.84a4.13,4.13,0,0,0,1.23-3.4V174.3q0-3.84-2.17-5.72a8.82,8.82,0,0,0-4.83-2.16h-.79a8.34,8.34,0,0,0-2.52.39,8.22,8.22,0,0,0-2.41,1.28,13.17,13.17,0,0,0-2.52,2.07,29.6,29.6,0,0,0-2.51,3.06v17c0,2.7.33,4.5,1,5.42s2.3,1.38,4.93,1.38v1.58h-18.44v-1.67c2.3.06,3.84-.23,4.63-.89s1.18-2.57,1.18-5.72V170.56c0-2-.37-3.39-1.13-4.05s-2.32-1-4.68-1v-1.78l10.84-1.08h1.68v7l1.23-1.23,1.23-1.24a18.34,18.34,0,0,1,5-3.35,13,13,0,0,1,5.18-1.08h.59a12.24,12.24,0,0,1,7.74,3.3q3.51,3.1,3.51,9.22Z"/></g></g></svg>