<svg width="284" height="61" viewBox="0 0 284 61" fill="none" xmlns="http://www.w3.org/2000/svg">
<g clip-path="url(#clip0_6553_17380)">
<path d="M283.65 38.4839H53.7647V39.2898H283.65V38.4839Z" fill="white"/>
<path d="M48.673 1.91406H7.10035e-05V26.3947C-0.0498499 37.0734 5.84082 44.7803 10.7331 49.3641C16.1245 54.4013 22.115 57.3228 24.1119 57.7762L24.3615 57.8265L24.6111 57.7762C26.6079 57.3228 32.5485 54.4013 37.9899 49.3641C42.8821 44.7803 48.7728 37.0231 48.7229 26.3947L48.673 1.91406Z" fill="white"/>
<path d="M45.6776 12.1396C45.7276 12.19 45.8274 12.2404 45.8773 12.3411C45.9327 12.433 45.9668 12.5363 45.9772 12.6434C45.9755 12.7368 45.94 12.8264 45.8773 12.8952C45.8274 12.996 45.7276 13.0463 45.6776 13.0967C45.6277 13.1471 45.478 13.2478 45.478 13.3989V14.2553H35.2941V13.3989C35.2922 13.3347 35.2725 13.2724 35.2372 13.2189C35.2019 13.1655 35.1524 13.1231 35.0944 13.0967C35.0445 13.0463 34.9447 12.996 34.8947 12.8952C34.8394 12.8033 34.8052 12.7 34.7949 12.593C34.8052 12.486 34.8394 12.3827 34.8947 12.2908C34.9447 12.19 35.0445 12.1396 35.0944 12.0893C35.1443 12.0389 35.2941 11.9382 35.2941 11.787V8.96624C35.2922 8.90204 35.2725 8.83966 35.2372 8.78622C35.2019 8.73278 35.1524 8.69043 35.0944 8.66401C35.0445 8.61364 34.9447 8.56327 34.8947 8.46252C34.8394 8.37063 34.8052 8.26733 34.7949 8.16029C34.8052 8.05326 34.8394 7.94995 34.8947 7.85806L35.0944 7.65658C35.1943 7.55583 35.2941 7.50546 35.2941 7.35435V6.44766H35.4439C35.9517 6.49435 36.4635 6.4255 36.9415 6.24617C37.1013 6.18185 37.2522 6.09721 37.3908 5.99431C37.7364 5.73274 38.1568 5.59134 38.5889 5.59134C38.9887 5.60771 39.3803 5.71079 39.7371 5.89357C39.9423 5.99281 40.161 6.06072 40.386 6.09506H40.436C40.6625 6.06761 40.8823 5.99937 41.0849 5.89357C41.4438 5.71658 41.8342 5.61382 42.2331 5.59134C42.6652 5.59134 43.0856 5.73274 43.4312 5.99431C43.5697 6.09721 43.7207 6.18185 43.8805 6.24617C44.3634 6.40471 44.8709 6.47299 45.3781 6.44766H45.5279V7.35435C45.5297 7.41855 45.5494 7.48093 45.5848 7.53437C45.6201 7.58781 45.6695 7.63016 45.7276 7.65658C45.7775 7.70695 45.8773 7.75732 45.9272 7.85806C45.9826 7.94995 46.0168 8.05326 46.0271 8.16029C46.0168 8.26733 45.9826 8.37063 45.9272 8.46252L45.7276 8.66401C45.6277 8.76475 45.5279 8.81512 45.5279 8.96624V11.787C45.5042 11.854 45.5064 11.9276 45.5342 11.993C45.562 12.0584 45.6132 12.1108 45.6776 12.1396ZM33.1475 13.6508C32.5621 14.4564 31.7134 15.0273 30.7513 15.2627C30.455 15.3211 30.1545 15.3548 29.8527 15.3634C28.2553 15.3634 26.8075 14.6582 25.3099 13.9027C25.1328 13.7914 24.9494 13.6905 24.7608 13.6004C23.8123 13.0967 22.4644 12.3411 21.3662 12.3411C21.054 12.324 20.7432 12.3937 20.4676 12.5426H20.4177V12.593C20.4144 12.7331 20.3803 12.8708 20.3178 12.996C20.0773 13.4832 19.7162 13.8996 19.2695 14.2049C18.5727 14.773 17.7176 15.1076 16.8234 15.1619C16.6882 15.1727 16.5524 15.1555 16.424 15.1116C16.2496 15.0544 16.0941 14.9498 15.9747 14.8093C15.9139 14.7325 15.8635 14.6478 15.8249 14.5575C15.7797 14.482 15.762 14.3929 15.775 14.3056V14.2553H15.7251C15.5571 14.2319 15.4034 14.1472 15.293 14.0173C15.1826 13.8874 15.1232 13.7212 15.1261 13.5501C15.1261 13.2982 15.3257 13.0967 15.4755 12.8952C15.7251 12.593 15.9747 12.3411 15.5753 11.9885L15.4755 11.8878C15.4256 11.8374 15.3757 11.8374 15.3257 11.7367C15.0262 11.3841 15.176 10.6789 15.3257 10.2255V10.1752C15.4774 9.65339 15.678 9.14739 15.9248 8.66401C16.2556 7.90659 16.7305 7.22204 17.3226 6.64915H17.4224C17.4671 6.76299 17.5351 6.866 17.6221 6.95137L17.7219 7.10249L17.7719 6.901C17.9715 6.39729 18.2212 6.04469 18.6205 5.94394C18.7907 5.89328 18.9704 5.88514 19.1444 5.92025C19.3183 5.95535 19.4812 6.03263 19.6189 6.14543L19.7188 6.1958L19.7687 6.09506C19.8394 5.96747 19.9402 5.85938 20.062 5.78033C20.1839 5.70127 20.3232 5.65367 20.4676 5.64171C20.6409 5.64747 20.8109 5.69097 20.966 5.76922C21.1211 5.84746 21.2576 5.95862 21.3662 6.09506L21.4161 6.14543L21.466 6.09506C21.7814 5.80818 22.1896 5.64702 22.6142 5.64171C22.782 5.66829 22.9382 5.7448 23.0627 5.86146C23.1872 5.97812 23.2744 6.12961 23.3131 6.29654L23.363 6.39729L23.4628 6.34692C23.6236 6.2583 23.8038 6.21186 23.987 6.21186C24.1702 6.21186 24.3504 6.2583 24.5112 6.34692C24.6157 6.41577 24.696 6.51609 24.7409 6.63363C24.7857 6.75118 24.7926 6.87998 24.7608 7.00175V7.10249H24.8606C25.0578 7.04613 25.2657 7.03962 25.4659 7.08355C25.6662 7.12747 25.8526 7.22048 26.0088 7.35435C26.1054 7.47275 26.1774 7.60964 26.2203 7.75679C26.2632 7.90394 26.2761 8.05832 26.2584 8.21066V8.31141H26.3583C26.5061 8.2759 26.6611 8.28569 26.8033 8.33952C26.9456 8.39336 27.0688 8.4888 27.157 8.61364C27.2133 8.71209 27.247 8.82202 27.2556 8.93534C27.2642 9.04866 27.2476 9.16249 27.2069 9.26847L27.157 9.36921H27.2568C27.461 9.41989 27.639 9.54563 27.756 9.72181C27.8112 9.97332 27.7939 10.2355 27.7061 10.4774L27.6562 10.5781L27.756 10.6285C27.9693 10.7169 28.1457 10.8771 28.2553 11.0818C28.3179 11.2335 28.3501 11.3961 28.3501 11.5604C28.3501 11.7246 28.3179 11.8873 28.2553 12.0389V12.0893L28.3052 12.1396C28.6231 12.4266 28.9564 12.6956 29.3036 12.9456C30.0025 13.4493 31.0508 13.7012 31.7497 13.0967C31.8906 12.9759 31.9939 12.8164 32.0471 12.6377C32.1002 12.4589 32.101 12.2685 32.0492 12.0893C32.0156 11.9365 31.9424 11.7954 31.8372 11.6804C31.732 11.5654 31.5984 11.4805 31.4502 11.4344C30.9011 11.3337 30.4518 11.8374 30.1023 12.3411H30.0524C30.0458 12.3411 30.0394 12.3398 30.0333 12.3373C30.0272 12.3348 30.0217 12.3311 30.0171 12.3264C30.0125 12.3217 30.0088 12.3162 30.0063 12.31C30.0038 12.3039 30.0025 12.2974 30.0025 12.2908C29.8471 11.9976 29.7617 11.672 29.753 11.3397C29.7444 11.0074 29.8127 10.6776 29.9526 10.3766C30.0994 10.1566 30.2912 9.97089 30.5151 9.83188C30.7389 9.69287 30.9897 9.60381 31.2505 9.5707H31.3503V9.46995C31.3183 9.10731 31.3593 8.74187 31.4708 8.39561C31.5823 8.04935 31.7621 7.72943 31.9993 7.45509C32.2175 7.2695 32.4749 7.13671 32.7518 7.06686C33.0287 6.99702 33.3177 6.99198 33.5968 7.05212H33.6467V7.10249C33.0477 8.56327 33.1974 9.11735 33.4969 10.3263C33.5369 10.4418 33.5702 10.5595 33.5968 10.6789C33.8003 11.6919 33.6411 12.745 33.1475 13.6508ZM13.6284 12.1396C13.6783 12.19 13.7782 12.2404 13.8281 12.3411C13.8835 12.433 13.9176 12.5363 13.928 12.6434C13.9263 12.7368 13.8907 12.8264 13.8281 12.8952C13.7782 12.996 13.6783 13.0463 13.6284 13.0967C13.5785 13.1471 13.4287 13.2478 13.4287 13.3989V14.2553H3.24488V13.3989C3.24303 13.3347 3.22332 13.2724 3.18801 13.2189C3.15271 13.1655 3.10322 13.1231 3.0452 13.0967C2.99528 13.0463 2.89544 12.996 2.84552 12.8952C2.79014 12.8033 2.75601 12.7 2.74567 12.593C2.75601 12.486 2.79014 12.3827 2.84552 12.2908C2.89544 12.19 2.99528 12.1396 3.0452 12.0893C3.09512 12.0389 3.24488 11.9382 3.24488 11.787V8.96624C3.24303 8.90204 3.22332 8.83966 3.18801 8.78622C3.15271 8.73278 3.10322 8.69043 3.0452 8.66401C2.99528 8.61364 2.89544 8.56327 2.84552 8.46252C2.79014 8.37063 2.75601 8.26733 2.74567 8.16029C2.75601 8.05326 2.79014 7.94995 2.84552 7.85806L3.0452 7.65658C3.14504 7.55583 3.24488 7.50546 3.24488 7.35435V6.44766H3.39465C3.90251 6.49435 4.41428 6.4255 4.89227 6.24617C5.05204 6.18185 5.20303 6.09721 5.34156 5.99431C5.6872 5.73274 6.10761 5.59134 6.53966 5.59134C6.93853 5.61382 7.32892 5.71658 7.68784 5.89357C7.89308 5.99281 8.11179 6.06072 8.33681 6.09506H8.38673C8.61326 6.06761 8.83307 5.99937 9.03571 5.89357C9.39463 5.71658 9.78502 5.61382 10.1839 5.59134C10.6159 5.59134 11.0363 5.73274 11.382 5.99431C11.5205 6.09721 11.6715 6.18185 11.8313 6.24617C12.3142 6.40471 12.8217 6.47299 13.3289 6.44766H13.4787V7.35435C13.4805 7.41855 13.5002 7.48093 13.5355 7.53437C13.5708 7.58781 13.6203 7.63016 13.6783 7.65658C13.7283 7.70695 13.8281 7.75732 13.878 7.85806C13.9334 7.94995 13.9675 8.05326 13.9779 8.16029C13.9675 8.26733 13.9334 8.37063 13.878 8.46252L13.6783 8.66401C13.5785 8.76475 13.4787 8.81512 13.4787 8.96624V11.787C13.455 11.854 13.4572 11.9276 13.485 11.993C13.5128 12.0584 13.564 12.1108 13.6284 12.1396ZM1.24805 3.22388C1.24805 3.22388 1.29797 17.4287 1.24805 17.3783H47.4748V3.22388H1.24805Z" fill="#990000"/>
<path d="M17.1729 11.5352C17.3343 11.5389 17.4908 11.5915 17.6222 11.6863C17.6721 11.7366 17.722 11.787 17.7719 11.787C17.7958 11.8096 17.8148 11.8369 17.8278 11.8673C17.8408 11.8976 17.8476 11.9303 17.8476 11.9633C17.8476 11.9964 17.8408 12.029 17.8278 12.0594C17.8148 12.0897 17.7958 12.117 17.7719 12.1396C17.6721 12.2404 17.5223 12.3411 17.4724 12.3915C17.2727 12.5426 16.9732 12.7441 16.7236 12.593C16.6237 12.4922 16.8234 12.3411 16.7236 11.9381C16.6237 11.6863 16.9233 11.5352 17.1729 11.5352Z" fill="#011F5B"/>
<path d="M17.2226 6.95131C16.7217 7.49972 16.3166 8.12991 16.0245 8.81506C15.7848 9.27833 15.6005 9.76869 15.4754 10.2758V10.3262C15.3756 10.6788 15.2258 11.384 15.4255 11.6359C15.4754 11.6862 15.5253 11.6862 15.5253 11.7366C15.5253 11.787 15.6252 11.787 15.6751 11.8374C16.1743 12.3411 15.8248 12.744 15.5752 13.0463C15.4255 13.2478 15.2757 13.3989 15.2757 13.55C15.2757 13.9026 15.725 14.0537 15.8248 14.0537C15.9247 14.0537 15.9247 14.1041 15.9247 14.2048C15.9117 14.2921 15.9293 14.3812 15.9746 14.4567C16.0245 14.5071 16.0245 14.6078 16.0745 14.6582C16.1689 14.7695 16.2889 14.856 16.4239 14.91C16.5346 14.9551 16.6545 14.9723 16.7733 14.9604C17.6304 14.9141 18.4512 14.5969 19.1196 14.0537C19.5404 13.776 19.8841 13.3946 20.118 12.9455C20.1587 12.8504 20.1758 12.7466 20.168 12.6433L19.519 12.5426C19.4691 12.5426 19.4191 12.4922 19.3692 12.3914C19.3692 12.2403 19.4691 12.19 19.7187 12.0388C19.7686 11.9885 19.8684 11.9381 19.9184 11.8877C20.2678 11.6359 20.5673 11.4344 20.7171 11.3336C20.5344 11.1404 20.3828 10.9194 20.2678 10.6788C20.192 10.5561 20.1087 10.4383 20.0182 10.3262C19.8496 10.1282 19.6184 9.99504 19.3638 9.94915C19.1091 9.90326 18.8465 9.94749 18.6204 10.0744C18.4258 10.1919 18.2421 10.3268 18.0713 10.4773C17.934 10.6102 17.7835 10.7284 17.622 10.8299C17.6068 10.8435 17.5886 10.8531 17.5689 10.858C17.5492 10.8628 17.5287 10.8628 17.509 10.8578C17.4893 10.8528 17.4712 10.8431 17.4561 10.8295C17.441 10.8159 17.4294 10.7987 17.4223 10.7796C17.3978 10.7518 17.3842 10.716 17.3842 10.6788C17.3842 10.6416 17.3978 10.6058 17.4223 10.5781L17.4722 10.5277C17.6719 10.3262 18.1711 9.82249 18.1711 9.52026C18.221 8.66395 17.4722 7.40466 17.2226 6.95131ZM21.3661 12.0892C22.5142 12.0892 23.8122 12.7944 24.8605 13.3989C25.0492 13.4889 25.2325 13.5898 25.4097 13.7011C27.1569 14.6078 28.9041 15.4137 30.7512 15.0611C31.6587 14.8533 32.4584 14.3153 32.9976 13.55C33.2293 13.1316 33.3712 12.6688 33.4142 12.1915C33.4572 11.7143 33.4003 11.2332 33.2472 10.7796C33.1973 10.6788 33.1973 10.5277 33.1474 10.427C32.8479 9.26841 32.6482 8.66395 33.1973 7.25354C32.7528 7.21604 32.3098 7.3412 31.9493 7.60614C31.5007 8.15567 31.2854 8.86172 31.3502 9.57064C31.3527 9.59107 31.3504 9.61178 31.3438 9.63122C31.3371 9.65066 31.3261 9.66832 31.3117 9.68287C31.2973 9.69742 31.2798 9.70847 31.2605 9.71521C31.2413 9.72194 31.2207 9.72418 31.2005 9.72175C30.9454 9.7329 30.6962 9.80213 30.4714 9.92426C30.2466 10.0464 30.0522 10.2182 29.9025 10.427C29.7942 10.6536 29.7339 10.9006 29.7253 11.152C29.7167 11.4035 29.76 11.6541 29.8526 11.8877C30.1521 11.4848 30.6014 10.981 31.2504 11.1322C31.4422 11.1726 31.6169 11.2717 31.7509 11.4159C31.8849 11.5601 31.9716 11.7424 31.9992 11.9381C32.0461 12.1609 32.0387 12.3918 31.9779 12.6111C31.917 12.8304 31.8045 13.0315 31.6498 13.1974C30.851 13.8522 29.7029 13.6004 28.954 13.0463C27.9873 12.3212 27.1003 11.4937 26.3082 10.5781C26.1585 10.3766 26.0087 10.2255 25.8589 10.024C25.3037 9.31259 24.667 8.67007 23.962 8.10986C23.0115 7.40556 21.8433 7.06623 20.6672 7.1528C19.7271 7.17733 18.805 7.41855 17.9714 7.858C18.2364 8.35901 18.4058 8.90579 18.4707 9.46989C18.4784 9.55695 18.4611 9.64441 18.4207 9.72175C18.7007 9.57469 19.0223 9.52946 19.3315 9.59368C19.6406 9.6579 19.9184 9.82765 20.118 10.0744C20.2297 10.1993 20.3299 10.3342 20.4176 10.4773C20.5724 10.7334 20.7567 10.9701 20.9667 11.1825C21.0166 11.2329 21.0166 11.2329 21.0166 11.2833C21.0113 11.3215 20.9938 11.3568 20.9667 11.384C20.6561 11.5863 20.3561 11.8049 20.0681 12.0388C20.0182 12.0892 19.9184 12.1396 19.8684 12.19C19.8619 12.19 19.8554 12.1913 19.8493 12.1938C19.8433 12.1963 19.8378 12.2 19.8331 12.2047C19.8285 12.2094 19.8248 12.2149 19.8223 12.2211C19.8198 12.2272 19.8185 12.2337 19.8185 12.2403L20.2678 12.3411C20.6061 12.1627 20.9846 12.0759 21.3661 12.0892ZM29.8526 15.4137C28.2552 15.4137 26.7575 14.7085 25.2599 13.9026C25.0827 13.7913 24.8994 13.6904 24.7108 13.6004C23.5127 12.9455 21.6656 11.9381 20.4675 12.5426C20.4582 12.6981 20.4245 12.8511 20.3676 12.9959C20.0962 13.4909 19.7215 13.9206 19.2694 14.2552C18.5654 14.8444 17.6875 15.181 16.7733 15.2123C16.6219 15.2204 16.4701 15.2034 16.3241 15.1619C16.1291 15.0921 15.9566 14.9702 15.8248 14.8093C15.764 14.7324 15.7137 14.6477 15.6751 14.5574C15.6347 14.4801 15.6174 14.3926 15.6252 14.3056C15.1759 14.1545 14.9263 13.9026 14.9263 13.55C14.9703 13.285 15.092 13.0394 15.2757 12.8448C15.5752 12.4922 15.6751 12.3411 15.4255 12.0388L15.3256 11.9381L15.1759 11.787C14.8264 11.384 15.0261 10.6284 15.126 10.2255V10.1751C15.2689 9.65034 15.4699 9.14345 15.725 8.66395C16.0423 7.87158 16.538 7.16454 17.1727 6.59871C17.2226 6.54834 17.2226 6.54834 17.2726 6.54834C17.3104 6.55366 17.3455 6.57136 17.3724 6.59871C17.3724 6.59871 17.622 7.00168 17.9215 7.5054C18.7966 7.07455 19.7458 6.818 20.7171 6.74983C21.9636 6.65574 23.2025 7.01291 24.2116 7.75726C24.9297 8.32176 25.5679 8.98272 26.1086 9.72175C26.2583 9.92324 26.4081 10.0744 26.5578 10.2758C27.3455 11.1779 28.2146 12.0042 29.1537 12.744C29.8027 13.2478 30.8011 13.4996 31.5 12.8952C31.6285 12.776 31.7237 12.6249 31.7763 12.4569C31.8289 12.289 31.8369 12.1101 31.7995 11.9381C31.7667 11.7984 31.699 11.6696 31.6029 11.5638C31.5068 11.458 31.3854 11.3788 31.2504 11.3336C30.7512 11.2329 30.3518 11.7366 30.0024 12.2403C29.9827 12.2594 29.959 12.2738 29.9331 12.2825C29.9072 12.2912 29.8797 12.294 29.8526 12.2907C29.8269 12.2884 29.8028 12.2771 29.7845 12.2587C29.7663 12.2402 29.755 12.2159 29.7528 12.19C29.5853 11.8827 29.4933 11.5393 29.4846 11.1887C29.4759 10.8381 29.5508 10.4905 29.7029 10.1751C29.8497 9.93969 30.047 9.74055 30.2803 9.59234C30.5136 9.44414 30.7769 9.35065 31.0507 9.31878C31.0507 8.36172 31.2504 7.65652 31.7496 7.25354C31.974 7.06139 32.2399 6.92487 32.5259 6.8549C32.812 6.78493 33.1103 6.78345 33.397 6.85057C33.4348 6.85589 33.4699 6.87359 33.4968 6.90094C33.5083 6.90989 33.5175 6.92135 33.5238 6.93444C33.5302 6.94754 33.5335 6.96192 33.5335 6.9765C33.5335 6.99108 33.5302 7.00546 33.5238 7.01856C33.5175 7.03165 33.5083 7.04311 33.4968 7.05206C32.8978 8.51283 33.0476 9.06692 33.3471 10.2255C33.387 10.341 33.4203 10.4587 33.4469 10.5781C33.6049 11.0672 33.6599 11.5842 33.6083 12.096C33.5568 12.6077 33.3998 13.103 33.1474 13.55C32.3487 14.8597 30.7512 15.1619 30.7013 15.2123C30.4533 15.3841 30.1505 15.456 29.8526 15.4137Z" fill="#011F5B"/>
<path d="M16.2243 14.4062H15.775C15.7353 14.4062 15.6972 14.3902 15.6691 14.3619C15.641 14.3336 15.6252 14.2951 15.6252 14.2551C15.6252 14.215 15.641 14.1765 15.6691 14.1482C15.6972 14.1199 15.7353 14.1039 15.775 14.1039C16.2329 14.1728 16.7006 14.126 17.1362 13.9677C17.5718 13.8095 17.9617 13.5448 18.2711 13.1972C18.2842 13.184 18.2997 13.1735 18.3169 13.1664C18.334 13.1592 18.3523 13.1555 18.3709 13.1555C18.3894 13.1555 18.4078 13.1592 18.4249 13.1664C18.4421 13.1735 18.4576 13.184 18.4707 13.1972C18.4838 13.2105 18.4942 13.2262 18.5013 13.2435C18.5084 13.2608 18.5121 13.2793 18.5121 13.298C18.5121 13.3167 18.5084 13.3352 18.5013 13.3525C18.4942 13.3698 18.4838 13.3855 18.4707 13.3987C18.1931 13.7235 17.8478 13.9822 17.4594 14.1564C17.071 14.3306 16.6492 14.4159 16.2243 14.4062Z" fill="#011F5B"/>
<path d="M28.0055 12.1899H27.9556C27.9057 12.1395 27.8558 12.0891 27.9057 11.9884C28.0555 11.6358 28.1054 11.3335 27.9556 11.1321C27.8453 10.9392 27.667 10.7954 27.4564 10.7291C27.4065 10.7291 27.4065 10.6787 27.3566 10.6787V10.578C27.4419 10.3359 27.4759 10.0785 27.4564 9.82239C27.4065 9.62091 27.057 9.57054 26.9572 9.57054C26.9193 9.56521 26.8843 9.54752 26.8573 9.52016C26.8573 9.46979 26.8074 9.41942 26.8573 9.36905C26.9073 9.31868 27.0071 8.9157 26.9073 8.76459C26.7076 8.41199 26.1085 8.61348 26.1085 8.61348C26.0813 8.61778 26.0535 8.61554 26.0273 8.60693C26.0012 8.59833 25.9774 8.58361 25.9579 8.56397C25.9385 8.54433 25.9239 8.52032 25.9153 8.49391C25.9068 8.4675 25.9046 8.43943 25.9089 8.41199C25.9489 8.26703 25.9562 8.11487 25.9302 7.96669C25.9043 7.8185 25.8458 7.67806 25.7591 7.55567C25.3597 7.1527 24.561 7.40456 24.561 7.40456C24.5338 7.40886 24.506 7.40662 24.4798 7.39802C24.4536 7.38941 24.4298 7.37469 24.4104 7.35505C24.3909 7.33541 24.3763 7.3114 24.3678 7.28499C24.3593 7.25858 24.357 7.23051 24.3613 7.20307C24.3613 7.20307 24.5111 6.74973 24.2115 6.54824C24.052 6.47087 23.8744 6.43934 23.6983 6.45712C23.5222 6.47489 23.3543 6.54127 23.2131 6.64898C23.2043 6.66049 23.1929 6.6698 23.1799 6.67621C23.1669 6.68262 23.1527 6.68595 23.1382 6.68595C23.1238 6.68595 23.1095 6.68262 23.0966 6.67621C23.0836 6.6698 23.0722 6.66049 23.0634 6.64898C23.0134 6.64898 23.0134 6.59861 22.9635 6.54824C22.9136 6.49787 22.8637 5.94378 22.4144 5.89341C21.9992 5.91854 21.6079 6.098 21.3161 6.39713C21.2662 6.4475 21.2662 6.4475 21.2163 6.4475C21.1664 6.4475 21.1664 6.4475 21.1164 6.39713C21.0665 6.34675 20.7171 5.89341 20.2678 5.94378C19.8185 5.99415 19.6188 6.4475 19.6188 6.4475C19.6188 6.4475 19.5689 6.49787 19.519 6.54824C19.4919 6.55153 19.4644 6.54872 19.4385 6.54001C19.4126 6.5313 19.3889 6.51691 19.3692 6.49787C19.3692 6.49787 18.9199 6.04452 18.4706 6.24601C17.8716 6.4475 17.7218 7.20307 17.6719 7.40456C17.6719 7.45493 17.5721 7.5053 17.5221 7.5053C17.4722 7.5053 17.4223 7.40456 17.4223 7.35419C17.4722 7.10233 17.6719 6.24601 18.3708 5.99415C18.5487 5.94046 18.7369 5.93073 18.9193 5.9658C19.1018 6.00087 19.2732 6.0797 19.4191 6.19564C19.4916 6.04421 19.6051 5.91657 19.7464 5.82744C19.8878 5.73831 20.0512 5.69133 20.2179 5.69192C20.5912 5.72761 20.9422 5.88702 21.2163 6.14527C21.3704 5.9851 21.5578 5.86137 21.7649 5.78298C21.9721 5.7046 22.1939 5.6735 22.4144 5.69192C22.5983 5.71112 22.771 5.79039 22.9061 5.91768C23.0413 6.04497 23.1316 6.21332 23.1632 6.39713C23.3331 6.30917 23.5214 6.2633 23.7123 6.2633C23.9033 6.2633 24.0915 6.30917 24.2615 6.39713C24.3746 6.48385 24.4622 6.59997 24.5149 6.73305C24.5677 6.86614 24.5836 7.01119 24.561 7.1527C24.7746 7.09962 24.9971 7.09467 25.2128 7.1382C25.4285 7.18173 25.6321 7.27267 25.809 7.40456C25.9206 7.52378 26.0017 7.66868 26.0452 7.82669C26.0887 7.9847 26.0933 8.15103 26.0586 8.31125C26.2215 8.27877 26.39 8.28956 26.5475 8.34254C26.705 8.39552 26.8462 8.48888 26.9572 8.61348C27.0136 8.72108 27.0472 8.83936 27.0557 8.96077C27.0643 9.08219 27.0478 9.20408 27.0071 9.31868C27.1239 9.33665 27.2347 9.38263 27.3303 9.45274C27.4258 9.52286 27.5033 9.61507 27.5562 9.72165C27.6161 9.98961 27.5988 10.2692 27.5063 10.5276C27.7467 10.6181 27.9433 10.7985 28.0555 11.0313C28.133 11.2072 28.1689 11.399 28.1603 11.5914C28.1516 11.7837 28.0986 11.9714 28.0055 12.1395C28.1054 12.1395 28.0554 12.1899 28.0055 12.1899Z" fill="#011F5B"/>
<path d="M27.3067 14.1041C27.2677 14.1017 27.231 14.085 27.2034 14.0572C27.1758 14.0293 27.1593 13.9923 27.1569 13.953C27.2068 13.4492 26.9073 13.3485 26.6577 13.2478C26.6078 13.2478 26.5079 13.1974 26.458 13.1974C26.3082 13.0966 26.3082 12.9455 26.3082 12.744C26.3306 12.531 26.2776 12.3169 26.1585 12.1396C25.9089 11.8373 25.4097 12.0388 25.4097 12.0388H25.2599C25.241 12.0189 25.2268 11.9951 25.2181 11.9689C25.2095 11.9428 25.2067 11.9151 25.21 11.8877C25.2364 11.7352 25.2276 11.5787 25.1843 11.4301C25.141 11.2816 25.0644 11.1452 24.9604 11.0314C24.8227 10.938 24.6665 10.8761 24.5027 10.85C24.3388 10.8239 24.1713 10.8342 24.0119 10.8803C23.962 10.8803 23.912 10.8803 23.912 10.8299C23.912 10.7795 23.8621 10.7795 23.8621 10.7292C23.8918 10.5693 23.8689 10.4039 23.7968 10.2584C23.7246 10.1129 23.6073 9.99519 23.4627 9.92323C23.3608 9.85398 23.2426 9.8129 23.1199 9.80406C22.9973 9.79522 22.8746 9.81894 22.7638 9.87286C22.1648 10.1751 21.9651 10.2255 21.3661 9.77211C21.293 9.70479 21.205 9.65598 21.1096 9.6297C21.0141 9.60343 20.9138 9.60044 20.8169 9.621C20.6751 9.66347 20.546 9.741 20.4414 9.84656C20.3368 9.95211 20.26 10.0823 20.2179 10.2255C20.168 10.2758 20.118 10.3262 20.0182 10.2758C19.9184 10.2255 19.9184 10.1751 19.9683 10.0743C20.0388 9.89729 20.1469 9.73793 20.2848 9.60742C20.4228 9.4769 20.5874 9.37839 20.767 9.31877C20.9067 9.29312 21.0502 9.29783 21.1879 9.33257C21.3257 9.36731 21.4545 9.4313 21.5657 9.52025C22.065 9.87286 22.2147 9.87286 22.664 9.621C22.8201 9.54011 22.9946 9.50218 23.1699 9.51102C23.3452 9.51986 23.5151 9.57517 23.6624 9.67137C23.8158 9.76653 23.9423 9.89993 24.0297 10.0587C24.1172 10.2175 24.1626 10.3964 24.1616 10.5781C24.5237 10.5043 24.9001 10.5767 25.21 10.7795C25.3296 10.8963 25.4228 11.0378 25.4831 11.1943C25.5434 11.3508 25.5695 11.5186 25.5594 11.6862C25.7101 11.6442 25.8694 11.6456 26.0193 11.6901C26.1693 11.7346 26.3039 11.8205 26.4081 11.9381C26.5504 12.166 26.636 12.4252 26.6577 12.6937V12.8952C26.7076 12.8952 26.7076 12.9455 26.8074 12.9455C26.9194 12.9643 27.0265 13.0055 27.1225 13.0666C27.2184 13.1276 27.3014 13.2074 27.3665 13.3012C27.4315 13.395 27.4774 13.501 27.5014 13.6129C27.5255 13.7248 27.5271 13.8404 27.5063 13.953C27.4564 14.0537 27.4065 14.1041 27.3067 14.1041Z" fill="#011F5B"/>
<path d="M13.7283 12.6432C13.7316 12.6705 13.7288 12.6982 13.7202 12.7244C13.7115 12.7505 13.6973 12.7744 13.6784 12.7943L13.5286 12.9454C13.4457 12.9904 13.375 13.0553 13.3228 13.1343C13.2705 13.2134 13.2384 13.3042 13.2291 13.3987V14.0536H3.44461V13.3987C3.44303 13.3021 3.41395 13.2081 3.36084 13.1277C3.30773 13.0473 3.23284 12.984 3.14509 12.9454C3.09517 12.895 2.99533 12.8447 2.99533 12.7943C2.97646 12.7744 2.96219 12.7505 2.95356 12.7244C2.94493 12.6982 2.94214 12.6705 2.94541 12.6432C2.94214 12.6158 2.94493 12.5881 2.95356 12.562C2.96219 12.5358 2.97646 12.512 2.99533 12.4921L3.14509 12.3409C3.22803 12.296 3.29874 12.2311 3.35097 12.152C3.40321 12.073 3.43536 11.9821 3.44461 11.8876V9.06678C3.44303 8.97019 3.41395 8.8761 3.36084 8.79572C3.30773 8.71534 3.23284 8.65207 3.14509 8.61344C3.09517 8.56307 2.99533 8.5127 2.99533 8.46232C2.97646 8.44242 2.96219 8.41855 2.95356 8.39242C2.94493 8.36629 2.94214 8.33855 2.94541 8.31121C2.94214 8.28386 2.94493 8.25613 2.95356 8.23C2.96219 8.20387 2.97646 8.18 2.99533 8.16009L3.14509 8.00898C3.22803 7.964 3.29874 7.89912 3.35097 7.82006C3.40321 7.741 3.43536 7.65019 3.44461 7.55564V6.9008H4.19343V13.4491H7.78773C7.82169 13.5821 7.89952 13.6995 8.00841 13.7819C8.11729 13.8643 8.25074 13.9068 8.38678 13.9025C8.52101 13.8993 8.65091 13.854 8.75832 13.7727C8.86573 13.6914 8.94528 13.5783 8.98583 13.4491H12.5302V6.9008H13.279V7.55564C13.2806 7.65223 13.3097 7.74632 13.3628 7.8267C13.4159 7.90708 13.4908 7.97035 13.5786 8.00898L13.7283 8.16009C13.7472 8.18 13.7615 8.20387 13.7701 8.23C13.7787 8.25613 13.7815 8.28386 13.7782 8.31121C13.7815 8.33855 13.7787 8.36629 13.7701 8.39242C13.7615 8.41855 13.7472 8.44242 13.7283 8.46232L13.5786 8.61344C13.4956 8.65842 13.4249 8.7233 13.3727 8.80236C13.3204 8.88142 13.2883 8.97223 13.279 9.06678V11.8876C13.2806 11.9842 13.3097 12.0783 13.3628 12.1587C13.4159 12.239 13.4908 12.3023 13.5786 12.3409L13.7283 12.4921C13.7782 12.5424 13.7283 12.5928 13.7283 12.6432ZM4.89232 6.59858C5.05209 6.53425 5.20307 6.44961 5.34161 6.34672C5.65373 6.09404 6.03979 5.95238 6.43987 5.94374C6.82274 5.9667 7.19672 6.06961 7.53813 6.24597C7.74077 6.35177 7.96057 6.42001 8.1871 6.44746V12.1898H8.13718C7.75886 12.2381 7.38916 12.3399 7.03892 12.4921L6.58963 12.6432C6.16814 12.7651 5.72962 12.8161 5.29169 12.7943C5.02445 12.7843 4.75688 12.8012 4.49295 12.8447V6.80006C4.60929 6.70334 4.74583 6.63446 4.89232 6.59858ZM9.08568 6.1956C9.42708 6.01924 9.80106 5.91633 10.1839 5.89337C10.5671 5.91103 10.9346 6.05228 11.2323 6.29635C11.3708 6.39924 11.5218 6.48388 11.6816 6.5482L12.1309 6.69932V12.7439C11.8669 12.7004 11.5994 12.6836 11.3321 12.6935C10.894 12.7211 10.4546 12.6699 10.0342 12.5424L9.58489 12.3913C9.225 12.2689 8.85828 12.168 8.48663 12.0891V6.34672C8.69773 6.36933 8.90995 6.3158 9.08568 6.1956ZM13.6784 12.0891C13.5786 11.9883 13.4787 11.938 13.4787 11.8372V9.01641C13.4787 8.91567 13.5286 8.8653 13.6784 8.76455C13.7283 8.71418 13.8282 8.66381 13.8781 8.56307C13.9405 8.45601 13.9749 8.33465 13.9779 8.21047C13.9681 8.08742 13.9342 7.96757 13.8781 7.85786C13.8282 7.75712 13.7283 7.70675 13.6784 7.65638C13.6285 7.60601 13.4787 7.50526 13.4787 7.40452V6.39709H13.279C12.7914 6.43298 12.3013 6.38183 11.8313 6.24597C11.6816 6.19244 11.5453 6.10648 11.432 5.99412C11.0725 5.71625 10.6364 5.55785 10.1839 5.54077C9.76822 5.55732 9.36036 5.6602 8.98583 5.843C8.79753 5.94066 8.5955 6.00861 8.38678 6.04449H8.28694C8.07644 6.01608 7.87318 5.94771 7.68789 5.843C7.31337 5.6602 6.9055 5.55732 6.48979 5.54077C6.03905 5.56676 5.60549 5.72425 5.24177 5.99412C5.11299 6.08489 4.97969 6.16895 4.8424 6.24597C4.37239 6.38183 3.88231 6.43298 3.39469 6.39709H3.19501V7.40452C3.19501 7.50526 3.14509 7.55564 2.99533 7.65638L2.79564 7.85786C2.73319 7.96492 2.69882 8.08628 2.6958 8.21047C2.70561 8.33351 2.73955 8.45337 2.79564 8.56307C2.84556 8.66381 2.94541 8.71418 2.99533 8.76455C3.04525 8.81493 3.19501 8.91567 3.19501 9.01641V11.8372C3.19501 11.938 3.14509 11.9883 2.99533 12.0891L2.79564 12.2906C2.73319 12.3976 2.69882 12.519 2.6958 12.6432C2.70561 12.7662 2.73955 12.8861 2.79564 12.9958C2.84556 13.0965 2.94541 13.1469 2.99533 13.1973C3.04525 13.2476 3.19501 13.3484 3.19501 13.4491V14.4062H13.5786V13.4491C13.5786 13.3484 13.6285 13.298 13.7782 13.1973L13.9779 12.9958C14.0404 12.8887 14.0747 12.7674 14.0778 12.6432C14.068 12.5201 14.034 12.4003 13.9779 12.2906C13.8821 12.2175 13.7821 12.1503 13.6784 12.0891Z" fill="#011F5B"/>
<path d="M45.7277 12.6432C45.731 12.6705 45.7282 12.6982 45.7196 12.7244C45.7109 12.7505 45.6967 12.7744 45.6778 12.7943L45.528 12.9454C45.4451 12.9904 45.3744 13.0553 45.3221 13.1343C45.2699 13.2134 45.2377 13.3042 45.2285 13.3987V14.0536H35.444V13.3987C35.4424 13.3021 35.4133 13.2081 35.3602 13.1277C35.3071 13.0473 35.2322 12.984 35.1445 12.9454L34.9947 12.7943C34.9759 12.7744 34.9616 12.7505 34.953 12.7244C34.9443 12.6982 34.9415 12.6705 34.9448 12.6432C34.9415 12.6158 34.9443 12.5881 34.953 12.562C34.9616 12.5358 34.9759 12.512 34.9947 12.4921L35.1445 12.3409C35.2274 12.296 35.2981 12.2311 35.3504 12.152C35.4026 12.073 35.4348 11.9821 35.444 11.8876V9.06678C35.4424 8.97019 35.4133 8.8761 35.3602 8.79572C35.3071 8.71534 35.2322 8.65207 35.1445 8.61344L34.9947 8.46232C34.9759 8.44242 34.9616 8.41855 34.953 8.39242C34.9443 8.36629 34.9415 8.33855 34.9448 8.31121C34.9415 8.28386 34.9443 8.25613 34.953 8.23C34.9616 8.20387 34.9759 8.18 34.9947 8.16009L35.1445 8.00898C35.2274 7.964 35.2981 7.89912 35.3504 7.82006C35.4026 7.741 35.4348 7.65019 35.444 7.55564V6.9008H36.1928V13.4491H39.7871C39.8211 13.5821 39.8989 13.6995 40.0078 13.7819C40.1167 13.8643 40.2501 13.9068 40.3862 13.9025C40.5163 13.9057 40.6433 13.8617 40.744 13.7785C40.8448 13.6953 40.9127 13.5785 40.9353 13.4491H44.5296V6.9008H45.2784V7.55564C45.28 7.65223 45.3091 7.74632 45.3622 7.8267C45.4153 7.90708 45.4902 7.97035 45.5779 8.00898L45.7277 8.16009C45.7466 8.18 45.7608 8.20387 45.7695 8.23C45.7781 8.25613 45.7809 8.28386 45.7776 8.31121C45.7809 8.33855 45.7781 8.36629 45.7695 8.39242C45.7608 8.41855 45.7466 8.44242 45.7277 8.46232L45.5779 8.61344C45.495 8.65842 45.4243 8.7233 45.3721 8.80236C45.3198 8.88142 45.2877 8.97223 45.2784 9.06678V11.8876C45.28 11.9842 45.3091 12.0783 45.3622 12.1587C45.4153 12.239 45.4902 12.3023 45.5779 12.3409L45.7277 12.4921C45.7391 12.501 45.7483 12.5125 45.7547 12.5256C45.761 12.5386 45.7643 12.553 45.7643 12.5676C45.7643 12.5822 45.761 12.5966 45.7547 12.6097C45.7483 12.6228 45.7391 12.6342 45.7277 12.6432ZM36.9416 6.59858C37.1014 6.53425 37.2524 6.44961 37.3909 6.34672C37.6886 6.10265 38.0561 5.96141 38.4393 5.94374C38.8221 5.9667 39.1961 6.06961 39.5375 6.24597C39.7402 6.35177 39.96 6.42001 40.1865 6.44746V12.1898H40.1366C39.7583 12.2381 39.3886 12.3399 39.0383 12.4921L38.589 12.6432C38.1675 12.7651 37.729 12.8161 37.2911 12.7943C37.0238 12.7843 36.7563 12.8012 36.4923 12.8447V6.80006C36.6304 6.70902 36.7821 6.64099 36.9416 6.59858ZM41.135 6.1956C41.4764 6.01924 41.8504 5.91633 42.2332 5.89337C42.6164 5.91103 42.9839 6.05228 43.2816 6.29635C43.4201 6.39924 43.5711 6.48388 43.7309 6.5482L44.1802 6.69932V12.7439C43.9162 12.7004 43.6487 12.6836 43.3814 12.6935C42.9433 12.7211 42.5039 12.6699 42.0835 12.5424L41.6342 12.3913C41.2743 12.2689 40.9076 12.168 40.5359 12.0891V6.34672C40.6857 6.39709 40.8854 6.29635 41.135 6.1956ZM45.7277 12.0891C45.6279 11.9883 45.528 11.938 45.528 11.8372V9.01641C45.528 8.91567 45.5779 8.8653 45.7277 8.76455C45.7776 8.71418 45.8775 8.66381 45.9274 8.56307C45.9898 8.45601 46.0242 8.33465 46.0272 8.21047C46.0174 8.08742 45.9835 7.96757 45.9274 7.85786C45.8775 7.75712 45.7776 7.70675 45.7277 7.65638C45.6778 7.60601 45.528 7.50526 45.528 7.40452V6.39709H45.3283C44.8407 6.43298 44.3506 6.38183 43.8806 6.24597C43.7309 6.19244 43.5946 6.10648 43.4813 5.99412C43.1218 5.71625 42.6857 5.55785 42.2332 5.54077C41.8175 5.55732 41.4097 5.6602 41.0351 5.843C40.8468 5.94066 40.6448 6.00861 40.4361 6.04449H40.3363C40.1258 6.01608 39.9225 5.94771 39.7372 5.843C39.3627 5.6602 38.9548 5.55732 38.5391 5.54077C38.0866 5.55785 37.6505 5.71625 37.2911 5.99412C37.1623 6.08489 37.029 6.16895 36.8917 6.24597C36.4211 6.37883 35.9316 6.42993 35.444 6.39709H35.2443V7.40452C35.2443 7.50526 35.1944 7.55564 35.0446 7.65638L34.845 7.85786C34.7825 7.96492 34.7481 8.08628 34.7451 8.21047C34.7549 8.33351 34.7889 8.45337 34.845 8.56307C34.8949 8.66381 34.9947 8.71418 35.0446 8.76455C35.0946 8.81493 35.2443 8.91567 35.2443 9.01641V11.8372C35.2443 11.938 35.1944 11.9883 35.0446 12.0891L34.845 12.2906C34.7825 12.3976 34.7481 12.519 34.7451 12.6432C34.7549 12.7662 34.7889 12.8861 34.845 12.9958C34.8949 13.0965 34.9947 13.1469 35.0446 13.1973C35.0946 13.2476 35.2443 13.3484 35.2443 13.4491V14.4062H45.6279V13.4491C45.6279 13.3484 45.6778 13.298 45.8276 13.1973L46.0272 12.9958C46.0897 12.8887 46.1241 12.7674 46.1271 12.6432C46.1173 12.5201 46.0833 12.4003 46.0272 12.2906C45.9234 12.2296 45.8234 12.1623 45.7277 12.0891Z" fill="#011F5B"/>
<path d="M44.4794 37.9298L24.3114 18.2849L4.14332 37.9298C2.44365 34.3256 1.55708 30.3861 1.54743 26.3947V17.6804H47.0753V26.3947C47.1201 30.3921 46.2308 34.3439 44.4794 37.9298ZM38.0396 39.995C37.2793 40.7457 36.2579 41.1661 35.1941 41.1661C34.1304 41.1661 33.1089 40.7457 32.3486 39.995C31.9749 39.618 31.6784 39.1704 31.4761 38.6778C31.2739 38.1851 31.1698 37.6571 31.1698 37.1239C31.1698 36.5906 31.2739 36.0626 31.4761 35.5699C31.6784 35.0773 31.9749 34.6297 32.3486 34.2527C33.1089 33.502 34.1304 33.0816 35.1941 33.0816C36.2579 33.0816 37.2793 33.502 38.0396 34.2527C38.4169 34.6276 38.7166 35.0746 38.9211 35.5675C39.1257 36.0604 39.231 36.5895 39.231 37.1239C39.231 37.6582 39.1257 38.1873 38.9211 38.6802C38.7166 39.1731 38.4169 39.6201 38.0396 39.995ZM20.3177 27.0999C20.3177 26.3029 20.5519 25.5238 20.9907 24.8611C21.4296 24.1984 22.0533 23.6819 22.783 23.3769C23.5128 23.0719 24.3158 22.9921 25.0905 23.1476C25.8652 23.3031 26.5768 23.6869 27.1353 24.2505C27.6938 24.814 28.0742 25.5321 28.2283 26.3137C28.3824 27.0954 28.3033 27.9057 28.001 28.642C27.6988 29.3784 27.1869 30.0077 26.5301 30.4505C25.8734 30.8933 25.1012 31.1296 24.3114 31.1296C23.2522 31.1296 22.2364 30.7051 21.4874 29.9494C20.7384 29.1936 20.3177 28.1687 20.3177 27.0999ZM36.8415 48.2056C31.45 53.2931 25.809 55.8117 24.3114 56.2147C22.8137 55.8117 17.1727 53.2931 11.7812 48.2056L11.3818 47.8026L24.3114 33.9504L37.2409 47.8026C37.1206 47.9493 36.9869 48.0843 36.8415 48.2056ZM10.5831 39.995C10.2094 39.618 9.91302 39.1704 9.71079 38.6777C9.50856 38.1851 9.40447 37.6571 9.40447 37.1239C9.40447 36.5906 9.50856 36.0626 9.71079 35.57C9.91302 35.0773 10.2094 34.6297 10.5831 34.2527C10.9568 33.8756 11.4004 33.5765 11.8886 33.3725C12.3769 33.1684 12.9001 33.0634 13.4286 33.0634C13.9571 33.0634 14.4803 33.1684 14.9686 33.3725C15.4568 33.5765 15.9004 33.8756 16.2741 34.2527C17.0288 35.0142 17.4527 36.047 17.4527 37.1239C17.4527 38.2008 17.0288 39.2336 16.2741 39.995C15.5194 40.7565 14.4959 41.1843 13.4286 41.1843C12.3613 41.1843 11.3378 40.7565 10.5831 39.995ZM47.0753 17.0256H1.54743V3.47563H47.0753V17.0256ZM47.7243 2.8208H0.898458V26.3443C0.848538 36.6705 6.53952 44.1759 11.3319 48.6589C16.5237 53.545 22.4144 56.4162 24.2614 56.8695H24.3613C26.2084 56.4665 32.0491 53.545 37.2908 48.6589C42.0832 44.1759 47.7742 36.6705 47.7243 26.3443V2.8208Z" fill="#011F5B"/>
<path d="M56.8096 52.1345C56.8096 54.4516 57.4586 56.2146 59.9047 56.2146C62.1511 56.2146 63.3492 54.7034 63.3492 52.0337V47.3995C63.3462 47.0947 63.3128 46.7909 63.2494 46.4928C63.1495 45.8884 62.6004 45.6869 61.8516 45.5862V45.1328H65.7454V45.5862C64.9467 45.6869 64.3976 45.8884 64.3476 46.4928C64.2842 46.7909 64.2508 47.0947 64.2478 47.3995V52.0841C64.2478 55.6605 62.0014 56.9701 59.8548 56.9701C56.3603 56.9701 55.262 55.1568 55.262 52.1848V47.2484C55.262 45.6869 55.312 45.7876 53.8643 45.5862V45.1328H58.3072V45.5862C56.8096 45.7876 56.9094 45.6869 56.9094 47.2484L56.8096 52.1345Z" fill="white"/>
<path d="M75.0312 56.8695C73.0343 54.4517 70.9376 51.9331 68.8409 49.4649V55.1569C68.8461 55.3952 68.8796 55.6319 68.9408 55.8621C68.9907 56.3155 69.44 56.5169 70.2887 56.5673V56.9199H67.1436V56.5673C67.7427 56.5169 68.192 56.3155 68.2419 55.8621C68.2419 55.6606 68.2918 55.4591 68.2918 55.1569V49.1123C68.1338 48.8539 67.9137 48.6399 67.6519 48.4902C67.3901 48.3405 67.0951 48.26 66.7942 48.256V47.9034H69.0905L74.8315 54.9051V49.616C74.8315 49.3642 74.7815 49.1123 74.7815 48.9108C74.7316 48.4575 74.2823 48.256 73.4337 48.2056V47.853H76.5787V48.2056C75.9796 48.256 75.5304 48.4575 75.4804 48.9108C75.4804 49.1123 75.4305 49.3138 75.4305 49.616V56.8695H75.0312Z" fill="white"/>
<path d="M81.3211 55.2577C81.3211 56.4666 81.2712 56.3658 82.4194 56.5169V56.8695H78.9749V56.5169C80.123 56.3658 80.0731 56.4666 80.0731 55.2577V49.4649C80.0731 48.256 80.123 48.3567 78.9749 48.2056V47.853H82.4194V48.2056C81.2712 48.3567 81.3211 48.256 81.3211 49.4649V55.2577Z" fill="white"/>
<path d="M87.9106 48.2055C87.2117 48.2055 86.7125 48.407 87.1119 49.6663C87.6111 51.1775 88.3599 53.3938 89.0089 55.3583L91.4051 49.4648C91.7046 48.6589 91.4051 48.2559 90.5065 48.2559V47.9033H93.2521V48.2559C93.0208 48.2544 92.7949 48.3266 92.6066 48.4623C92.4184 48.598 92.2774 48.7902 92.2038 49.0115C91.1555 51.6308 90.0572 54.2501 89.0089 56.8695H88.3599C87.6111 54.6531 86.7125 52.1849 85.9637 50.0189C85.5144 48.6589 85.115 48.2559 84.4661 48.2559V47.9033H87.9106V48.2055Z" fill="white"/>
<path d="M95.2491 56.5169C96.3973 56.3658 96.3473 56.4666 96.3473 55.2577V49.4649C96.3473 48.256 96.3973 48.3064 95.2491 48.2056V47.853H100.94V49.9183H100.591C100.441 48.9612 100.191 48.256 99.2927 48.256H97.5954V51.9331H98.6437C99.4424 51.9331 99.7919 51.6309 99.7919 50.825H100.141V53.545H99.7919C99.7919 52.7894 99.4924 52.3361 98.6437 52.3361H97.5954V55.2577C97.5954 56.3658 98.0946 56.4666 99.2428 56.4666C101.09 56.4666 100.99 55.9629 101.589 54.5524H101.938L101.539 56.8695H95.299V56.5169H95.2491Z" fill="white"/>
<path d="M106.381 52.4368H107.43C108.528 52.4368 109.027 51.5805 109.027 50.1701C109.027 48.7597 108.278 48.256 107.33 48.256H106.331L106.381 52.4368ZM104.085 47.853H107.779C109.077 47.853 110.325 48.5582 110.325 50.019C110.33 50.5893 110.16 51.1471 109.838 51.616C109.516 52.0849 109.059 52.442 108.528 52.6383L109.776 54.5525C110.266 55.3451 110.872 56.0584 111.573 56.6681V56.8192H110.275C109.526 56.8192 109.127 55.4088 107.579 52.8398H106.381V55.2073C106.381 56.4162 106.331 56.3155 107.48 56.4666V56.8192H104.085V56.4666C105.233 56.3155 105.183 56.4162 105.183 55.2073V49.4145C105.183 48.2056 105.233 48.3064 104.085 48.1553V47.853Z" fill="white"/>
<path d="M118.013 49.7672C117.913 48.8605 117.414 48.1553 116.415 48.1553C116.235 48.1349 116.053 48.1539 115.881 48.2111C115.709 48.2682 115.551 48.3622 115.419 48.4865C115.286 48.6109 115.181 48.7627 115.112 48.9315C115.043 49.1004 115.011 49.2824 115.018 49.465C115.018 50.3717 115.916 50.9258 117.164 51.8828C118.512 52.8902 118.961 53.5451 118.961 54.6029C118.961 56.114 117.414 56.9703 115.866 56.9703C115.116 56.9679 114.373 56.8314 113.67 56.5674C113.62 56.5674 113.57 56.517 113.57 56.3659V54.5021H113.919C114.069 55.9125 114.968 56.517 115.966 56.517C116.179 56.521 116.391 56.4824 116.59 56.4034C116.788 56.3245 116.969 56.2067 117.122 56.0569C117.275 55.9071 117.397 55.7282 117.482 55.5305C117.566 55.3328 117.611 55.1203 117.613 54.9051C117.613 54.0992 117.164 53.394 115.267 52.1347C114.568 51.6813 113.72 51.1776 113.72 49.7672C113.72 48.6087 114.968 47.702 116.465 47.702C117.074 47.6865 117.681 47.7716 118.262 47.9538C118.362 47.9538 118.362 48.0042 118.362 48.1049V49.8176H118.013V49.7672Z" fill="white"/>
<path d="M123.954 55.2577C123.954 56.4666 123.904 56.3658 125.052 56.5169V56.8695H121.607V56.5169C122.756 56.3658 122.706 56.4666 122.706 55.2577V49.4649C122.706 48.256 122.756 48.3567 121.607 48.2056V47.853H125.052V48.2056C123.904 48.3567 123.954 48.256 123.954 49.4649V55.2577Z" fill="white"/>
<path d="M131.541 55.2576C131.541 56.4665 131.492 56.3658 132.64 56.5169V56.8695H129.195V56.5169C130.343 56.3658 130.293 56.4665 130.293 55.2576V48.3063H129.145C128.047 48.3063 127.797 49.0115 127.348 49.8678H127.049L127.398 47.9033H134.437L134.786 49.8678H134.487C134.087 49.0115 133.838 48.3063 132.69 48.3063H131.541V55.2576Z" fill="white"/>
<path d="M138.481 56.5169C139.629 56.3658 139.579 56.4666 139.579 55.2577V53.2932L137.632 49.3642C137.233 48.5079 136.883 48.2056 136.284 48.2056V47.853H139.529V48.2056C138.58 48.2056 138.63 48.7093 138.98 49.3642L140.527 52.588L142.275 49.3642C142.724 48.5582 142.275 48.2056 141.526 48.2056V47.853H144.172V48.2056C143.822 48.2056 143.473 48.3567 143.123 48.9612L140.977 52.8398C140.846 53.1407 140.795 53.4702 140.827 53.7969V55.2577C140.827 56.4666 140.777 56.3658 141.925 56.5169V56.8695H138.481V56.5169Z" fill="white"/>
<path d="M156.402 50.5227C156.402 48.8101 155.354 48.7094 155.104 48.7094C153.307 48.7094 152.159 51.9332 152.159 54.0991C152.159 54.9554 152.309 56.517 153.507 56.517C155.404 56.517 156.402 53.4443 156.402 50.5227ZM150.611 53.7465C150.611 51.5805 152.458 48.3064 155.204 48.3064C157.4 48.3064 157.9 49.8175 157.9 51.3287C157.9 53.1421 156.452 57.0711 153.307 57.0711C151.21 57.0207 150.611 55.3584 150.611 53.7465Z" fill="white"/>
<path d="M165.588 48.8604L165.188 49.213H163.042C162.246 53.1965 161.23 57.1317 159.997 61H159.248L161.594 49.213H159.997L160.146 48.5078H161.694C162.543 44.9818 165.488 44.5789 166.137 44.5789C166.536 44.5789 167.335 44.6292 167.585 44.8811L167.385 45.9893L166.985 46.1907C166.85 45.9162 166.644 45.6829 166.39 45.5147C166.135 45.3466 165.841 45.2496 165.538 45.2337C164.539 45.2337 163.791 45.9389 163.391 47.7019L163.191 48.5078H165.638L165.588 48.8604Z" fill="white"/>
<path d="M175.472 54.7538C175.472 56.3153 175.422 56.2146 176.87 56.416V56.8694H172.477V56.416C173.974 56.2146 173.874 56.3153 173.874 54.7538V47.2484C173.874 45.6869 173.924 45.7876 172.477 45.5862V45.1328H176.77C179.515 45.1328 180.863 46.241 180.863 48.2055C180.863 50.6233 178.717 51.8826 176.171 51.7315V51.4293C178.217 51.4796 179.166 50.2203 179.166 48.407C179.166 46.5936 178.267 45.6869 176.42 45.6869H175.422L175.472 54.7538Z" fill="white"/>
<path d="M183.16 56.5169C184.308 56.3658 184.258 56.4666 184.258 55.2577V49.4649C184.258 48.256 184.308 48.3064 183.16 48.2056V47.853H188.851V49.9183H188.551C188.401 48.9612 188.152 48.256 187.253 48.256H185.506V51.9331H186.554C187.353 51.9331 187.702 51.6309 187.702 50.825H188.052V53.545H187.702C187.702 52.7894 187.403 52.3361 186.554 52.3361H185.506V55.2577C185.506 56.3658 186.005 56.4666 187.153 56.4666C189 56.4666 188.901 55.9629 189.5 54.5524H189.849L189.45 56.8695H183.21L183.16 56.5169Z" fill="white"/>
<path d="M199.684 56.8695C197.687 54.4517 195.54 51.9331 193.494 49.4649V55.1569C193.494 55.4088 193.544 55.6606 193.544 55.8621C193.593 56.3155 194.043 56.5169 194.891 56.5673V56.9199H191.796V56.5673C192.395 56.5169 192.845 56.3155 192.895 55.8621C192.959 55.6327 192.993 55.3955 192.994 55.1569V49.1123C192.836 48.8539 192.616 48.6399 192.354 48.4902C192.093 48.3405 191.798 48.26 191.497 48.256V47.9034H193.793C195.69 50.2205 197.687 52.588 199.534 54.9051V49.616C199.534 49.3642 199.484 49.1123 199.484 48.9108C199.434 48.4575 198.985 48.256 198.136 48.2056V47.853H201.231V48.2056C200.632 48.256 200.183 48.4575 200.133 48.9108C200.133 49.1123 200.033 49.3138 200.033 49.616V56.8695H199.684Z" fill="white"/>
<path d="M211.315 56.8695C209.318 54.4517 207.172 51.9331 205.125 49.4649V55.1569C205.13 55.3952 205.164 55.6319 205.225 55.8621C205.275 56.3155 205.724 56.5169 206.573 56.5673V56.9199H203.478V56.5673C204.077 56.5169 204.526 56.3155 204.576 55.8621C204.576 55.6606 204.676 55.4591 204.676 55.1569V49.1123C204.518 48.8539 204.298 48.6399 204.036 48.4902C203.774 48.3405 203.479 48.26 203.178 48.256V47.9034H205.474C207.371 50.2205 209.368 52.588 211.215 54.9051V49.616C211.215 49.3642 211.165 49.1123 211.165 48.9108C211.115 48.4575 210.666 48.256 209.817 48.2056V47.853H212.962V48.2056C212.363 48.256 211.914 48.4575 211.864 48.9108C211.799 49.1402 211.766 49.3775 211.764 49.616V56.8695H211.315Z" fill="white"/>
<path d="M219.552 49.7673C219.452 48.8606 218.953 48.1554 217.954 48.1554C217.774 48.1349 217.592 48.154 217.42 48.2111C217.248 48.2683 217.09 48.3623 216.958 48.4866C216.825 48.611 216.72 48.7627 216.651 48.9316C216.582 49.1005 216.55 49.2824 216.557 49.465C216.557 50.3717 217.455 50.9258 218.703 51.8829C220.051 52.8903 220.5 53.5451 220.5 54.6029C220.5 56.1141 218.953 56.9704 217.405 56.9704C216.655 56.9679 215.912 56.8315 215.209 56.5674C215.159 56.5674 215.109 56.5171 215.109 56.366V54.5022H215.458C215.608 55.9126 216.507 56.5171 217.505 56.5171C217.718 56.5211 217.93 56.4825 218.129 56.4035C218.327 56.3245 218.508 56.2068 218.661 56.0569C218.814 55.9071 218.936 55.7282 219.021 55.5306C219.105 55.3329 219.15 55.1204 219.152 54.9052C219.152 54.0992 218.703 53.394 216.806 52.1347C216.107 51.6814 215.259 51.1777 215.259 49.7673C215.259 48.6087 216.507 47.702 218.004 47.702C218.597 47.6831 219.188 47.7684 219.752 47.9539C219.851 47.9539 219.851 48.0043 219.851 48.105V49.8176H219.552V49.7673Z" fill="white"/>
<path d="M224.694 56.5169C225.842 56.3658 225.792 56.4666 225.792 55.2577V53.2932L223.845 49.3642C223.446 48.5079 223.047 48.2056 222.498 48.2056V47.853H225.742V48.2056C224.794 48.2056 224.894 48.7093 225.193 49.3642L226.741 52.588L228.488 49.3642C228.937 48.5582 228.538 48.2056 227.789 48.2056V47.853H230.385V48.2056C230.036 48.2056 229.686 48.3567 229.337 48.9612L227.19 52.8398C227.06 53.1407 227.008 53.4702 227.04 53.7969V55.2577C227.04 56.4666 226.99 56.3658 228.139 56.5169V56.8695H224.694V56.5169Z" fill="white"/>
<path d="M232.532 56.5169C233.68 56.3658 233.63 56.4666 233.63 55.2577V49.4649C233.63 48.256 233.68 48.3064 232.532 48.2056V47.853H235.976V48.2056C234.828 48.3567 234.878 48.3064 234.878 49.4649V55.4591C234.878 56.3658 235.377 56.4666 236.525 56.4666C238.372 56.4666 238.273 55.9629 238.872 54.5524H239.171L238.772 56.8695H232.532V56.5169Z" fill="white"/>
<path d="M242.865 48.2055C242.166 48.2055 241.667 48.407 242.067 49.6663C242.566 51.1775 243.315 53.3938 243.964 55.3583L246.36 49.4648C246.659 48.6589 246.36 48.2559 245.461 48.2559V47.9033H248.207V48.2559C247.975 48.2544 247.75 48.3266 247.561 48.4623C247.373 48.598 247.232 48.7902 247.158 49.0115C246.11 51.6308 245.012 54.2501 243.914 56.8695H243.265C242.516 54.6531 241.617 52.1849 240.868 50.0189C240.369 48.6589 240.02 48.2559 239.371 48.2559V47.9033H242.815V48.2055H242.865Z" fill="white"/>
<path d="M253.648 53.3937L252.3 49.2129L250.802 53.3937H253.648ZM250.553 53.8471L249.954 55.5597C249.908 55.6631 249.889 55.777 249.9 55.8899C249.912 56.0028 249.952 56.1107 250.018 56.2027C250.084 56.2946 250.173 56.3675 250.275 56.4138C250.378 56.4601 250.491 56.4782 250.603 56.4664V56.819H248.306V56.4664C248.504 56.459 248.694 56.3929 248.854 56.2764C249.014 56.1598 249.136 55.9981 249.205 55.8116C249.754 54.653 251.252 50.4722 252.3 47.6514H252.999C253.848 50.2203 255.146 54.1997 255.595 55.3078C255.894 56.0131 256.094 56.416 256.643 56.416V56.7686H253.698V56.416C254.497 56.416 254.596 56.0131 254.347 55.4086L253.798 53.7463L250.553 53.8471Z" fill="white"/>
<path d="M266.228 56.8695C264.181 54.4517 262.085 51.9331 260.038 49.4649V55.1569C260.043 55.3952 260.076 55.6319 260.138 55.8621C260.188 56.3155 260.637 56.5169 261.485 56.5673V56.9199H258.34V56.5673C258.94 56.5169 259.389 56.3155 259.439 55.8621C259.504 55.6327 259.537 55.3955 259.539 55.1569V49.1123C259.381 48.8539 259.16 48.6399 258.899 48.4902C258.637 48.3405 258.342 48.26 258.041 48.256V47.9034H260.337L266.078 54.9051V49.616C266.073 49.3778 266.04 49.141 265.978 48.9108C265.928 48.4575 265.479 48.256 264.63 48.2056V47.853H267.776V48.2056C267.176 48.256 266.727 48.4575 266.677 48.9108C266.677 49.1123 266.577 49.3138 266.577 49.616V56.8695H266.228Z" fill="white"/>
<path d="M272.219 55.2577C272.219 56.4666 272.169 56.3658 273.317 56.5169V56.8695H269.873V56.5169C271.021 56.3658 270.971 56.4666 270.971 55.2577V49.4649C270.971 48.256 271.021 48.3567 269.873 48.2056V47.853H273.317V48.2056C272.169 48.3567 272.219 48.256 272.219 49.4649V55.2577Z" fill="white"/>
<path d="M280.605 53.3937L279.257 49.2129L277.76 53.3937H280.605ZM277.56 53.8471L276.961 55.5597C276.915 55.6631 276.896 55.777 276.908 55.8899C276.919 56.0028 276.96 56.1107 277.025 56.2027C277.091 56.2946 277.18 56.3675 277.283 56.4138C277.385 56.4601 277.498 56.4782 277.61 56.4664V56.819H275.314V56.4664C275.511 56.459 275.701 56.3929 275.861 56.2764C276.021 56.1598 276.143 55.9981 276.212 55.8116C276.761 54.653 278.259 50.4722 279.307 47.6514H280.006C280.855 50.2203 282.153 54.1997 282.602 55.3078C282.902 56.0131 283.101 56.416 283.651 56.416V56.7686H280.705V56.416C281.504 56.416 281.604 56.0131 281.354 55.4086L280.805 53.7463L277.56 53.8471Z" fill="white"/>
<path d="M53.7647 2.8208H64.4977C67.9922 2.8208 70.7877 3.62675 72.8345 5.18827C73.8051 5.87125 74.5949 6.78408 75.1345 7.84672C75.6741 8.90936 75.9471 10.0893 75.9296 11.2832C75.9296 13.7514 75.031 15.6656 73.2339 16.9752C71.4367 18.2849 68.8907 18.9901 65.546 18.9901C64.0274 18.9753 62.5107 18.8744 61.0032 18.6879V26.9992C61.0032 28.8125 61.2528 30.0215 61.7021 30.7267C62.1514 31.4319 63.05 31.7341 64.3479 31.7341V32.5904H53.7647V31.7341C55.0627 31.7341 55.9113 31.3815 56.4105 30.6763C56.9097 29.9711 57.1094 28.7622 57.1094 27.1503V8.51279C57.1094 6.74979 56.8598 5.4905 56.4105 4.78529C55.9612 4.08009 55.0627 3.72749 53.7647 3.72749V2.8208ZM64.6475 3.97935H61.0032V17.2774C62.1817 17.649 63.4134 17.8193 64.6475 17.7812C66.844 17.7812 68.5912 17.2271 69.8892 16.0685C70.5416 15.4745 71.0548 14.7415 71.3915 13.9225C71.7283 13.1035 71.8801 12.2192 71.8361 11.3336C71.9087 9.38888 71.2284 7.49198 69.9391 6.04458C68.6411 4.68455 66.8939 3.97935 64.6475 3.97935Z" fill="white"/>
<path d="M90.1573 27.8555V29.2156C89.2488 30.4525 88.0921 31.4823 86.7627 32.2379C85.4759 32.8778 84.0531 33.1892 82.6192 33.1445C81.3253 33.1892 80.0357 32.9714 78.8266 32.5042C77.6176 32.037 76.5137 31.3298 75.5804 30.4245C74.6669 29.5423 73.9464 28.4771 73.465 27.2974C72.9835 26.1176 72.7519 24.8494 72.7848 23.5739C72.7288 20.9663 73.6772 18.4384 75.4306 16.5219C76.2447 15.6013 77.2457 14.8684 78.3655 14.3729C79.4853 13.8775 80.6978 13.6312 81.9203 13.6507C83.9748 13.6268 85.9593 14.4025 87.4616 15.8167C88.1927 16.4552 88.7802 17.2438 89.1849 18.1299C89.5895 19.016 89.8019 19.979 89.8078 20.9546V21.3576H76.429V21.6094C76.3923 23.4141 76.6973 25.2092 77.3276 26.8985C77.8617 28.3165 78.7997 29.5433 80.0234 30.4245C81.0741 31.2253 82.3509 31.6665 83.6676 31.6838C84.7318 31.7157 85.7846 31.4545 86.7127 30.9282C87.6612 30.4245 88.7595 29.417 90.1573 27.8555ZM76.479 20.4509H86.4132V20.0983C86.4517 19.3824 86.3479 18.666 86.1078 17.9913C85.8678 17.3165 85.4963 16.697 85.0154 16.1693C84.5633 15.6972 84.0197 15.3239 83.4186 15.0726C82.8175 14.8213 82.1716 14.6974 81.521 14.7085C80.8562 14.6799 80.1933 14.8005 79.5804 15.0619C78.9674 15.3232 78.4196 15.7187 77.9766 16.2197C77.0335 17.4276 76.5076 18.9135 76.479 20.4509Z" fill="white"/>
<path d="M96.6468 13.701V17.3782C98.7934 14.9099 100.94 13.701 103.236 13.701C104.053 13.6781 104.866 13.8275 105.623 14.1398C106.379 14.452 107.063 14.9202 107.629 15.5144C108.828 16.7233 109.377 18.3352 109.377 20.2997V28.611C109.377 29.8703 109.576 30.7266 110.026 31.1296C110.475 31.5326 111.274 31.7341 112.472 31.7341V32.5904H102.737V31.7341C103.935 31.7341 104.784 31.5829 105.233 31.2807C105.683 30.9785 105.882 30.374 105.882 29.4673V19.8464C105.904 19.2828 105.814 18.7205 105.616 18.1927C105.419 17.665 105.119 17.1825 104.734 16.7737C104.346 16.3902 103.885 16.0898 103.379 15.8907C102.873 15.6916 102.332 15.5979 101.789 15.6151C100.091 15.6151 98.3441 16.8241 96.5969 19.1915V28.1577C96.5969 29.6688 96.7966 30.6762 97.1959 31.0792C97.5953 31.4822 98.3941 31.6837 99.6421 31.6837V32.54H90.1072V31.6837C91.505 31.6837 92.3536 31.4318 92.6531 31.0288C92.9527 30.6259 93.1524 29.6184 93.1524 28.1577V17.7811C93.1524 16.6729 92.9527 15.9677 92.5533 15.6151C92.1539 15.2625 91.3552 15.1114 90.1072 15.1114V14.2551L95.7982 13.701H96.6468Z" fill="white"/>
<path d="M118.762 13.701V17.3782C120.908 14.9099 123.055 13.701 125.351 13.701C126.168 13.6781 126.981 13.8275 127.738 14.1398C128.494 14.452 129.178 14.9202 129.744 15.5144C130.942 16.7233 131.492 18.3352 131.492 20.2997V28.611C131.492 29.8703 131.691 30.7266 132.141 31.1296C132.59 31.5326 133.389 31.7341 134.587 31.7341V32.5904H124.852V31.7341C126.05 31.7341 126.899 31.5829 127.348 31.2807C127.797 30.9785 127.997 30.374 127.997 29.4673V19.8464C128.019 19.2828 127.929 18.7205 127.731 18.1927C127.534 17.665 127.234 17.1825 126.849 16.7737C126.461 16.3902 126 16.0898 125.494 15.8907C124.987 15.6916 124.447 15.5979 123.904 15.6151C122.206 15.6151 120.459 16.8241 118.712 19.1915V28.1577C118.712 29.6688 118.912 30.6762 119.311 31.0792C119.71 31.4822 120.509 31.6837 121.757 31.6837V32.54H112.172V31.6837C113.57 31.6837 114.419 31.4318 114.718 31.0288C115.018 30.6259 115.217 29.6184 115.217 28.1577V17.7811C115.217 16.6729 115.018 15.9677 114.618 15.6151C114.219 15.2625 113.42 15.1114 112.172 15.1114V14.2551L117.863 13.701H118.762Z" fill="white"/>
<path d="M160.795 26.0925H161.694L159.897 32.5904H138.531V31.7341C139.024 31.7726 139.52 31.687 139.973 31.4848C140.426 31.2826 140.822 30.9702 141.126 30.5755C141.626 29.82 141.875 28.5607 141.875 26.7473V8.05945C141.875 6.44756 141.626 5.33938 141.176 4.68455C140.727 4.02972 139.828 3.72749 138.531 3.72749V2.8208H149.064V3.67712C147.866 3.67712 147.067 4.02972 146.568 4.78529C146.069 5.54087 145.819 6.69941 145.819 8.36168V28.2081C145.819 29.3163 146.069 30.0718 146.518 30.4748C146.967 30.8778 147.866 31.0793 149.164 31.0793H155.004C156.802 31.0793 158.05 30.777 158.798 30.1222C159.547 29.4674 160.196 28.1577 160.795 26.0925Z" fill="white"/>
<path d="M167.834 13.701H168.733V29.1651C168.733 30.1725 168.932 30.8777 169.382 31.18C169.831 31.4822 170.63 31.6837 171.778 31.6837V32.54H161.794V31.6837C163.241 31.6837 164.19 31.5326 164.589 31.18C164.989 30.8274 165.238 30.1725 165.238 29.1147V17.7811C165.238 16.6729 165.039 15.9174 164.639 15.5648C164.24 15.2122 163.291 15.0107 161.794 15.0107V14.1544L167.834 13.701ZM167.035 4.18079C167.325 4.1701 167.613 4.22313 167.881 4.33621C168.148 4.44929 168.388 4.6197 168.583 4.83562C168.793 5.03602 168.959 5.27841 169.071 5.54729C169.183 5.81617 169.237 6.10563 169.232 6.39714C169.238 6.69617 169.183 6.99327 169.072 7.27036C168.96 7.54746 168.794 7.79877 168.583 8.00903C168.384 8.22081 168.144 8.38844 167.878 8.5012C167.611 8.61395 167.324 8.66936 167.035 8.66386C166.739 8.66967 166.445 8.61461 166.17 8.50204C165.895 8.38947 165.646 8.22174 165.438 8.00903C165.22 7.80127 165.047 7.55154 164.926 7.27465C164.806 6.99775 164.743 6.69935 164.739 6.39714C164.728 6.10494 164.781 5.81391 164.893 5.54425C165.005 5.2746 165.174 5.0328 165.388 4.83562C165.833 4.4118 166.423 4.1773 167.035 4.18079Z" fill="white"/>
<path d="M176.171 0H177.069V16.4211C177.849 15.557 178.802 14.8702 179.865 14.4063C180.912 13.9121 182.054 13.6543 183.21 13.6507C184.331 13.6337 185.443 13.8535 186.474 14.2959C187.506 14.7383 188.434 15.3936 189.2 16.2197C190.008 17.0585 190.641 18.0526 191.061 19.1428C191.481 20.233 191.68 21.3972 191.646 22.5665C191.684 23.9494 191.407 25.3226 190.836 26.5803C190.265 27.8379 189.415 28.9463 188.352 29.82C186.155 31.7341 183.11 32.6408 179.216 32.6408C177.325 32.5961 175.439 32.4109 173.575 32.0867V4.53344C173.575 3.07267 173.375 2.21635 173.026 1.86375C172.676 1.51115 171.778 1.36003 170.33 1.36003V0.503716L176.171 0ZM177.069 17.7812V28.2585C177.069 29.6185 177.319 30.5756 177.768 31.0793C178.218 31.583 179.016 31.8348 180.165 31.8348C182.511 31.8348 184.408 31.0793 185.756 29.5178C187.104 27.9562 187.802 25.8406 187.802 23.0702C187.802 20.7531 187.203 18.839 186.005 17.3782C184.807 15.9174 183.409 15.1618 181.712 15.1618C180.015 15.1618 178.467 16.0182 177.069 17.7812Z" fill="white"/>
<path d="M198.385 13.7012V17.6805C199.613 16.5689 200.914 15.5423 202.279 14.6079C202.964 14.0936 203.776 13.7798 204.626 13.7012C205.88 13.7574 207.071 14.2773 207.97 15.1619L206.572 18.4361C204.626 17.3783 203.178 16.8242 202.229 16.8242C201.181 16.8242 199.883 17.5798 198.336 19.0406V29.1653C198.336 30.1727 198.535 30.8779 198.985 31.2305C199.434 31.5831 200.233 31.7846 201.381 31.7846V32.6409H191.746V31.7846C192.994 31.7846 193.843 31.5831 194.242 31.1801C194.641 30.7771 194.841 29.8201 194.841 28.2586V18.2346C194.841 16.9753 194.641 16.1694 194.192 15.7664C193.743 15.3634 192.744 15.2123 191.047 15.2123V14.356L197.437 13.8019L198.385 13.7012Z" fill="white"/>
<path d="M213.412 33.1446C212.065 33.1537 210.764 32.6501 209.768 31.7342C209.282 31.2972 208.893 30.7618 208.627 30.1629C208.36 29.5641 208.222 28.9152 208.22 28.2586C208.211 27.6683 208.321 27.0823 208.544 26.5366C208.768 25.9909 209.099 25.497 209.518 25.0852C210.367 24.2289 212.164 23.4733 214.86 22.6674C216.037 22.4108 217.178 22.0046 218.254 21.4584V20.0984C218.315 18.921 217.921 17.7657 217.156 16.8746C216.778 16.4743 216.32 16.1596 215.812 15.9512C215.304 15.7428 214.759 15.6455 214.211 15.6657C213.121 15.6541 212.061 16.0284 211.216 16.7235C210.324 17.4684 209.68 18.4701 209.368 19.5947L208.42 19.3428C208.714 17.7564 209.548 16.3238 210.779 15.2933C212.01 14.2629 213.56 13.6996 215.159 13.7012C216.909 13.6317 218.615 14.2658 219.902 15.4642C220.527 16.1161 221.014 16.8905 221.332 17.7395C221.649 18.5885 221.791 19.4941 221.749 20.4006V28.2586C221.704 29.02 221.772 29.7838 221.949 30.5253C221.993 30.7031 222.097 30.8601 222.242 30.9701C222.387 31.0802 222.566 31.1365 222.747 31.1298C222.877 31.1345 223.005 31.1043 223.119 31.0424C223.233 30.9804 223.329 30.8888 223.396 30.7772C223.637 30.3258 223.837 29.8538 223.995 29.3668H224.894C224.857 30.3666 224.488 31.3247 223.846 32.0868C223.524 32.4237 223.135 32.6877 222.705 32.8614C222.275 33.035 221.813 33.1144 221.349 33.0943C219.852 33.0943 218.853 32.238 218.254 30.475C217.568 31.2862 216.76 31.9831 215.858 32.5402C215.111 32.9577 214.266 33.1663 213.412 33.1446ZM218.304 28.8127V22.5666C217.805 22.7681 217.056 23.0703 216.058 23.4229C214.211 24.0274 213.063 24.6822 212.563 25.2867C212.029 26.0116 211.764 26.9031 211.815 27.8053C211.788 28.666 212.072 29.5072 212.613 30.1727C212.841 30.4788 213.134 30.7286 213.472 30.9032C213.809 31.0777 214.181 31.1724 214.56 31.1802C215.322 31.1675 216.066 30.9407 216.707 30.5253C217.396 30.1274 217.952 29.5311 218.304 28.8127Z" fill="white"/>
<path d="M231.783 13.7012V17.6805C233.001 16.5568 234.302 15.5296 235.677 14.6079C236.361 14.0936 237.173 13.7798 238.023 13.7012C239.278 13.7574 240.468 14.2773 241.368 15.1619L239.97 18.4361C238.023 17.3783 236.575 16.8242 235.627 16.8242C234.579 16.8242 233.281 17.5798 231.733 19.0406V29.1653C231.733 30.1727 231.933 30.8779 232.382 31.2305C232.831 31.5831 233.63 31.7846 234.778 31.7846V32.6409H225.143V31.7846C226.391 31.7846 227.24 31.5831 227.64 31.1801C228.039 30.7771 228.239 29.8201 228.239 28.2586V18.2346C228.239 16.9753 228.039 16.1694 227.59 15.7664C227.14 15.3634 226.142 15.2123 224.445 15.2123V14.356L230.834 13.8019L231.783 13.7012Z" fill="white"/>
<path d="M248.406 13.701H249.305V29.1651C249.305 30.1725 249.505 30.8777 249.954 31.18C250.403 31.4822 251.202 31.6837 252.35 31.6837V32.54H242.366V31.6837C243.814 31.6837 244.762 31.5326 245.162 31.18C245.561 30.8274 245.811 30.1725 245.811 29.1147V17.7811C245.811 16.6729 245.611 15.9174 245.211 15.5648C244.812 15.2122 243.864 15.0107 242.366 15.0107V14.1544L248.406 13.701ZM247.608 4.18079C247.897 4.1701 248.186 4.22313 248.453 4.33621C248.72 4.44929 248.96 4.6197 249.155 4.83562C249.56 5.25403 249.792 5.81234 249.804 6.39714C249.81 6.69617 249.755 6.99327 249.644 7.27036C249.532 7.54746 249.366 7.79877 249.155 8.00903C248.957 8.22081 248.716 8.38844 248.45 8.5012C248.183 8.61395 247.897 8.66936 247.608 8.66386C247.311 8.66967 247.017 8.61461 246.742 8.50204C246.468 8.38947 246.219 8.22174 246.01 8.00903C245.793 7.80127 245.619 7.55154 245.499 7.27465C245.379 6.99775 245.315 6.69935 245.311 6.39714C245.301 6.10494 245.353 5.81391 245.465 5.54425C245.577 5.2746 245.746 5.0328 245.96 4.83562C246.176 4.61834 246.433 4.44809 246.717 4.33544C247 4.22279 247.303 4.17015 247.608 4.18079Z" fill="white"/>
<path d="M269.473 27.8555V29.2156C268.564 30.4525 267.408 31.4823 266.078 32.2379C264.792 32.8778 263.369 33.1892 261.935 33.1445C260.641 33.1892 259.351 32.9714 258.142 32.5042C256.933 32.037 255.829 31.3298 254.896 30.4245C253.983 29.5423 253.262 28.4771 252.781 27.2974C252.299 26.1176 252.067 24.8494 252.1 23.5739C252.044 20.9663 252.993 18.4384 254.746 16.5219C255.56 15.6013 256.561 14.8684 257.681 14.3729C258.801 13.8775 260.013 13.6312 261.236 13.6507C263.29 13.6268 265.275 14.4025 266.777 15.8167C267.517 16.4477 268.111 17.2349 268.516 18.1226C268.921 19.0104 269.129 19.9772 269.123 20.9546V21.3576H255.745V21.6094C255.708 23.4141 256.013 25.2092 256.643 26.8985C257.177 28.3165 258.115 29.5433 259.339 30.4245C260.39 31.2253 261.667 31.6665 262.983 31.6838C264.047 31.7157 265.1 31.4545 266.028 30.9282C266.977 30.4245 268.075 29.417 269.473 27.8555ZM255.795 20.4509H265.729V20.0983C265.767 19.3824 265.663 18.666 265.423 17.9913C265.183 17.3165 264.812 16.697 264.331 16.1693C263.879 15.6972 263.335 15.3239 262.734 15.0726C262.133 14.8213 261.487 14.6974 260.837 14.7085C260.172 14.6799 259.509 14.8005 258.896 15.0619C258.283 15.3232 257.735 15.7187 257.292 16.2197C256.349 17.4276 255.823 18.9135 255.795 20.4509Z" fill="white"/>
<path d="M283.101 13.701V19.3426H282.053C281.964 18.0747 281.433 16.8793 280.555 15.9677C280.161 15.5571 279.687 15.2333 279.163 15.0166C278.639 14.7998 278.076 14.6949 277.51 14.7084C276.719 14.6787 275.942 14.928 275.314 15.4136C275.043 15.6289 274.825 15.9048 274.678 16.2195C274.53 16.5342 274.458 16.8791 274.465 17.227C274.455 17.9547 274.723 18.6584 275.214 19.1915C275.713 19.7456 276.811 20.4508 278.559 21.2064C280.755 22.2138 282.203 23.1709 282.952 24.1279C283.733 25.2203 284.097 26.5604 283.978 27.9021C283.859 29.2437 283.264 30.497 282.303 31.4318C281.771 31.9652 281.14 32.3868 280.446 32.6721C279.752 32.9575 279.009 33.1009 278.259 33.0941C277.145 33.0079 276.059 32.6997 275.064 32.1874C274.608 31.9506 274.12 31.7809 273.616 31.6837C273.465 31.6777 273.315 31.7063 273.177 31.7673C273.038 31.8284 272.916 31.9204 272.818 32.0363C272.606 32.2965 272.468 32.6099 272.418 32.943H271.52V26.6969H272.418C272.64 28.2138 273.382 29.6043 274.515 30.6259C275.541 31.5632 276.875 32.0837 278.259 32.0866C278.675 32.097 279.088 32.022 279.475 31.8662C279.861 31.7104 280.212 31.477 280.506 31.1802C280.8 30.8835 281.031 30.5295 281.186 30.1398C281.34 29.7501 281.414 29.3328 281.404 28.9132C281.404 28.0786 281.102 27.2728 280.555 26.6465C280.006 25.9917 278.758 25.2865 276.911 24.4302C274.814 23.4731 273.417 22.6168 272.768 21.8108C272.109 20.9836 271.756 19.9506 271.769 18.8893C271.765 18.1854 271.91 17.4887 272.194 16.8459C272.478 16.203 272.895 15.6289 273.417 15.1618C273.931 14.6541 274.54 14.2546 275.208 13.9865C275.877 13.7184 276.591 13.5871 277.311 13.6003C278.101 13.6135 278.882 13.7847 279.607 14.104C280.061 14.3179 280.554 14.4378 281.055 14.4566C281.303 14.4465 281.542 14.3587 281.739 14.2052C281.936 14.0518 282.081 13.8404 282.153 13.6003L283.101 13.701Z" fill="white"/>
</g>
<defs>
<clipPath id="clip0_6553_17380">
<rect width="284" height="61" fill="white"/>
</clipPath>
</defs>
</svg>
